<?xml version="1.0" encoding="utf-8"?>
<!-- Generator: Adobe Illustrator 25.2.0, SVG Export Plug-In . SVG Version: 6.00 Build 0)  -->
<svg version="1.1" id="Artwork" xmlns="http://www.w3.org/2000/svg" xmlns:xlink="http://www.w3.org/1999/xlink" x="0px" y="0px"
	 viewBox="0 0 1600 500" style="enable-background:new 0 0 1600 500;" xml:space="preserve">
<style type="text/css">
	.st0{fill:#F94926;}
	.st1{clip-path:url(#SVGID_2_);}
	.st2{fill:#F7ECE7;}
	.st3{clip-path:url(#SVGID_4_);}
	.st4{fill:#1F19DD;}
	.st5{clip-path:url(#SVGID_6_);}
	.st6{fill:#0C0000;}
	.st7{fill:#025920;}
	.st8{fill:#FFA127;}
	.st9{clip-path:url(#SVGID_8_);}
</style>
<g>
	<g>
		<rect y="0" class="st0" width="1600" height="500"/>
		<g>
			<defs>
				<rect id="SVGID_1_" y="0" width="1600" height="500"/>
			</defs>
			<clipPath id="SVGID_2_">
				<use xlink:href="#SVGID_1_"  style="overflow:visible;"/>
			</clipPath>
			<g class="st1">
				<path class="st2" d="M1354.8-89.4c-62.4-20-128.6-32.4-194.1-22.4c-12.8,1.9-25.7,4.8-36.7,11.7c-11.6,7.3-20.6,18.8-33.2,24.1
					c-17.1,7.1-36.4,1.5-54.8-0.4c-53.1-5.5-105.2,9.9-152.5,31.9c-3.6,1.7-4.1,5-7.5,7c-25.5,14.5-50.1,33.4-73,51.6
					c-2.5,1.8-4.7,3.9-6.5,6.4c-1.3,2-2.1,4.3-3.2,6.5c-5.2,10.1-14,19.4-20.1,29.1C765.7,68,758,77.9,756,92.5
					c-1.3,9.9-5.1,19.3-8.8,28.5c-7.9,19.7-19,40.2-24.4,60.7c-5,19.1-5.5,38.1-13.7,56.6c-2.2,4.9-4.8,10-3.9,15.3
					c1.6,10,10,6.5,16.3,6.1c9.6-0.6,20.4,1.9,30.1,2.4c22.6,0,45.4,2.1,68,3.1c6.5,0.3,13.1,1.6,19.6,2.3
					c7.6,0.8,14.4,0.8,21.5,3.8c1.3,0.6,2.7,1,4.1,1.3c1.1,0.3,2.3,0.3,3.4,0c2.9-0.9,5.8-5.7,6.8-8.3c0.6-1.8,1.1-3.7,1.4-5.6
					c0.9-5.2,0.7-10.5,3.8-15.1c10.4-15.2,11.3-34.1,19.2-50.3c0.2-0.5,0.5-1,1-1.3c1-0.4,2.3,0,2.7,1.1c0,0,0,0.1,0,0.1
					c0.2,0.6,0.3,1.3,0.3,2c0,0.5-0.1,0.9-0.2,1.4c-2.3,14.7-2.9,29.6-2,44.4c0.8,13.5-1.3,27.3-1.6,41c-0.5,18.9,0.1,36,1.1,54.7
					c0.8,15,2,29.9,2.1,44.9c0.3,32.7-0.9,65.4-2.5,98.1c-1.3,26.9-9.4,62.7-3.8,89c4.7,22.2,29.1,37.3,49.3,44.8
					c20.5,7.6,42.5,10.1,64.2,12.4c3.8,0.4,7.9,0.7,10.9-1.6c2.6-2,3.5-5.4,5.5-8.1c4.7-6.3,13.8-6.6,21.6-6.3l204.4,6.4
					c33.9,1.1,67.9,2.1,101.8-0.4c16.8-1.2,33.5-3.4,50.3-5.5c37.5-4.7,74.9-9.5,112.4-14.2c8.3-1,17.6-2.7,22.2-9.7
					c4.1-6.2,2.8-14.3,1.5-21.6c-12.9-70.2-19.9-141.3-21-212.6c15.4-14.4,35.7-25.9,47.1-44c1.6-2.2,2.6-4.8,3-7.6
					c0.2-3.8-1.7-7.3-3.4-10.6c-12.7-24.7-12.1-53.1-23.6-77.8c-10.8-23.1-12.3-47.8-18-72.2c-6.9-29.7-13.3-59.5-19.2-89.3
					c-2.5-12.9-10.1-25.1-15.5-37.2c-6.3-14.2-12.9-28.4-20-42.2c-5.1-10-11.4-21-21.3-27.1c-10.3-6.3-20.5-14.9-32.2-18.9
					C1396.2-81.5,1374.9-83,1354.8-89.4"/>
			</g>
		</g>
		<g>
			<defs>
				<path id="SVGID_3_" d="M821,0c-6.1,4.7-12.1,9.4-18,14.1c-2.5,1.8-4.7,3.9-6.5,6.4c-1.3,2-2.1,4.3-3.2,6.5
					c-5.2,10.1-14,19.4-20.1,29.1C765.7,68,758,77.9,756,92.5c-1.3,9.9-5.1,19.3-8.8,28.5c-7.9,19.7-19,40.2-24.4,60.7
					c-5,19.1-5.5,38.1-13.7,56.6c-2.2,4.9-4.8,10-3.9,15.3c1.6,10,10,6.5,16.3,6.1c9.6-0.6,20.4,1.9,30.1,2.4
					c22.6,0,45.4,2.1,68,3.1c6.5,0.3,13.1,1.6,19.6,2.3c7.6,0.8,14.4,0.8,21.5,3.8c1.3,0.6,2.7,1,4.1,1.3c1.1,0.3,2.3,0.3,3.4,0
					c2.9-0.9,5.8-5.7,6.8-8.3c0.6-1.8,1.1-3.7,1.4-5.6c0.9-5.2,0.7-10.5,3.8-15.1c10.4-15.2,11.3-34.1,19.2-50.3
					c0.2-0.5,0.5-1,1-1.3c1-0.4,2.3,0,2.7,1.1c0,0,0,0.1,0,0.1c0.2,0.6,0.3,1.3,0.3,2c0,0.5-0.1,0.9-0.2,1.4
					c-2.3,14.7-2.9,29.6-2,44.4c0.8,13.5-1.3,27.3-1.6,41c-0.5,18.9,0.1,36,1.1,54.7c0.8,15,2,29.9,2.1,44.9
					c0.3,32.7-0.9,65.4-2.5,98.1c-0.3,6.3-1,13.2-1.8,20.3h631.7c-6.4-49-10-98.2-10.8-147.6c15.4-14.4,35.7-25.9,47.1-44
					c1.6-2.2,2.6-4.8,3-7.6c0.2-3.8-1.7-7.3-3.4-10.6c-12.7-24.7-12.1-53.1-23.6-77.8c-10.8-23.1-12.3-47.8-18-72.2
					c-6.9-29.7-13.3-59.5-19.2-89.3c-2.5-12.9-10.1-25.1-15.5-37.2c-2-4.6-4.1-9.1-6.2-13.7L821,0z"/>
			</defs>
			<clipPath id="SVGID_4_">
				<use xlink:href="#SVGID_3_"  style="overflow:visible;"/>
			</clipPath>
			<g class="st3">
				<path class="st4" d="M893.9,229.6c0.3-1.8,0.2-3.7-0.5-5.4c-0.8-1.7-1.8-3.2-3-4.7c-0.5-0.8-1.2-1.5-2.1-2
					c-0.6-0.3-1.2-0.4-1.8-0.6c-0.9-0.4-1.7-0.9-2.5-1.5c-10.6-7.9-26.2-10.4-38.8-13.3c-14.3-3.4-28.9-5.2-43.5-5.4
					c-8.3-0.1-16.6,0.5-24.9,1l-46.6,3.1c-20.3,1.4-28.7,50.2-34.7,66.7v15c0,1.1,55.4-11.8,59.7-12.5c9.5-1.5,19.3-1,28.9-0.5
					c16.8,0.8,33.5,1.7,50.3,2.5c11.4,0.4,22.7,2.8,33.3,6.9c9.3,3.5,18.4,3.5,20.7-9.1c1.9-10.2,0.1-20.9,2.5-30.9
					C891.7,235.8,893.4,232.7,893.9,229.6"/>
				<path class="st4" d="M923,169.7c-2.3,3.4-6,2.9-13.9-1.1c-26.4-13.3-50.2-24.9-80.3-27.4c-20.1-1.7-40.3,0.2-60.2,3.5
					c-7.7,1.3-41.3,3-44.5,11.6c4.7-12.8,9.3-25.7,14-38.5c2.5-6.8,4.4-18.9,9.3-24.3c5.9-6.7,22.4-10.1,30.9-12.5
					c6.8-1.9,14-1.7,21.1-1.5l38.5,1.1c16.9,0.5,34,1,50.1,6.2c5.9,2,11.7,4.4,17.3,7c9.2,4.1,26.6,5.6,29.1,17.5
					c0.7,3.5,0.3,7.2-0.1,10.7c-1.6,12.9-5.3,25.6-8.2,38.3C925.2,164.8,924.3,167.9,923,169.7"/>
				<path class="st4" d="M891.8,38.8c-3.7-0.5-7.3-1-11-1.4c-14.9-1.8-30-2.2-45-1.1c-22.2,1.8-42.7,8.5-63.5,16
					c14.5-24.4,24.2-58.8,52.7-68.8c3.5-1.3,7.3-2.2,11.1-2.4c4.8-0.2,9.8,1,14.5-0.2c3.1-0.8,5.8-2.7,8.8-3.8
					c9.3-3.5,19.7,0.4,29.6-0.6c7.2-0.7,13.8,2,20.9,2.2c7,0.2,13.6-2.6,20.6-1.8c2.9,0.4,5.8,1.1,8.6,2c10.7,3.1,24.9,5.5,34,12
					c15.5,11.2-1.8,18-1.5,31.8c0.1,5,0.7,10.4-2.1,14.5c-1.6,2.4-4,4-5.6,6.3c-9.9,14.6-3.1,19.5-21.9,9.7
					C926.4,45.2,908.8,41.3,891.8,38.8"/>
				<path class="st4" d="M1537,59.7c0.3,0,1.6-34.1,1.5-37c-0.4-12.3-0.8-21.3-12.8-26.3c-21.1-8.9-46.7-2.5-68.7-1.9
					c-30.4,0.8-60.8,1.8-91.2,1.2c-16.4-0.3-29.4-2.8-45.6,2.1c-18.5,5.5-40.9-2.3-59.9-3.2c-17.3-0.8-34.5,4.4-51.9,2.2
					c-23.1-2.9-44.6-4.7-67.9-3.7c-23.1,1-46.1,3.4-69.3,2.1c-30.3-1.7-61-7.7-90.9-2.3c-21.4,3.9-23.6,41.2-28.8,58.7
					c-0.4,1.5-0.9,3.2,0,4.5c3.7,5.8,22.3,2.5,28.2,2.5c11,0,22,0,32.9-1.6c16.2-2.4,33.3,1.4,50,0.8c17.8-0.6,33.7,6.2,51,7.2
					c17.5,1.1,35.8-0.8,53.7,0.5c21.5,1.5,44.2-3.7,64.8-0.5c20.2,3.1,40.7,4.1,61,2.9c18.9-1.2,38.8-0.3,57.3-4.6
					c19.7-4.5,41.2-8.8,61.4-10.3c20.4-1.6,40.7,3.9,61,6.2C1494.2,61.9,1515.6,60.8,1537,59.7"/>
				<path class="st4" d="M1414.1,116.7c22.6,0.3,41.7,2.7,64.4-0.1c4.3-0.7,8.7-1,13.1-1c4.8,0.1,9.6,1.1,14.4,1.5
					c14.4,1.1,38-11.9,51-4.2c8.7,5.2,12.4,17.4,15.4,26.4c2.5,7.7,16.6,24.3,3.8,29.7c-2.8,1.2-5.9,1-9,1
					c-14,0.2-23.4,7.9-37.4,6.3c-12.1-1.4-24.2-4.5-36.3-5.1c-41.7-1.9-82.7,7.1-124,10.9c-18.7,1.7-37.5,1.7-56.1,2.7
					c-17.7,1-33.8-8.9-51.6-8.3c-6,0.2-12,2-18,1.5c-4.5-0.4-8.7-2.2-13.2-2.5c-5.9-0.5-11.7,1.5-17.5,2.9
					c-14.2,3.4-26.4,0.9-40.4,0.4c-14.5-0.6-29.1,2.9-43.8,2.1c-31.1-1.6-59.4-10.8-90.8-10.4c-38.5,0.5-79.1,11.4-117.2,1.3
					c-2.6-0.7-5.4-1.5-7-3.8c-4.3-6.2,15.1-40.4,15.1-50.8c0.4-4.1,0.3-8.3-0.3-12.4c52.3,2.3,104.7,4.8,157,7.6
					c32.6,1.7,64.9,5.8,97.4,8.9c16.7,1.6,34.3,4.3,51.1,3.7c14.6-0.5,28.9-5.6,43.8-5.6c16.6-0.1,34,6.4,50.5,4.7
					c11.8-1.2,22.2-6.5,34.6-6.8c13.4-0.3,26.1-2.7,39.4-1.5C1406.3,116.6,1410.2,116.7,1414.1,116.7"/>
				<path class="st4" d="M895.7,277.2c-0.5-10.3-0.9-20.7-1.3-31c-0.1-2.5-0.2-5.2,1.3-7.2c1.8-2.6,5.4-3.1,8.5-3.5
					c37.6-4.1,75.2-8.2,112.9-12.4c11.2-1.2,22.5-2.5,33.7-1.3c16.7,1.7,32.9,7.4,49.6,9.7c21,2.8,42.8,6.6,63.7,4.4
					c22.9-2.4,45.4,3.2,68.3,1.9c13.2-0.8,26.1-4.1,39.3-5.4c12.2-1.2,22.8,1.6,34.6,2.2c28.1,1.6,59.1,2.7,87-0.4
					c19.7-2.2,39.2-11.3,59-11.9c35.7-1,70.4,3.5,105.7-4.2c6.5-1.4,13.1-3.1,19.6-2c18.5,2.9,16.6,23.8,13.9,37.6
					c-1.3,6.7-5.3,13.3-11.6,15.9c-3.1,1.1-6.3,1.7-9.6,1.8c-55.3,4.3-111,2.2-166.2,8.7c-23.2,2.7-44.8,8.3-68,7.7
					c-25.9-0.6-51.3,3.4-77.4,1.4c-63.8-4.9-131.7-4.8-196.1-0.5c-10.6,0.7-21.3,1.6-31.7-0.1c-23.2-3.8-34.1-13.2-59.8-11.6
					c-24.3,1.5-48.3,6.4-71.3,14.4c-5.1-11-7.6-23.1-7.3-35.2"/>
				<path class="st4" d="M1145.5,339.4c8.4-0.1,16.8-0.3,25.2,0.2c18.6,1.2,37.6,4.7,55.9,8.1c26.3,4.9,53.2,7.5,79.9,5.5
					c33-2.5,65.2-12.2,98.3-13.3c22.1-0.8,44.2,2.2,66.2-0.2c12.3-1.3,33.1-7.1,43.6,2c11.6,9.9,7.7,43.5,8.7,57.8
					c-12.9,1.7-27.6,5.5-40.5,7.3c-13,1.7-26.2,3.5-39.2,1.8c-13.7-1.7-26.8-7.2-40.5-9c-19.9-2.6-40,2.6-59.7,6.4
					c-27.8,5.4-56.1,8-84.4,7.9c-15.4-0.1-31.1-1-45.6-6.1c-9-3.1-17.5-7.8-26.8-9.8c-13.7-2.9-27.8,0.1-41.7,1.7
					c-37.4,4.2-74.6-2.8-112.1-4.2c-31.9-1.2-63.9,0-95.6,3.6c-20.5,2.3-53.1,11.6-47.2-22.7c2.5-14.3,17-23.3,31.1-27.3
					c14.1-4,28.8-4.8,43.5-5.6C1025.4,340.1,1085.4,340.5,1145.5,339.4"/>
				<path class="st4" d="M948.8,456c39.5,1.3,79,0.4,118.5-2.2c19.7-1.3,39.5-2.9,59.2-2.8c59.4,0.4,117.9,19.3,177,15
					c39.4-2.8,78.9-4.1,118.5-5.2c35-0.9,72.6-7.3,107.1-5.5c3.4,0.2,7.2,0.8,9,3.7c0.8,1.6,1.2,3.3,1.1,5.1
					c1.1,19.4,12.1,44.2,5.9,62.8c-33-1.7-64,2.2-96.8,6.5c-140.8,18.5-283.8-15.9-425.5-5.5c-43.7,3.2-87.5,10.6-130.9,5
					c-2.6-0.3-5.4-0.8-7.4-2.5c-4-3.4-3-9.7-1.7-14.8c2.6-9.9,5.4-19.9,8.2-29.7c1.8-6.3,2.9-19,7.2-24.2
					C907.4,450.6,935.8,455.6,948.8,456"/>
			</g>
		</g>
		<g>
			<defs>
				<rect id="SVGID_5_" y="0" width="1600" height="500"/>
			</defs>
			<clipPath id="SVGID_6_">
				<use xlink:href="#SVGID_5_"  style="overflow:visible;"/>
			</clipPath>
			<g class="st5">
				<polygon class="st0" points="1413.5,42 1412.9,172.8 1292.3,243.6 1301.2,102.9 				"/>
				<path class="st6" d="M1507.5,149.2c-0.1,1.5-0.2,3-0.3,4.4c-1.9,25-2.3,50.2-1.1,75.3c0.9,21.9,5.1,44.5,4.6,66.2
					c-0.1,4.4-2.4,10.2-6.7,9.3c-1.7-0.3-2.9-1.7-4-3c-17.4-20.5-30.3-44.3-38.1-69.9c-3.4-11.1-8.1-25.2-6.6-36.9
					c1.7-13.4,5.7-26.7,6.9-40.4c1.3-14.2,4.4-29.1,17.6-37C1505.5,101.7,1508.3,131,1507.5,149.2"/>
				<polygon class="st7" points="1464,248 1464.6,100 1413.5,42 1412.9,172.8 1445.4,235.4 1456.2,254.1 				"/>
				<polygon class="st8" points="1292.3,243.6 1293.1,234.2 1413,162.7 1412.9,172.8 				"/>
				<polygon class="st8" points="1292.3,243.6 1343.1,300.2 1464.1,235 1412.9,172.8 				"/>
				<path class="st6" d="M1438.7,310.1c2.4,5.5,4.4,11.1,6.1,16.9c0.3,1.2,0.6,2.7-0.5,3.4c-6.1-8.3-11.7-17-16.8-25.9
					c-1.8-3.2-3.2-6.6-4.9-9.8c-0.1-0.2-1.8-2.9-2.1-2.7c-0.1,0.1-0.3,0.1-0.4,0.2c-0.3-0.7-0.7-1.4-1.1-2.1c-1.1-1.5-2.1-3.1-3-4.7
					c-2.2-4.2-4.1-8.6-6.3-12.8c-3.9-7.6-7.6-15.4-12.9-22.1c-3.4-4.3-5.6-9.9-8.2-14.8c-0.9-1.6-1.6-3.4-2.3-5.1
					c-6.5-15.2-12.8-40.5-31.4-45.1c-8.7-2.2-19.6,3.6-22.4,12.2c-1.6,4.7-0.7,10.6,0.8,15.2c1.2,3.7,3.1,13.5,6,16
					c-1.2-1.1-2-2.6-3-3.8c-3-3.4-10.4-0.8-13.9,0.7c-9.2,3.6-8.7,17.9-7.3,25.8c2.2,12.3,6.6,24.1,9.8,36.2
					c4.5,17,9.3,33.8,14.2,50.7c3.6,12.3,9.1,24,13.5,36c2.9,7.9,6.5,21.8,15.9,23.9c1.4,0.3,2.8,0.4,4.2,0.8c1.5,0.5,3,1.1,4.4,1.8
					c3.7,1.5,7.5,2.8,11.3,3.7c4.3,1.1,8.5,2.2,12.8,3.4c11,2.9,22.8,2,34.1,2.3c7.8,0.2,12.1-1,18.5-4.9c9.2-5.6,21.3-6.2,31.8-5
					c11.3,1.3,20.2,4.4,30.6-1.6c8.9-5.1,16-13,21.7-21.4c2.3-3.4,4.5-6.9,7.3-9.9c3.1-3.2,7.5-5.9,10.1-9.5
					c4.7-6.2,4.2-15.2,5.6-22.5c1.8-9.2,4.5-18.5,2.7-28c-1.1-6.1-4.2-11.1-7-16.5c-3.1-5.9-5.6-11.9-9.8-17.2
					c-1.4-1.7-2.8-3.4-4.1-5.2c-4-5.5-6.5-12.1-10.2-17.9c-3.9-6.2-7.6-12.5-10.9-19c-5.2-10.5-10.9-20.8-17.2-30.7
					c0-3.1-7.6-11.2-9.4-14.1c-3.7-5.9-6.8-12.3-10.7-18.1c-2.8-4.2-6-7.7-8.7-12.2c-6.3-10.6-14-24-25.5-29.4
					c-0.8-0.4-1.5-0.7-2.3-0.9c-2.5-0.7-5.2-0.2-7.8,0.4c-28.6,6.6-9.1,39.8-0.3,55.4c7,12.3,13.6,24.8,20.4,37.3
					c5,9.1,9.4,18.1,12.6,28.1c-17.8-27.4-35.6-54.8-50.6-83.8c-4.5-8.6-11.4-27.6-21.3-31.2c-3-1.1-6.4-0.7-9.6-0.2
					c-5.5,0.8-11.3,1.7-15.6,5.2c-4.9,4-6.9,10.8-6.6,17.1s2.6,12.4,4.9,18.3c9.5,24.3,22,47.7,30.9,72.1
					c2.4,6.6,7.2,12.1,10.9,18.2C1424.9,278.1,1431.7,294.2,1438.7,310.1"/>
				<path class="st2" d="M1395.9,185.6c-3.2,0-6.2-1.5-9.9-4.7c-5.2-4.6-9.1-10.4-11.2-17c-1.6-4.6-3.6-10.3-0.2-16.1
					c2.8-4.9,7-7.7,13.6-9.2c2.7-0.7,5.5-1.1,8.3-1c7.6,0.6,11.8,9.2,14.5,14.9l0.3,0.5c1.5,3.1,6.2,13.8,2.9,21.3
					c-1.9,4.3-5.9,6.8-10,8.8C1400.9,184.7,1398.3,185.6,1395.9,185.6z M1395.2,141.7c-2.1,0.1-4.1,0.4-6.1,0.9
					c-5.4,1.2-8.7,3.4-10.9,7.2c-2.2,3.9-1.2,7.7,0.6,12.7c2,5.8,5.4,11.1,10,15.2c5.2,4.4,7.5,4.7,13.5,1.7l0,0
					c3.4-1.7,6.7-3.7,8-6.8c2.1-4.7-0.2-12.5-2.8-17.8l-0.3-0.5c-2.3-4.8-5.9-12.1-11.1-12.5
					C1395.8,141.7,1395.5,141.7,1395.2,141.7z"/>
				<path class="st2" d="M1393.2,193.8c-1.5,0-2.8-1.2-2.8-2.8c0-0.9,0.5-1.8,1.3-2.3l21.8-14c1.3-0.8,3-0.5,3.8,0.8
					c0.8,1.3,0.5,3-0.8,3.8l0,0l-21.8,14C1394.2,193.6,1393.7,193.8,1393.2,193.8z"/>
				<path class="st2" d="M1398.8,196.3c-1.2,0-2.1-0.9-2.1-2.1c0-0.7,0.4-1.4,1-1.8c4.8-3,9.3-6.4,13.6-10.1
					c0.9-0.8,2.2-0.7,2.9,0.2c0.8,0.9,0.7,2.2-0.2,2.9l0,0c-4.4,3.9-9.1,7.4-14.1,10.5C1399.5,196.2,1399.2,196.3,1398.8,196.3z"/>
				<path class="st2" d="M1412.2,245.5c-0.2,0-0.3,0-0.5-0.1c-1.1-0.3-1.8-1.4-1.5-2.5c0,0,0,0,0,0c1.3-4.8,4-9.1,7.6-12.5
					c3.5-3.2,7.5-6,11.8-8c1-0.5,2.3-0.1,2.8,0.9c0.5,1,0.1,2.3-0.9,2.8c0,0,0,0,0,0c-3.9,1.9-7.6,4.4-10.8,7.3
					c-3.1,2.8-5.3,6.5-6.5,10.5C1413.9,244.8,1413.1,245.5,1412.2,245.5z"/>
				<path class="st2" d="M1439.3,255.1c-1.2,0-2.1-0.9-2.1-2.1c0-0.8,0.4-1.5,1.2-1.9c6.2-3.1,10.9-8.5,13.3-15
					c0.4-1.1,1.6-1.7,2.7-1.3c1.1,0.4,1.7,1.6,1.3,2.6c-2.7,7.6-8.2,13.8-15.3,17.4C1439.9,255,1439.6,255.1,1439.3,255.1z"/>
				<path class="st2" d="M1415,247.1c-1.2,0-2.1-0.9-2.1-2.1c0-0.6,0.2-1.1,0.7-1.5c9.4-8.9,20.4-16,32.3-21.1
					c1.1-0.5,2.3,0,2.7,1.1c0.5,1.1,0,2.3-1.1,2.7c0,0,0,0,0,0c-11.5,4.9-22,11.8-31.1,20.3C1416.1,246.9,1415.6,247.1,1415,247.1z"
					/>
				<path class="st2" d="M1431.1,244.3c-1.2,0-2.1-0.9-2.1-2.1c0-0.7,0.4-1.4,1-1.8c5.5-3.3,10.8-7,15.9-11c0.9-0.7,2.2-0.6,2.9,0.3
					c0.7,0.9,0.6,2.2-0.3,2.9l0,0c-5.2,4.1-10.6,7.9-16.3,11.3C1431.9,244.2,1431.5,244.3,1431.1,244.3z"/>
				<path class="st2" d="M1419.5,256.5c-1.2,0-2.1-0.9-2.1-2.1c0-1,0.7-1.9,1.7-2c3.5-0.7,6.8-2.3,9.7-4.5c0.9-0.7,2.2-0.6,2.9,0.3
					c0.7,0.9,0.6,2.2-0.3,2.9l0,0c-3.3,2.7-7.3,4.5-11.4,5.3C1419.8,256.5,1419.7,256.5,1419.5,256.5z"/>
				<path class="st2" d="M1355.5,231.6c-0.1,0-0.2,0-0.2,0c-9.6-0.2-15.8-10.7-17.2-18.1c-0.1-0.7-0.3-1.5-0.4-2.2
					c-1.1-5.5-2.2-11.2,2.1-16.9l0,0c3.9-5.2,12.1-7.7,17.9-5.5c5.6,2.1,8.7,8.8,10.6,13.6c0.2,0.5,0.4,1,0.6,1.5
					c2.2,5.6,5,12.6,2.2,18.9C1368.8,227.6,1360.7,231.6,1355.5,231.6z M1343.1,196.9c-3.2,4.2-2.4,8.4-1.4,13.6
					c0.1,0.7,0.3,1.5,0.4,2.2c1.1,6.1,6.3,14.5,13.2,14.7c3.6,0.1,10.4-3.2,11.9-6.4c2.1-4.6-0.2-10.4-2.2-15.6
					c-0.2-0.5-0.4-1-0.6-1.5c-0.9-2.4-3.7-9.5-8.2-11.2C1352.1,191.2,1345.9,193.2,1343.1,196.9L1343.1,196.9z"/>
				<path class="st2" d="M1329.6,266.6c-1.8,0-3.6-0.5-5.1-1.4c-2.3-1.5-3.4-4-4.3-5.8c-2.1-4.3-3.5-8.8-4.1-13.5l0,0
					c-0.3-2.1-0.4-4.3-0.4-6.4c-0.1-1.4,0.1-2.8,0.7-4.1c2-4.2,6.5-7.1,11.8-7.6c5-0.4,9.5,1.4,11.9,5c4,5.8,6.8,16.5,4.7,24.3
					c-0.5,2.1-1.6,4-3.2,5.5c-1.5,1.2-3.2,2-5,2.6C1334.3,266,1332,266.5,1329.6,266.6z M1329.6,232.1c-0.3,0-0.7,0-1,0
					c-3.7,0.3-6.9,2.3-8.2,5c-0.2,0.7-0.3,1.4-0.2,2.2c0,2,0.1,3.9,0.4,5.9l0,0c0.6,4.3,1.9,8.4,3.8,12.2c0.8,1.7,1.6,3.2,2.7,4
					c2,1.3,5.1,0.5,8.1-0.5c1.3-0.4,2.5-0.9,3.6-1.7c0.9-0.9,1.6-2.1,1.9-3.4c1.6-5.8-0.2-15.1-4-20.6
					C1334.8,233.1,1332.3,231.9,1329.6,232.1L1329.6,232.1z"/>
				<path class="st2" d="M1374.6,289.6c-1.2,0-2.2-1-2.2-2.2c0-0.4,0.1-0.8,0.3-1.2c5.8-8.9,14.6-15.5,24.8-18.7
					c1.2-0.4,2.4,0.3,2.8,1.5c0.4,1.2-0.3,2.4-1.5,2.8c0,0,0,0,0,0c-9.2,2.8-17.1,8.8-22.3,16.8
					C1376,289.3,1375.3,289.6,1374.6,289.6z"/>
				<path class="st2" d="M1376.1,298.8c-1.2,0-2.2-1-2.2-2.2c0-0.9,0.6-1.8,1.5-2.1c8.6-3,16.3-8.2,22.2-15.2c0.8-0.9,2.2-1,3.1-0.2
					s1,2.2,0.2,3.1l0,0c-6.5,7.5-14.8,13.2-24.1,16.5C1376.6,298.8,1376.4,298.8,1376.1,298.8z"/>
				<path class="st2" d="M1383.6,288.9c-1.2,0-2.2-1-2.2-2.2c0-0.6,0.3-1.3,0.8-1.7c6.4-5.5,13.4-10.5,20.7-14.7
					c1.1-0.6,2.4-0.3,3,0.8s0.3,2.4-0.8,3c0,0,0,0,0,0c-7.1,4.1-13.8,8.9-20.1,14.3C1384.6,288.8,1384.1,288.9,1383.6,288.9z"/>
				<path class="st2" d="M1357.5,239.8c-1.2,0-2.2-1-2.2-2.2c0-0.8,0.4-1.5,1.1-1.9c5.1-2.9,10.3-5.7,15.6-8.2c1.1-0.5,2.4-0.1,3,1
					s0.1,2.4-1,3c-5.2,2.5-10.3,5.3-15.4,8.1C1358.3,239.7,1357.9,239.8,1357.5,239.8z"/>
				<path class="st2" d="M1342.8,321.6c-1.2,0-2.1-0.9-2.1-2.1c0-1,0.7-1.8,1.6-2c6.2-1.5,11.6-5.3,15-10.7c0.6-1,1.9-1.3,2.9-0.6
					c1,0.6,1.3,1.9,0.6,2.9c-4,6.3-10.3,10.7-17.6,12.5C1343.1,321.6,1343,321.6,1342.8,321.6z"/>
				<path class="st2" d="M1329.2,277.9c-1.2,0-2.1-0.9-2.1-2.1c0-0.4,0.1-0.9,0.4-1.2c1.5-1.7,3.3-3.1,5.3-4l14.1-7.5
					c1-0.5,2.3-0.2,2.8,0.9s0.2,2.3-0.9,2.8l-14.1,7.5c-1.5,0.7-2.8,1.6-3.9,2.8C1330.5,277.6,1329.8,277.9,1329.2,277.9z"/>
				<path class="st2" d="M1365.8,376.1c-1.2,0-2.1-0.9-2.1-2.1c0-0.6,0.2-1.1,0.7-1.5l4.6-4.2c0.8-0.8,2.2-0.7,3,0.1s0.7,2.2-0.1,3
					l0,0l-4.6,4.2C1366.9,375.9,1366.4,376.1,1365.8,376.1z"/>
				<path class="st6" d="M1399.9,374c-8.1,6.2-17.3,10.6-27.1,13.1c-2.4,0.6-11.1-0.4-12.2,2.5c-1.1,2.9,6,8.9,7.9,10.5
					c6.5,5.3,15.1,7.5,22.5,11c3.7,1.7,7.2,3.7,10.8,5.7l7.2,4c2.8,1.5,5.5,3.2,8.1,5.2c11.6,9.8,15.4,26.4,16.9,40.8
					c2.2,21.2,3.2,42.7,8.6,63.4c4.4,17.1,6.3,33,12.8,49.8c2.5,6.1,6.1,11.7,10.6,16.5c11.1,12.1,26.5,21.4,37.3,33.3
					c10.6,11.8,19.3,15.3,34.8,20.1c15.8,4.9,29.7,12.1,46.5,14.2c10.8,1.3,22.2,1.2,31.9-3.9c8.8-4.7,15.2-13.1,19.3-22.2
					c8.1-17.9,8.3-38.5,4-57.6c-7.1-31.9-25-59.3-41.6-87c-8.8-14.6-20.9-29.9-27-45.8c-6.2-16.2-12.2-32.6-16.3-49.5
					c-1.7-6.9-4.6-14.7-4-21.8c0.8-9.5,6.7-17.9,8.7-27.1c0.7-3,1-6.7-1.3-8.9c-2.6,4.1-4.1,8.8-6.7,13c-3.7,5.9-8.4,6.8-14.6,8
					c-8,1.6-16.4-0.6-24.3-1.6c-9.7-1.3-19.8,1.6-29.7,0.6c-17.8-1.7-36.5-5.3-54.3-1.9C1417,360.8,1408.8,367.2,1399.9,374"/>
				<path class="st2" d="M1338.3,316c-1.2,0-2.1-0.9-2.1-2.1c0-0.6,0.3-1.2,0.7-1.6c5.7-5.1,12.3-9,19.4-11.7
					c1.1-0.4,2.3,0.1,2.7,1.2c0.4,1.1-0.1,2.3-1.2,2.7c0,0,0,0,0,0c-6.7,2.5-12.8,6.2-18.1,10.9C1339.3,315.8,1338.8,316,1338.3,316
					z"/>
				<path class="st2" d="M1342,328.7c-1.2,0-2.1-0.9-2.1-2.1c0-0.8,0.5-1.6,1.2-1.9c5.2-2.4,10-5.6,14.3-9.4c0.9-0.8,2.2-0.7,3,0.2
					c0.8,0.9,0.7,2.2-0.2,3c0,0,0,0,0,0c-4.6,4.1-9.7,7.5-15.3,10C1342.6,328.6,1342.3,328.7,1342,328.7z"/>
				<path class="st2" d="M1388,356.7c-0.8,0-1.5-0.5-1.8-1.2c-3.5-8.2-6.2-16.8-8.9-25.1c-2.9-9-5.9-18.4-9.8-27l-7.7-17.2
					c-2.5-5.3-4.7-10.8-6.6-16.4c-0.9-2.9-1.6-5.9-2.3-8.8c-0.7-3-1.5-6.2-2.4-9.1c-2.6-8.2-8.6-19.7-12.9-26.2
					c-0.6-0.9-0.3-2.1,0.6-2.6c0.9-0.6,2-0.3,2.6,0.5c5.1,7.7,10.9,19.4,13.3,27.1c1,3.1,1.7,6.3,2.5,9.4c0.7,2.8,1.4,5.8,2.2,8.6
					c1.8,5.4,3.9,10.8,6.4,16l7.7,17.2c4,8.8,7,18.3,9.9,27.4c2.6,8.2,5.4,16.8,8.8,24.8c0.4,1,0,2.1-1,2.5
					C1388.5,356.7,1388.2,356.7,1388,356.7L1388,356.7z"/>
				<polygon class="st8" points="1300.7,110.4 1413.5,50.3 1464.6,107.1 1464.6,100 1413.5,42 1301.2,102.9 				"/>
				<path class="st6" d="M1229.8,171.5c1.2,0.6,2.4,1.1,3.6,1.6c8.4,2.9,15.4,6.5,24.5,4.1c4.4-1.2,8.9-2.7,11.7-6.6
					c3.3-4.6-0.2-11.3,8.2-8.9c4.8,1.4,9.9,1.8,14.9,2.5c8.4,1.2,16.2,4.3,24.6,3.6c14.3-1.2,33.4-1.7,35.5-20.6
					c1.1-10.1-7.8-18.8-16.3-22.8c-2.6-1.2-5.3-2.1-8.1-2.6c-1.8-0.3-5.9,0.2-7.1-1.5c-0.4-0.6-0.5-1.4-0.5-2.1
					c-1.3-19.2-17.5-21.8-33.5-24.4c-17.5-2.8-34.1-3.5-51.8-4.7c-15.2-1-30.3-2.3-45.4-3.8c-7.9-0.8-15.7-2.4-23.6-3.2
					c-7.5-0.7-14.1,0.3-21.5,0.8c-13.3,1-23.2,10.2-36.1,13.4c-2.7,0.7-5.5,0.7-8.2,1.2c-12.1,2-17.8,10.1-23.8,19.6
					c-4.9,7.7-17.1,7.2-24.2,13.1c-3.7,3.1-7,7.3-10.5,10.7c-4.4,4.2-8.7,11.5-10.9,17.1c-1.5,3.8-2.2,7.9-3.7,11.7
					c-1.1,2.6-2.3,5.1-3.7,7.6c-4.2,7.8-8,15.6-11.9,23.5c-3.6,7.2-7,14.7-10.9,21.7c-2.4,4.3-5.9,8-7.3,12.7
					c-3.7,12.9,0.5,30,2.7,42.9c2.6,15.3,11.5,33.4,27.4,38.4c9.3,2.9,15.3-0.8,23.8-3.3c11.7-3.4,22.1-2.6,32.7-10.2
					c3.5-2.5,7.2-5,10.1-8.2c2.6-2.9,3.9-7.5,7.2-9.8c1.2-0.8,2.6-1.3,4.1-1.5c13-3,27.3-2.5,38.8-9.5c6.9-4.1,12.3-10.3,15.6-17.6
					c2.3-5.3,5.7-9.9,9.1-14.5c1.6-2.1,3.9-4.5,4.7-7.1c0.8-3.3,2.2-6.4,4.1-9.3c0.1-0.2,0.2-0.3,0.4-0.4c0.3-0.1,0.7,0.1,1,0.3
					c0.8,0.5,1.6,0.9,2.4,1.2c4.8,2.1,9.9,3.3,15.1,3.6c4.8,0.3,9.8-0.3,13.8-2.9c3.1-2,6.9-5.8,7.5-9.5c0.7-4.2,0.5-7.5-2.3-10.7
					c-3.9-4.7-8.8-8.6-14.3-11.3c-0.4-0.2-0.8-0.4-0.9-0.8c-0.1-0.3,0-0.6,0.1-0.8c1.6-5.2,5.3-9.6,7.9-14.4
					c1.3-2.7,2.8-5.3,4.4-7.8c1.7-2.4,4.1-4.6,7.1-5.2C1220.2,166.2,1225.4,169.3,1229.8,171.5"/>
				<path class="st6" d="M1195.3,62c5.2-3.7,10.7-7.2,16.8-8.8c6.1-1.7,13.1-1.3,18.3,2.3c6.3,4.3,9,12.9,7.1,20.3
					s-7.9,13.4-15.1,16.1c-2.6,1-5.3,1.5-8.1,1.5c-2.5-0.2-5-0.7-7.5-1.5c-10.8-2.8-28.3-1.5-37.3-7
					C1174.8,75.7,1186.7,68.1,1195.3,62"/>
				<path class="st2" d="M1326.1,122.8c-0.1,0-0.2,0-0.3,0c-8.1-1.3-14.8-1.9-21.3-2.6c-7.3-0.7-14.2-1.4-22.5-2.9
					c-13.3-2.3-27.3-2.7-40.9-3.2c-5.3-0.2-10.9-0.4-16.3-0.6c-4.6-0.2-9-0.9-13.3-1.4c-4.7-0.6-9.6-1.3-14.5-1.5
					c-14.3-0.5-27.1-1-40-1.2c-9-0.2-18.3-0.4-27.2,1.1c-0.7,0.1-1.5,0.3-2.3,0.4c-4.3,0.8-8.8,1.7-13.3,0.5
					c-1.1-0.3-1.8-1.4-1.5-2.6s1.4-1.8,2.6-1.5c0,0,0,0,0,0c3.6,1,7.4,0.2,11.4-0.5c0.8-0.1,1.5-0.3,2.3-0.4
					c9.3-1.6,18.8-1.4,28-1.2c12.9,0.3,25.8,0.7,40.1,1.3c5,0.3,10,0.8,14.9,1.5c4.2,0.6,8.6,1.2,13,1.4c5.4,0.3,10.9,0.5,16.2,0.6
					c13.7,0.4,27.8,0.9,41.5,3.2c8.2,1.4,15,2.1,22.3,2.8c6.6,0.7,13.3,1.3,21.5,2.6c1.1,0.2,1.9,1.2,1.7,2.4
					C1328,122.1,1327.2,122.8,1326.1,122.8L1326.1,122.8z"/>
				<path class="st2" d="M1334.4,152.3c-0.5,0-1,0-1.5,0c-0.9,0-1.8,0-2.8,0c-8.7-0.1-18.5-0.2-26.3-5.4c-4.9-3.3-7.9-8.5-7.6-13.6
					c0.3-6.5,5.6-11.4,10.6-13.5c4.9-2,11-1.8,15.7-1.5c2.4,0.1,4.7,0.5,7,1l0,0c4,0.9,7.8,2.4,11.3,4.5c2.7,1.6,5.4,3.6,7,6.4
					c1.5,2.7,1.6,6.3,0.2,11c-0.9,3-2.4,7.3-6.1,9.4C1339.8,151.9,1337.1,152.5,1334.4,152.3z M1317.7,122.3
					c-3.1-0.1-6.3,0.4-9.2,1.4c-3.8,1.5-7.8,5.2-8,9.8c-0.2,3.6,2.1,7.5,5.8,9.9c6.8,4.5,15.5,4.6,24,4.7c0.9,0,1.9,0,2.8,0
					c2.9,0.1,5.2,0,7-1.1c1.8-1.1,3.1-3.3,4.2-7c1-3.5,1.1-6.2,0.1-7.8c-1.1-2-3.4-3.6-5.6-4.9c-3.1-1.9-6.5-3.3-10.1-4l0,0
					c-2.1-0.5-4.2-0.7-6.4-0.9C1320.9,122.3,1319.3,122.3,1317.7,122.3z"/>
				<path class="st2" d="M1308.7,120.2c-0.7,0-1.4,0-2.1-0.1c-6.9-0.7-13.6-2.4-20-5.1c-1.6-0.6-3-1.5-4.3-2.7
					c-2.6-2.6-2.8-6.3-2.8-9.8c0-2.2,0-6.3,2.8-8.7c2.5-2.1,5.8-1.9,8.7-1.5c2.2,0.3,4.4,0.9,6.5,1.7c1.9,0.8,3.9,1.3,5.9,1.5
					c8.5,1.1,14.5,8.7,13.6,17.2c-0.2,2.5-1.5,4.8-3.6,6.3C1312,119.8,1310.4,120.3,1308.7,120.2z M1288,96.2c-1-0.1-2,0.2-2.8,0.8
					c-1.2,1.1-1.3,3.4-1.3,5.5c0,2.8,0.2,5.4,1.6,6.9c0.9,0.8,1.9,1.3,2.9,1.7c6,2.6,12.3,4.2,18.7,4.8c1.5,0.1,3.1,0.2,4.1-0.4
					c1-0.8,1.6-2,1.7-3.4c0.6-6.1-3.7-11.6-9.8-12.5l0,0c-2.4-0.3-4.7-0.8-6.9-1.8c-1.8-0.7-3.6-1.2-5.5-1.5
					C1289.7,96.3,1288.8,96.2,1288,96.2L1288,96.2z"/>
				<path class="st2" d="M1121.8,174c-1.2,0-2.1-0.9-2.1-2.1c0-0.7,0.4-1.4,1-1.8c11-7.1,29.2-12.2,34.6-13.6c1.8-0.5,3.6-1,5.4-1.5
					c5-1.4,10.2-2.8,15.3-3.8c7.7-1.5,15.4,1.3,22,4.2c4.7,2,9.4,4.3,13.9,6.5c4.2,2.1,8.6,4.2,13,6.1c1.1,0.5,1.5,1.7,1.1,2.7
					c-0.5,1.1-1.7,1.5-2.7,1.1c0,0,0,0,0,0c-4.5-1.9-8.9-4.1-13.2-6.2c-4.5-2.2-9.1-4.4-13.7-6.4c-6-2.6-13-5.2-19.5-3.9
					c-5,1-10.1,2.4-15,3.7c-1.8,0.5-3.6,1-5.5,1.5c-10.6,2.8-25,7.7-33.3,13.1C1122.6,173.8,1122.2,174,1121.8,174z"/>
				<path class="st2" d="M1265.6,149.7c-0.8,0-1.5-0.4-1.8-1.1c-3.5-6.4-7.8-8.3-13.3-10.6c-3.2-1.3-6.2-2.8-9.1-4.6
					c-14.3-9.5-32.8-17.7-50.6-22.6c-1.1-0.3-1.8-1.4-1.5-2.6s1.4-1.8,2.6-1.5c0,0,0,0,0,0c18.3,5,37.2,13.4,51.9,23.1
					c2.7,1.7,5.5,3.1,8.4,4.3c5.7,2.5,11.1,4.8,15.3,12.5c0.6,1,0.2,2.3-0.8,2.8C1266.3,149.6,1266,149.7,1265.6,149.7L1265.6,149.7
					z"/>
				<path class="st2" d="M1182.4,230.6c-0.3,0-0.5-0.1-0.8-0.2c-1.5-0.6-3.1-1.4-4.7-2.2c-2.5-1.3-5.2-2.4-7.9-3.3
					c-4.8-1.3-9.4-3-13.9-5c-2-0.8-4-1.7-6.3-2.6c-1.7-0.7-3.5-1.3-5.3-1.6c-4.4-0.7-9.3,0-14.1,0.7c-0.8,0.1-1.6,0.2-2.4,0.3
					c-7.7,1-15.7,2.3-22.7,6.1c-1,0.5-2.3,0.2-2.8-0.8s-0.2-2.3,0.8-2.8c0,0,0,0,0,0c7.6-4.1,16.1-5.4,24.2-6.5
					c0.8-0.1,1.6-0.2,2.4-0.3c4.8-0.7,10.3-1.5,15.3-0.6c2.1,0.4,4.1,1,6.1,1.8c2.3,0.9,4.4,1.8,6.4,2.6c4.3,1.9,8.8,3.5,13.4,4.8
					c3,0.9,5.9,2.1,8.7,3.5c1.6,0.8,3.1,1.5,4.5,2c1.1,0.4,1.6,1.6,1.2,2.7C1184.1,230.1,1183.3,230.6,1182.4,230.6L1182.4,230.6z"
					/>
				<path class="st2" d="M1206.7,203.6c-0.4,0-0.9-0.1-1.2-0.4c-3.7-2.7-7.8-4.4-12.1-6.1c-0.7-0.3-1.5-0.6-2.2-0.9
					c-2.2-1-4.3-2-6.4-3.2c-2.3-1.4-4.7-2.5-7.2-3.5c-1.3-0.5-2.5-1-3.7-1.7c-0.8-0.4-1.6-0.8-2.4-1.2c-8.7-3.8-18.2-6-27.4-8.2
					c-1.7-0.4-3.3-0.8-5-1.2c-1-0.3-2-0.5-3-0.8c-4.2-1.1-8-2.1-12.4-2c-6.7,0.1-13.2,2.2-18.2,4c-2.3,0.8-4.6,1.8-6.8,2.6
					c-5.1,2.2-10.4,4-15.7,5.5c-1.1,0.3-2.3-0.4-2.5-1.5c-0.3-1.1,0.4-2.3,1.5-2.5c0,0,0,0,0,0c5.2-1.4,10.3-3.2,15.2-5.3
					c2.3-0.9,4.6-1.8,6.9-2.7c5.3-1.9,12.2-4.2,19.6-4.3c4.9-0.1,9.1,1,13.5,2.2c1,0.3,2,0.5,3,0.8c1.6,0.4,3.3,0.8,4.9,1.2
					c9.3,2.2,19,4.6,28.1,8.5c0.9,0.4,1.8,0.8,2.6,1.3c1,0.6,2.1,1.1,3.2,1.5c2.7,1.1,5.3,2.3,7.8,3.8c1.9,1.1,3.9,2.1,6,3
					c0.7,0.3,1.4,0.6,2.2,0.9c4.4,1.8,8.9,3.6,13,6.6c0.9,0.7,1.1,2,0.5,2.9C1208,203.3,1207.4,203.6,1206.7,203.6L1206.7,203.6z"/>
				<path class="st2" d="M1254.1,164.4c-1.7,0-3.3-0.2-4.9-0.5c-8.5-1.9-13.4-4.7-18.6-10.7c-4-4.6-4.2-9.6-0.6-15.4
					c2.7-4.3,7.1-6.9,11.5-6.8c1.5,0.1,3,0.4,4.5,0.9c0.7,0.2,1.3,0.4,1.8,0.5c1.1,0.2,1.8,1.3,1.6,2.5c-0.2,1.1-1.3,1.8-2.5,1.6
					c0,0,0,0,0,0c-0.6-0.1-1.3-0.3-2.1-0.5c-1.1-0.4-2.2-0.6-3.4-0.7c0,0-0.1,0-0.1,0c-2.9,0-6,1.9-7.8,4.9
					c-2.6,4.2-2.6,7.3,0.2,10.5c4.6,5.3,8.7,7.7,16.3,9.3c5.5,1.2,11.2-0.1,13.6-3.2c1.7-2.2,1.7-5.2-0.2-9c-0.5-1-0.1-2.3,0.9-2.8
					c1-0.5,2.3-0.1,2.8,0.9c3.5,6.9,1.3,11.4-0.3,13.4C1264.3,162.5,1259.4,164.4,1254.1,164.4z"/>
				<path class="st2" d="M1223.8,143.7c-1.2,0-2.1-0.9-2.1-2.1c0-0.4,0.1-0.8,0.3-1.1c1.7-2.8,3.2-5.7,4.4-8.8
					c0.4-1.1,1.6-1.6,2.7-1.2c1.1,0.4,1.6,1.6,1.2,2.7c-1.3,3.3-2.9,6.5-4.7,9.5C1225.2,143.3,1224.5,143.7,1223.8,143.7z"/>
				<path class="st6" d="M1028.2,232.2c1.4,11.9,1.2,24,0.8,36c-0.7,20.1,3.6,36.8-8.8,53.2c-13.8,18.3-26.5,37.3-43.5,52.6
					c-16.5,14.8-33.9,30-49.1,46.2c-18.8,17.6-38.8,32.1-60.3,46.2c-22.4,14.7-44.9,29.3-67.2,44.3c-15.7,10.6-40.9,31.4-61,30
					c-13.4-1-17.6-9.9-25.7-18c-8.6-8.6-19.7-13.9-29-21.8c-19.3-16.5-36.4-41.4-30.2-67.9c3.7-15.9,11.7-30.5,19.6-44.9
					c10.2-18.5,20.8-35.7,41.7-42.3c31.3-9.9,61-24.4,91.9-34c36.8-11.4,73.2-24.2,108.9-38.7c20.4-8.3,41.1-20.3,59.1-32.9
					C989.8,230.3,1024.5,199.9,1028.2,232.2"/>
				<path class="st2" d="M1175.1,129.4c-1.1,0-2-0.9-2.1-2c-0.2-6.2,3.2-12,8.8-14.7c1-0.5,2.3-0.1,2.8,1c0.5,1,0.1,2.3-1,2.8
					c0,0,0,0,0,0c-4.1,2-6.6,6.2-6.4,10.7c0.1,1.2-0.8,2.1-2,2.2c0,0,0,0,0,0C1175.2,129.4,1175.2,129.4,1175.1,129.4z"/>
				<path class="st2" d="M1182.4,128.5c-1.2,0-2.1-0.9-2.1-2.1c0-0.2,0-0.3,0.1-0.5l0.3-1.4c0.1-0.4,0.4-0.8,0.7-1.1l4.5-10.7
					c0.4-1.1,1.7-1.6,2.7-1.1c1.1,0.4,1.6,1.7,1.1,2.7l-5.4,13C1184,128,1183.3,128.5,1182.4,128.5z"/>
				<path class="st2" d="M1187.1,135.9c-1.2,0-2.1-0.9-2.1-2.1c0-0.4,0.1-0.7,0.3-1.1c3.6-6,5.4-12.9,5.4-19.8
					c0-1.2,0.9-2.1,2.1-2.1c0,0,0,0,0,0h0c1.1,0,2.1,0.9,2.1,2.1c0.1,7.7-2,15.3-5.9,22C1188.5,135.5,1187.8,135.9,1187.1,135.9z"/>
				<path class="st2" d="M1289.8,140.7c-1.1,0-2-0.9-2.1-2c-0.3-4.7,0.8-9.4,3.1-13.5c0.6-1,1.8-1.4,2.9-0.8c1,0.6,1.4,1.8,0.8,2.8
					c-1.9,3.4-2.8,7.3-2.6,11.2c0.1,1.2-0.8,2.1-2,2.2C1289.9,140.7,1289.9,140.7,1289.8,140.7z"/>
				<path class="st2" d="M1279,132.5c-1.2,0-2.1-0.9-2.1-2.1c0-0.3,0.1-0.6,0.2-0.8c1.5-3.4,3.6-6.5,6.3-9c0.8-0.8,2.2-0.8,3,0.1
					c0.8,0.8,0.8,2.2-0.1,3c-2.3,2.2-4.1,4.8-5.4,7.7C1280.5,132,1279.8,132.5,1279,132.5z"/>
				<path class="st2" d="M1235.7,121.3C1235.7,121.3,1235.6,121.3,1235.7,121.3c-1.2,0-2.1-1-2.1-2.1c0,0,0,0,0,0l0.2-6.5
					c0-1.2,1-2.1,2.2-2c1.1,0,2.1,1,2,2.1l-0.2,6.5C1237.7,120.4,1236.8,121.3,1235.7,121.3z"/>
				<path class="st2" d="M1275.7,107.3L1275.7,107.3c-1.2,0-2.1-1-2.1-2.1l0.1-9.4c0-1.1,0.9-2.1,2.1-2.1h0c1.2,0,2.1,1,2.1,2.1
					l-0.1,9.4C1277.8,106.4,1276.8,107.3,1275.7,107.3z"/>
				<path class="st2" d="M1216.7,103.1c-1.1,0-2-0.8-2.1-1.9c-0.4-4.9,0.2-9.8,1.8-14.3c0.4-1.1,1.6-1.7,2.7-1.3s1.7,1.6,1.3,2.7
					l0,0c-1.4,4-2,8.3-1.6,12.6c0.1,1.1-0.7,2.2-1.9,2.3c0,0,0,0,0,0C1216.8,103.1,1216.8,103.1,1216.7,103.1z"/>
				<path class="st2" d="M1222.6,97.7c-0.1,0-0.1,0-0.2,0c-1.1-0.1-1.9-1-1.9-2l0-1.6c0-0.5,0.1-0.9,0.4-1.3
					c-0.2-1.8-0.1-3.5,0.3-5.3c0.2-1.1,1.4-1.9,2.5-1.6c0.9,0.2,1.6,1,1.7,1.9c0.1,1.7,0.1,3.5-0.1,5.2c0,0.3,0,0.7-0.1,1
					c-0.1,0.7-0.2,1.4-0.4,2.1C1224.5,97,1223.6,97.7,1222.6,97.7z"/>
				<path class="st2" d="M1227.8,107.7c-1.2,0-2.1-0.9-2.1-2.1c0-0.1,0-0.3,0-0.4c1-5.1,1.1-10.4,0.3-15.6c-0.2-1.1,0.6-2.2,1.7-2.4
					c1.1-0.2,2.2,0.6,2.4,1.7l0,0c0.9,5.6,0.8,11.4-0.4,17C1229.7,107,1228.8,107.7,1227.8,107.7z"/>
				<path class="st2" d="M1117,125.4c-1.2,0-2.1-0.9-2.1-2.1c0-0.9,0.6-1.7,1.5-2c17-5.4,34.5-10.4,51.8-14.8
					c1.1-0.3,2.3,0.4,2.5,1.5c0.3,1.1-0.4,2.3-1.5,2.5c0,0,0,0,0,0c-17.3,4.4-34.6,9.3-51.6,14.7
					C1117.5,125.4,1117.2,125.4,1117,125.4z"/>
				<path class="st2" d="M1086.4,301.8c-1.2,0-2.1-0.9-2.1-2.1c0-0.6,0.2-1.1,0.6-1.5c11.9-11.5,19.7-28.6,24-52.4l0.2-1.1
					c0.5-3.5,1.3-6.9,2.5-10.1c0.4-1.1,1.6-1.6,2.7-1.2c1.1,0.4,1.6,1.6,1.2,2.7l0,0c-1.1,3-1.8,6.2-2.3,9.3l-0.2,1.1
					c-4.4,24.7-12.6,42.6-25.2,54.7C1087.4,301.6,1086.9,301.8,1086.4,301.8z"/>
				<path class="st2" d="M1199.1,220.3c-3-0.2-5.9-0.9-8.7-2.1c-3.3-1.3-6.4-3-9.3-5.1c-2.3-1.3-3.6-3.9-3.3-6.5
					c0.2-4.2,1.2-7.4,3-9.9c2.4-3.4,6.5-5.3,10.1-4.6c1.1,0.2,1.9,1.3,1.7,2.4c-0.2,1.1-1.3,1.9-2.4,1.7c0,0,0,0,0,0
					c-2-0.4-4.5,0.8-5.9,2.9c-1.3,1.9-2,4.4-2.2,7.8c0,0.4,0,0.9,0.1,1.3c0.4,0.7,0.9,1.2,1.5,1.6c2.6,1.9,5.3,3.4,8.3,4.6
					c6.4,2.5,8.3,1.8,8.7,1.5c3.1-2.1,5-9.9,4-13.7c-0.3-1.1,0.4-2.3,1.5-2.6c1.1-0.3,2.2,0.4,2.6,1.5c1.5,5.5-0.8,15-5.6,18.3
					C1201.9,220,1200.5,220.4,1199.1,220.3z"/>
				<path class="st2" d="M1175.2,202.7c0,0-0.1,0-0.1,0c-1.2-0.1-2-1.1-2-2.2l0.4-5.7c0.1-1.2,1.1-2,2.2-1.9c1.1,0.1,2,1.1,1.9,2.2
					l-0.4,5.7C1177.2,201.8,1176.3,202.7,1175.2,202.7z"/>
				<path class="st2" d="M1130.3,203.9c-0.9,0-1.7-0.5-2-1.4c-2.4-6.5-3.4-13.5-3-20.4c0.1-1.2,1.1-2,2.2-2c1.1,0.1,2,1.1,2,2.2
					c-0.4,6.4,0.6,12.7,2.7,18.7c0.4,1.1-0.2,2.3-1.3,2.7C1130.8,203.9,1130.6,203.9,1130.3,203.9L1130.3,203.9z"/>
				<path class="st2" d="M1135.1,193.5c-0.8,0-1.6-0.5-1.9-1.3c-1.2-2.7-1.9-5.6-2.4-8.5c-0.2-1.1,0.6-2.2,1.8-2.4
					c1.1-0.2,2.2,0.6,2.4,1.8c0.4,2.6,1.1,5.1,2.1,7.5c0.4,1.1-0.1,2.3-1.1,2.7C1135.6,193.4,1135.4,193.5,1135.1,193.5
					L1135.1,193.5z"/>
				<path class="st2" d="M1141.1,205.3c-1.1,0-2-0.9-2.1-2c-0.4-7.7-1.8-15.3-4-22.7c-0.3-1.1,0.3-2.3,1.4-2.6
					c1.1-0.3,2.3,0.3,2.6,1.4c2.3,7.7,3.7,15.6,4.2,23.6c0.1,1.2-0.8,2.1-2,2.2c0,0,0,0,0,0C1141.2,205.3,1141.1,205.3,1141.1,205.3
					z"/>
				<path class="st2" d="M1169.6,206.7c-1.1,0-2-0.9-2.1-2c-0.2-3.8-0.1-7.7,0.1-11.6c-0.1-0.3-0.1-0.6,0-0.9l0.1-0.5
					c0.3-1.1,1.4-1.8,2.5-1.6c1,0.2,1.7,1.2,1.6,2.2c-0.3,4.1-0.3,8.1-0.1,12.2C1171.8,205.7,1170.9,206.7,1169.6,206.7
					C1169.7,206.7,1169.7,206.7,1169.6,206.7C1169.7,206.7,1169.6,206.7,1169.6,206.7z"/>
				<path class="st6" d="M852.6,254.9c3.8,1.3,7.4,3.1,10.6,5.5c8,6,3.4,17.5,0.8,25.5c-3.2,9.6-7.5,18.8-11,28.4
					c-12.6,34.7-9.9,76.2-16.5,112.4c-3.1,17.2-6.6,34.6-14.4,50.3c-17.9,36.1-39.3,32.7-73.8,33.6c-11.3,0.3-22.6,0.6-33.7-1.4
					c-29.1-5.3-49.1-22.5-62.5-48.9c-6.6-12.9-2-28.5,2.6-42.2c11.2-33.1,21.2-66.6,32.6-99.6c5.2-15.2,9-30.9,15.2-45.8
					c3.2-7.6,7.1-14.8,11.8-21.5c3.1-4.5,9.1-5.4,14.1-6.5c7.5-1.6,15.7-1.6,23.3-2.4c4.4-0.5,8.9-0.8,13.3-0.8
					c3.9,0,7.8,0.4,11.6,0.8c11.9,1.2,24,1.7,35.9,3.1c6,0.7,12.2,1.3,18,3C838,250.3,845.2,252.3,852.6,254.9"/>
				<path class="st2" d="M705.5,352.5c-1.2,0-2.1-0.9-2.1-2.1c0-0.5,0.2-1,0.6-1.4c15.1-16.3,28.8-27.1,43-34.2
					c16.5-8.2,34.6-11.7,52.2-15l31.8-6.1c10.3-2,21-4,31.8-3.6c1.2,0,2.1,1,2,2.2s-1,2.1-2.2,2c0,0,0,0,0,0
					c-10.3-0.4-20.7,1.6-30.8,3.6l-31.8,6.1c-17.3,3.3-35.2,6.8-51.2,14.7c-13.7,6.8-27,17.4-41.8,33.3
					C706.6,352.3,706,352.5,705.5,352.5z"/>
			</g>
		</g>
		<g>
			<defs>
				<rect id="SVGID_7_" y="0" width="1600" height="500"/>
			</defs>
			<clipPath id="SVGID_8_">
				<use xlink:href="#SVGID_7_"  style="overflow:visible;"/>
			</clipPath>
			<g class="st9">
				<path class="st2" d="M1503.7,200.7c-0.7,0-1.4-0.4-1.8-1c-5.9-9.3-11.9-18.1-17.8-26.7c-5.8-8.6-11.9-17.5-17.8-26.8
					c-0.6-1-0.3-2.3,0.6-2.9c1-0.6,2.3-0.3,2.9,0.6c5.9,9.3,12,18.1,17.8,26.7c5.8,8.6,11.9,17.5,17.8,26.8c0.6,1,0.3,2.3-0.6,2.9
					C1504.5,200.5,1504.1,200.7,1503.7,200.7L1503.7,200.7z"/>
				<path class="st2" d="M1448.3,172.9c-1.2,0-2.3-0.1-3.4-0.5c-4.7-1.4-7-5.4-8.6-9.1c-0.3-0.6-0.5-1.2-0.8-1.9
					c-2.2-5-4.7-10.7-5.4-16.1c-0.6-4.6,0.8-9.3,4-12.8c3.3-3.6,8.3-5,13-3.9c6.1,1.6,9.6,7.4,12.5,12.6l2.6,4.8
					c1.6,2.7,2.9,5.6,3.7,8.7c0,0.2,0.1,0.3,0.1,0.5c0,5.5,0,10.8-7.2,14.6C1455.5,171.7,1452,172.7,1448.3,172.9z M1443.9,132.5
					c-2.6,0-5.1,1.1-6.8,3c-2.3,2.6-3.4,6-2.9,9.4c0.6,4.8,3,10.2,5.1,14.9c0.3,0.6,0.6,1.3,0.8,1.9c1.3,3,3,5.9,6,6.8
					c3.8,1.1,8.8-1.2,10.7-2.2c4.7-2.5,5-5.1,5-10.7c-0.8-2.6-1.9-5.1-3.3-7.4l-2.6-4.8c-2.6-4.7-5.4-9.4-9.9-10.6
					C1445.3,132.5,1444.6,132.5,1443.9,132.5z"/>
				<path class="st2" d="M1456.5,182.1c-1.2,0-2.1-0.9-2.1-2.1c0-0.6,0.3-1.2,0.8-1.6c3.6-2.8,6.7-6.2,9.2-10c0.6-1,1.9-1.2,2.9-0.6
					c1,0.6,1.2,1.9,0.6,2.9c-2.7,4.2-6.1,7.9-10,11C1457.5,181.9,1457,182.1,1456.5,182.1z"/>
				<path class="st2" d="M1452.5,190.6c-1.2,0-2.1-0.9-2.1-2.1c0-0.5,0.2-1,0.5-1.4l0.6-0.7c0.3-0.3,0.7-0.6,1.1-0.7
					c5.7-4.4,11.1-9.1,16.2-14.1c0.8-0.8,2.1-0.8,3,0c0.8,0.8,0.8,2.1,0,3l0,0c-5.7,5.5-11.6,10.7-17.9,15.5
					C1453.4,190.5,1452.9,190.6,1452.5,190.6z"/>
				<path class="st2" d="M1477.9,232.5c-1.2,0-2.1-0.9-2.1-2.1c0-0.3,0.1-0.6,0.2-0.8c4.3-9.7,12.9-16.7,23.3-19.2
					c1.1-0.3,2.2,0.5,2.5,1.6s-0.5,2.2-1.6,2.5l0,0c-9,2.1-16.5,8.3-20.3,16.8C1479.5,232,1478.7,232.5,1477.9,232.5z"/>
				<path class="st2" d="M1475.2,239.6c-1.2,0-2.1-0.9-2.1-2.1c0-0.6,0.3-1.2,0.8-1.6c8.5-6.9,17.3-13.7,26.1-20.2
					c0.9-0.7,2.2-0.5,2.9,0.4c0.7,0.9,0.5,2.2-0.4,2.9c-8.8,6.5-17.5,13.2-26,20.1C1476.1,239.4,1475.6,239.6,1475.2,239.6z"/>
				<path class="st2" d="M1484.8,239.4c-1.2,0-2.1-0.9-2.1-2.1c0-0.7,0.3-1.3,0.9-1.7l10.5-7.4c2.6-1.8,5.2-3.7,7.6-5.7
					c2.1-1.7,4-3.7,5.6-6c0.6-1,1.9-1.2,2.9-0.6s1.2,1.9,0.6,2.9l0,0c-1.8,2.6-3.9,4.9-6.4,6.9c-2.5,2.1-5.3,4.1-7.9,5.9L1486,239
					C1485.6,239.2,1485.2,239.4,1484.8,239.4z"/>
				<path class="st2" d="M1480,248.1c-1.2,0-2.1-0.9-2.1-2.1c0-0.8,0.5-1.5,1.2-1.9c5.4-2.6,10.7-5.6,15.7-9c1-0.6,2.3-0.4,2.9,0.6
					c0.6,1,0.4,2.3-0.6,2.9l0,0c-5.2,3.5-10.6,6.6-16.2,9.3C1480.7,248,1480.4,248.1,1480,248.1z"/>
				<path class="st2" d="M1495.5,246.6c-1.2,0-2.1-0.9-2.1-2.1c0-0.7,0.3-1.3,0.9-1.7c5.9-4,10.9-9.3,14.6-15.5
					c0.6-1,1.9-1.3,2.9-0.7c1,0.6,1.3,1.9,0.7,2.9c-4,6.7-9.4,12.4-15.8,16.8C1496.4,246.5,1495.9,246.6,1495.5,246.6z"/>
				<path class="st2" d="M1479.5,367.4c-1.2,0-2.1-0.9-2.1-2.1c0-0.6,0.3-1.2,0.8-1.6c6.3-5.1,14.2-7.8,22.3-7.5
					c1.1,0,2.1,0.1,3.2,0.2c3.4,0.3,6.7,0.6,9.3-0.8c6.3-3.4,9-12.9,11-19.8l0.5-1.7c3.2-10.9,7.6-11.4,14-10.9c2.9,0.2,6,0.4,9.6-1
					c2.8-1.2,3.7-5.4,3.9-7.2c0.1-0.7,0.2-1.5,0.2-2.3c0.3-3,0.6-6.1,2.3-9c0.6-1,1.9-1.3,2.9-0.7c1,0.6,1.3,1.9,0.7,2.9l0,0
					c-1.2,2-1.4,4.5-1.7,7.2c-0.1,0.8-0.2,1.6-0.3,2.4c-0.7,5.4-3,9.1-6.5,10.5c-4.5,1.8-8.4,1.6-11.5,1.3c-5-0.4-7.2-0.5-9.7,7.9
					l-0.5,1.7c-2.2,7.6-5.2,18.1-13,22.3c-3.7,2-7.7,1.7-11.7,1.3c-1-0.1-2-0.2-3-0.2c-7.1-0.3-14,2-19.4,6.5
					C1480.4,367.2,1479.9,367.4,1479.5,367.4z"/>
				<path class="st2" d="M1443.8,384.5c-1.2,0-2.1-0.9-2.1-2.1c0-0.8,0.5-1.6,1.2-1.9c8.5-3.8,16.3-8.9,23.2-15.2
					c0.9-0.8,2.2-0.7,3,0.1c0.8,0.9,0.7,2.2-0.1,3c0,0,0,0,0,0c-7.2,6.5-15.4,11.9-24.3,15.9
					C1444.4,384.5,1444.1,384.5,1443.8,384.5z"/>
				<path class="st8" d="M1432.1,306.7c0,0,0,0.1,0,0.1c1.5,5-2.6,9.8-5.7,13.3c-1.2,1.5-2.6,2.8-4,4.1c-3.2,2.7-7.2,4.8-10.8,7.1
					c-3.4,2.1-6.8,4.4-10.5,5.9c-1.3,0.5-2.5,1-3.8,1.5c-3.7,1.5-7.5,2.8-11.4,3.6c-4,0.8-6.4-9.4-7.3-12.1c-0.2-0.7-2.3-8-2.2-8
					c1.4,0.6,3,0.5,4.3-0.2c2.8-1.2,5.6-2.5,8.3-4c5.8-2.8,11.5-5.9,17-9.3c2.8-1.8,5.5-3.8,8-5.9c2-1.7,5.5-4.3,6.5-6.8
					c0.5-1.4,0.6-2.9,0.1-4.2c-0.1-0.3,2.6,0.6,3,0.9c0.8,0.7,1.6,1.6,2.2,2.6C1427.9,298.4,1431,303.1,1432.1,306.7"/>
				<path class="st2" d="M1507.5,305.4c-0.3,0-0.6-0.1-0.8-0.2c-8.7-3.8-12.8-11.4-16.9-18.8c-0.6-1.1-1.2-2.2-1.8-3.3
					c-5.3-9-10.1-18.4-14.3-28c-1.6-3.5-3.3-6.9-5.3-10.2c-2.8-5-5.8-10.3-7.3-15.9c-0.3-1.1,0.4-2.3,1.5-2.6
					c1.1-0.3,2.3,0.4,2.6,1.5l0,0c1.4,5.1,4.1,9.9,6.9,14.9c2,3.4,3.8,7,5.5,10.6c4.1,9.5,8.8,18.7,14.1,27.6
					c0.6,1.1,1.2,2.2,1.8,3.3c3.9,7.1,7.5,13.8,14.9,17c1.1,0.5,1.5,1.7,1.1,2.7C1509.1,305,1508.3,305.4,1507.5,305.4L1507.5,305.4
					z"/>
			</g>
		</g>
	</g>
	<g>
		<path class="st6" d="M131.8,197c0,2.1-1.8,3.7-4,3.7c-1.6,0-3-1.2-3.5-2.8c-3.7-12.2-15.2-12.3-16.2-12.3h-6.8v68
			c0,3.9,2.8,5.6,5.1,6.5c1.4,0.6,2.5,1.9,2.5,3.5c0,2.2-1.8,3.9-4,3.9H75.5c-2.2,0-4-1.7-4-3.9c0-1.6,1.1-3,2.5-3.5
			c2.3-0.7,5.1-2.7,5.1-6.5v-68h-6.9c-0.8,0-13.3-0.1-16.2,12.3c-0.4,1.6-1.9,2.8-3.5,2.8c-2.2,0-4-1.7-4-3.7
			c0-0.8,0.7-3.6,3.1-12.8c0.4-2.1,1.9-3.6,4-3.6h68.9c2.1,0,3.5,1.6,4,3.6C131.3,195.7,131.8,196.5,131.8,197z"/>
		<path class="st6" d="M209.5,263.9c0,2.1-1.6,3.6-3.5,3.6h-27.6c-2.1,0-3.5-1.6-3.5-3.6c0-1.6,1-2.8,2.4-3.3
			c2.2-0.7,3.9-2.5,3.9-5.6v-23.7c0-11.3-7.1-11-8.2-11c-2.4,0-8,1.7-8,8.7v26c0,3,1.4,4.8,3.6,5.4c1.7,0.5,2.7,1.8,2.7,3.4
			c0,2.1-1.6,3.6-3.5,3.6h-27.6c-2.1,0-3.5-1.6-3.5-3.6c0-1.6,1-2.8,2.4-3.3c2.2-0.7,4.7-2.5,4.7-5.6v-55.8c0-6.3-2.5-7.5-4.8-8.6
			c-1.3-0.6-2.3-1.8-2.3-3.4c0-1.6,1.1-3.1,2.5-3.4l22.5-3.3c1.7-0.2,3.4,0,3.4,2.9v33.2c2.7-4.7,8.7-9.7,16.2-9.7
			c13,0,21.2,8.3,21.2,22v26c0,3,2.4,4.8,4.5,5.4C208.4,261,209.5,262.3,209.5,263.9z"/>
		<path class="st6" d="M213.7,250.5c0-18.1,25.7-19,33.3-19.4v-1.9c0-9.7,0.2-18.1-6.2-18.1c-4.7,0-7,4.2-7,7.7
			c0,3.1-0.8,4.8-2.1,6.4c-6.5,8.6-18.2,1.1-14.7-7.6c3.5-8.7,14.7-11.2,23.8-11.2c15.5,0,27.4,5.4,27.4,23.7v20.8
			c0,6.3,2.4,7.5,4.8,8.6c1.3,0.6,2.3,1.8,2.3,3.4c0,1.9-1.3,3.4-3.6,3.5l-21.4,1.6c-1.7,0.1-3.4,0-3.4-2.9v-4.1c-2.7,4-6,7-13.8,7
			C224.4,267.8,213.7,263.3,213.7,250.5z M247,246.6v-10.7c-6.9,0-10.9,5.6-10.9,14.7C236.2,268,247,258.9,247,246.6z"/>
		<path class="st6" d="M352.6,263.9c0,2.1-1.6,3.6-3.5,3.6h-27.6c-2.1,0-3.5-1.6-3.5-3.6c0-1.6,1-2.8,2.4-3.3
			c2.2-0.7,3.9-2.5,3.9-5.6v-23.7c0-11.3-7.1-11-8.2-11c-2.4,0-8,1.7-8,8.7v26c0,3,1.4,4.8,3.6,5.4c1.7,0.5,2.7,1.8,2.7,3.4
			c0,2.1-1.6,3.6-3.5,3.6h-27.6c-2.1,0-3.5-1.6-3.5-3.6c0-1.6,1-2.8,2.4-3.3c2.2-0.7,4.7-2.5,4.7-5.6v-29.3c0-6.3-2.5-7.5-4.8-8.6
			c-1.3-0.6-2.3-1.8-2.3-3.4s0.6-2.9,2.5-3.4l22.5-3.3c1.7-0.2,3.4,0,3.4,2.9v6.8c2.7-4.7,8.7-9.7,16.2-9.7c13,0,21.2,8.3,21.2,22
			v26c0,3,2.4,4.8,4.5,5.4C351.5,261,352.6,262.3,352.6,263.9z"/>
		<path class="st6" d="M428.2,263.9c0,2.1-1.6,3.6-3.5,3.6h-25.6c-2.1,0-3.5-1.6-3.5-3.6c0-1.6,1-2.8,2.4-3.3
			c1.4-0.5,1.1-2.3,0.2-3.6l-12.2-19l-1,0.7v16.3c0,3,2.4,4.8,4.5,5.4c1.6,0.5,2.7,1.8,2.7,3.4c0,2.1-1.6,3.6-3.5,3.6h-28.5
			c-2.1,0-3.5-1.6-3.5-3.6c0-1.6,1-2.8,2.4-3.3c2.2-0.7,4.7-2.5,4.7-5.6v-55.8c0-6.3-2.5-7.4-4.8-8.6c-1.4-0.7-2.3-1.8-2.3-3.4
			c0-1.9,1.6-3.4,3.5-3.6l21.5-3c1.7-0.2,3.4,0,3.4,2.9V232l18.8-14.7c1.3-1.2,1-3.3-0.8-4.7c-0.8-0.6-1.4-1.3-1.4-2.3
			c0-1.7,1.2-2.9,2.9-2.9h20.6c1.6,0,2.8,1.2,2.8,2.9c0,1.6-1.1,2.5-2.7,2.8c-3.7,0.6-9.7,1.1-15.1,5.4l-9.7,7.7l19.9,31
			c1.2,1.9,4.1,2.9,5.2,3.3C427.2,261,428.2,262.3,428.2,263.9z"/>
		<path class="st6" d="M514.2,213.9c-1.1,0.6-4.9,1-7.1,5.9l-22.7,59.8c-1.8,4.7-4.7,14.4-15.5,14.4c-4.5,0-9.4-1.3-11.6-4.7
			c-5.7-8.8,5.2-16.4,11.5-8.1c1.1,1.4,1.4,3.7,1.4,4.7c0,4.2,4.1,3.5,8.3-7.7l4.3-11.7c-3,0.2-7.2-1.1-8.3-5.6l-14.8-41.4
			c-1.1-3.1-3.5-4.6-5.6-5.4c-1.4-0.6-2.4-1.7-2.4-3.3c0-2.1,1.4-3.6,3.5-3.6h27.8c2.1,0,3.6,1.6,3.6,3.6c0,1.6-1,2.5-2.4,3.3
			c-1.9,1-2.9,3.1-2.2,5.3l9.2,26.3L501,220c1.2-3.3-1.2-5.2-2.5-6.3c-1-0.6-1.6-1.7-1.6-2.9c0-2.1,1.4-3.5,3.5-3.6h12.2
			c2.1,0.1,3.5,1.6,3.5,3.6C516.1,212.1,515.4,213.3,514.2,213.9z"/>
		<path class="st6" d="M516.1,237.6c0-17.5,10.1-31.4,32.6-31.4c22.5,0,31.5,13.9,31.5,31.4c0,17.4-9.1,31.3-31.5,31.3
			C526.3,268.8,516.1,255,516.1,237.6z M558,237.6c0-14.1-3.3-26.7-9.4-26.7c-6,0-10,12.6-10,26.7c0,14,4,26.6,10,26.6
			C554.8,264.1,558,251.6,558,237.6z"/>
		<path class="st6" d="M657.4,262.4c0,1.9-1.4,3.4-3.6,3.5l-21.4,1.6c-1.7,0.1-3.4,0-3.4-2.9v-6.8c-1.1,3.3-6.2,9.7-14.8,9.7
			c-14.6,0-22.6-8.5-22.6-22v-19.8c0-6.3-2.5-7.4-4.8-8.6c-1.3-0.5-2.3-1.8-2.3-3.4s1.1-2.9,2.5-3.4l22.5-3.3c1.7-0.2,3.4,0,3.4,2.9
			v33.4c0,10.7,6,10.7,8.2,10.7c2.9,0,8-1.4,8-7.6v-20.9c0-6.3-2.5-7.4-4.8-8.6c-1.3-0.5-2.3-1.8-2.3-3.4s1.1-2.9,2.5-3.4l22.5-3.3
			c1.7-0.2,3.4,0,3.4,2.9v40.4c0,6.3,2.5,7.4,4.8,8.6C656.4,259.5,657.4,260.9,657.4,262.4z"/>
	</g>
</g>
</svg>
