<svg id="Artwork" xmlns="http://www.w3.org/2000/svg" xmlns:xlink="http://www.w3.org/1999/xlink" width="1600" height="500" viewBox="0 0 1600 500">
  <defs>
    <style>
      .cls-1 {
        fill: none;
      }

      .cls-2 {
        clip-path: url(#clip-path);
      }

      .cls-3 {
        clip-path: url(#clip-path-2);
      }

      .cls-4 {
        fill: #3f1e0c;
      }

      .cls-5 {
        fill: #f94926;
      }

      .cls-6 {
        clip-path: url(#clip-path-3);
      }

      .cls-7 {
        fill: #f7ece7;
      }

      .cls-8 {
        clip-path: url(#clip-path-4);
      }

      .cls-9 {
        fill: #1f19dd;
      }

      .cls-10 {
        fill: #0c0000;
      }

      .cls-11 {
        fill: #025920;
      }

      .cls-12 {
        fill: #ffa127;
      }
    </style>
    <clipPath id="clip-path">
      <polyline class="cls-1" points="0 -120.167 1600 -120.167 1600 -680.167 0 -680.167 0 -120.167"/>
    </clipPath>
    <clipPath id="clip-path-2">
      <polyline class="cls-1" points="0 -1020.166 1600 -1020.166 1600 -120.167 0 -120.167 0 -1020.166"/>
    </clipPath>
    <clipPath id="clip-path-3">
      <rect class="cls-1" width="1600" height="500"/>
    </clipPath>
    <clipPath id="clip-path-4">
      <path class="cls-1" d="M820.98512.00066c-6.10972,4.67808-12.12822,9.3959-18.04336,14.06564a28.04175,28.04175,0,0,0-6.52974,6.432c-1.305,2.0231-2.06419,4.34358-3.16116,6.48589-5.15211,10.06106-14.04537,19.36405-20.07222,29.05537-7.45843,11.99129-15.20913,21.82807-17.18724,36.441-1.33847,9.89322-5.0937,19.27436-8.81811,28.53762-7.92726,19.72354-18.95793,40.186-24.35539,60.7228-5.016,19.0821-5.51048,38.136-13.73577,56.56764-2.1734,4.86905-4.76552,9.98547-3.93829,15.25118,1.57865,10.04508,9.95036,6.51473,16.28231,6.13535,9.58235-.57419,20.42674,1.94941,30.12152,2.39735,22.59756,0,45.40193,2.09554,67.97891,3.13881,6.54711.30184,13.07364,1.59184,19.58414,2.30444,7.64083.83629,14.36.828,21.50573,3.83667a22.48967,22.48967,0,0,0,4.09885,1.27973,6.61586,6.61586,0,0,0,3.37306.02885c2.851-.92407,5.75136-5.6765,6.75135-8.2943a30.11614,30.11614,0,0,0,1.359-5.64c.90623-5.21384.71293-10.49365,3.7546-15.0519,10.41218-15.23646,11.29653-34.13784,19.245-50.29774a2.97264,2.97264,0,0,1,.97365-1.299,2.06449,2.06449,0,0,1,2.74755,1.1753,4.2024,4.2024,0,0,1,.26781,1.96351c-.03018.46075-.10019.92344-.17212,1.37522a205.92883,205.92883,0,0,0-1.96015,44.41872c.79125,13.48058-1.27039,27.31232-1.63005,40.964-.49709,18.85589.0835,36.011,1.06808,54.6663.78933,14.95768,1.97426,29.8859,2.12714,44.941.3359,32.72607-.92868,65.44382-2.481,98.12761-.30122,6.34361-.98263,13.17938-1.77517,20.2702h631.7181a1282.71274,1282.71274,0,0,1-10.78661-147.616c15.44292-14.42,35.69111-25.873,47.11417-44.02974a16.57761,16.57761,0,0,0,2.95245-7.55414c.24147-3.76875-1.71993-7.27859-3.447-10.63976-12.671-24.66119-12.07237-53.07-23.64117-77.7568-10.84118-23.1328-12.29973-47.76706-17.95156-72.21167q-10.2956-44.53473-19.236-89.29694c-2.54721-12.85958-10.14052-25.12964-15.52964-37.20166q-3.06346-6.86042-6.18933-13.69266Z"/>
    </clipPath>
  </defs>
  <title>footer</title>
  <g class="cls-2">
    <g class="cls-3">
      <path class="cls-4" d="M1263.17513-211.3207V45.71192a9.05254,9.05254,0,1,1-18.10456,0V-211.3207Z"/>
    </g>
  </g>
  <g>
    <g>
      <rect class="cls-5" y="0.00066" width="1600" height="499.99934"/>
      <g class="cls-6">
        <path class="cls-7" d="M1354.757-89.43408c-62.40806-19.96131-128.633-32.3595-194.1155-22.37339-12.77758,1.94878-25.72143,4.84853-36.66735,11.708-11.62345,7.28435-20.55066,18.76166-33.20491,24.06582-17.05435,7.14852-36.38605,1.50724-54.7884-.39027-53.098-5.47591-105.16,9.88614-152.45916,31.934-3.585,1.67194-4.1181,4.99849-7.53487,6.98893-25.51786,14.54947-50.05244,33.4169-73.045,51.56656a28.03236,28.03236,0,0,0-6.52975,6.4327c-1.3057,2.0231-2.06422,4.34291-3.16119,6.48589-5.15211,10.06106-14.0447,19.36405-20.07222,29.05537-7.4578,11.99125-15.2091,21.82807-17.18724,36.441-1.33843,9.89318-5.09432,19.27436-8.81744,28.53758-7.92793,19.72358-18.95856,40.186-24.356,60.72282-5.016,19.0821-5.51052,38.136-13.73581,56.56764-2.17336,4.86907-4.76549,9.98545-3.93829,15.2512,1.57865,10.04443,9.9504,6.51469,16.28235,6.136,9.58235-.57485,20.42608,1.94941,30.12148,2.39671,22.59756,0,45.40193,2.0955,67.97895,3.13815,6.54707.30246,13.0736,1.59246,19.5841,2.30506,7.64083.83629,14.36007.828,21.50573,3.83605a22.39031,22.39031,0,0,0,4.09885,1.27975,6.59538,6.59538,0,0,0,3.3731.02882c2.85159-.92342,5.75132-5.67585,6.752-8.29367a30.163,30.163,0,0,0,1.35835-5.63995c.90556-5.21448.71289-10.49365,3.7546-15.05126,10.41214-15.23645,11.29652-34.13848,19.245-50.29773a2.97655,2.97655,0,0,1,.97365-1.30025,2.06548,2.06548,0,0,1,2.74755,1.17593,4.21181,4.21181,0,0,1,.26848,1.96415c-.03018.45947-.10149.9228-.17279,1.37458a205.93138,205.93138,0,0,0-1.96015,44.41872c.79191,13.48058-1.27035,27.31232-1.63,40.964-.49709,18.85585.0835,36.011,1.06741,54.66562.79,14.95836,1.97493,29.88656,2.12844,44.94165.33523,32.72607-.92935,65.44382-2.48166,98.127-1.27808,26.90025-9.3884,62.68312-3.82716,88.9707,4.68971,22.17219,29.12025,37.27089,49.34017,44.81351,20.46787,7.63485,42.45336,10.06622,64.17551,12.43664,3.75075.41015,7.92922.70686,10.90672-1.60591,2.585-2.00839,3.52978-5.44192,5.49185-8.05978,4.691-6.25962,13.80516-6.59483,21.63414-6.34935l204.38061,6.40958c33.93386,1.06444,67.94229,2.12691,101.80042-.37423,16.809-1.24193,33.53889-3.35921,50.26051-5.47658q56.19171-7.11422,112.38468-14.22709c8.27735-1.0484,17.60856-2.72354,22.17306-9.69261,4.05648-6.19172,2.806-14.30024,1.46694-21.5756a1282.75282,1282.75282,0,0,1-21.0318-212.615c15.44355-14.42,35.69174-25.873,47.1148-44.02976a16.57511,16.57511,0,0,0,2.95245-7.55349c.24147-3.7694-1.72-7.27857-3.447-10.63978-12.67032-24.66117-12.07237-53.0706-23.64117-77.75678-10.84118-23.1328-12.29973-47.76708-17.95093-72.21231Q1514.0265,95.65752,1505.08636,50.895c-2.54713-12.85958-10.14044-25.12964-15.52956-37.201-6.34739-14.21689-12.85142-28.37033-19.95278-42.23156-5.13737-10.02777-11.37492-21.029-21.281-27.08225-10.3344-6.31478-20.46332-14.88017-32.17669-18.94241-19.954-6.921-41.29473-8.44489-61.38942-14.87184"/>
      </g>
      <g class="cls-8">
        <path class="cls-9" d="M893.88509,229.58458a9.54294,9.54294,0,0,0-.52026-5.35094,21.44822,21.44822,0,0,0-2.95174-4.65375,6.29673,6.29673,0,0,0-2.08732-2.00067c-.57674-.28069-1.22413-.37808-1.8253-.59982a10.23772,10.23772,0,0,1-2.47715-1.5316c-10.58748-7.8611-26.15368-10.44493-38.81691-13.31587a204.66153,204.66153,0,0,0-43.51692-5.44323c-8.29723-.0673-16.58482.48575-24.86343,1.03814l-46.558,3.10549c-20.31048,1.35471-28.66232,50.23106-34.65191,66.73511v14.95384c0,1.076,55.35611-11.79006,59.72085-12.45653,9.54449-1.45661,19.26491-.9856,28.90829-.51075q25.13736,1.23812,50.274,2.47555a101.39543,101.39543,0,0,1,33.28652,6.92357c9.34856,3.47266,18.38051,3.48037,20.68492-9.09728,1.86767-10.19693.05009-20.86809,2.49965-30.94391.75142-3.09011,2.37759-6.17765,2.89463-9.32735"/>
        <path class="cls-9" d="M923.01216,169.74051c-2.33588,3.43679-5.9755,2.92284-13.88865-1.07785-26.38363-13.33574-50.20983-24.8637-80.34676-27.35976-20.12616-1.66682-40.33519.20765-60.19484,3.549-7.70891,1.297-41.32875,3.00356-44.46807,11.64393q6.996-19.25386,13.99269-38.50769c2.4688-6.79411,4.44051-18.85523,9.30043-24.3241,5.94979-6.69413,22.35734-10.09695,30.92751-12.495,6.80529-1.90521,13.9972-1.7245,21.06194-1.52968l38.5491,1.06314c16.8841.46588,34.045.97729,50.10061,6.21226a176.12715,176.12715,0,0,1,17.33882,7.04788c9.22913,4.13721,26.60907,5.62266,29.08172,17.53127.73154,3.52267.30187,7.17026-.13038,10.74292-1.56321,12.9141-5.29986,25.61988-8.18034,38.2648-.982,4.30834-1.86893,7.36254-3.14378,9.23889"/>
        <path class="cls-9" d="M891.80409,38.7658q-5.50089-.82471-11.03-1.44954A233.53139,233.53139,0,0,0,835.73887,36.264c-22.234,1.80394-42.69224,8.452-63.4639,15.95293C786.75322,27.77233,796.50127-6.593,824.96963-16.558a38.578,38.578,0,0,1,11.057-2.42812c4.83808-.19991,9.78984,1.0042,14.468-.239,3.09628-.82283,5.81941-2.66139,8.82259-3.779,9.30552-3.463,19.69136.37424,29.57943-.562,7.17588-.67928,13.78591,2.01606,20.85128,2.18523,6.97549.16662,13.59963-2.628,20.60468-1.76421a54.8996,54.8996,0,0,1,8.56053,2.00006c10.6562,3.09778,24.89682,5.46117,33.97115,12.04125,15.49106,11.23316-1.77517,17.98178-1.49,31.78215.10212,4.96708.65448,10.35393-2.08021,14.50523-1.55106,2.3538-3.99933,4.004-5.58182,6.33656-9.88741,14.57771-3.07315,19.45894-21.94374,9.66761-15.37033-7.97451-32.977-11.87141-49.98435-14.422"/>
        <path class="cls-9" d="M1536.9972,59.71426c.28639-.01471,1.64475-34.13013,1.54008-37.00813-.44507-12.25848-.80156-21.27439-12.8174-26.31645-21.14477-8.87428-46.68321-2.46848-68.72456-1.86672-30.37711.83049-60.76645,1.76033-91.15767,1.18744-16.44416-.30951-29.36881-2.76712-45.57856,2.06542-18.53022,5.52527-40.919-2.3256-59.866-3.151-17.32851-.75493-34.458,4.4166-51.86872,2.24995C1185.41809-6,1163.9246-7.83406,1140.65073-6.80166c-23.09144,1.0234-46.14367,3.39579-69.2801,2.12566-30.34567-1.6649-60.97194-7.74128-90.86289-2.26087-21.3561,3.91548-23.57508,41.21133-28.81069,58.7189-.44507,1.48994-.86577,3.20033-.03532,4.516,3.6878,5.84377,22.31434,2.53,28.20054,2.53834,10.98054.01475,22.00733.02695,32.87293-1.55081,16.22319-2.35568,33.27362,1.37077,50.02158.78376,17.79162-.62288,33.70588,6.15582,50.985,7.24141,17.49488,1.09967,35.80989-.75685,53.71135.47229,21.48,1.47457,44.233-3.695,64.76891-.52486a286.08845,286.08845,0,0,0,61.04782,2.88183c18.89494-1.15541,38.75074-.28451,57.28543-4.56206,19.676-4.541,41.19132-8.76022,61.36825-10.3264,20.42608-1.58609,40.65185,3.92127,61.00855,6.22763,21.24433,2.407,42.71219,1.32266,64.06511.23515"/>
        <path class="cls-9" d="M1414.08854,116.73939c22.58984.33391,41.74749,2.74342,64.35919-.0756a85.65677,85.65677,0,0,1,13.12308-.95546c4.81625.14479,9.57079,1.10092,14.37544,1.46108,14.44873,1.0843,38.03408-11.85992,50.97927-4.16925,8.74869,5.19715,12.42046,17.39093,15.36068,26.41579,2.51248,7.71113,16.615,24.26707,3.80787,29.727-2.78224,1.18616-5.92607.999-8.95167,1.049-14.00554.23265-23.37531,7.88739-37.39113,6.28337-12.08326-1.38227-24.15053-4.51018-36.31219-5.07347-41.66721-1.92825-82.68448,7.08376-123.97215,10.94736-18.66891,1.7469-37.544,1.65078-56.11461,2.696-17.74858.9984-33.75543-8.93835-51.63368-8.34238-6.03332.20058-12.00369,2.0481-18.01255,1.47777-4.45467-.42231-8.7102-2.1609-13.17059-2.51143-5.92732-.46653-11.72686,1.5316-17.50326,2.935-14.18924,3.44575-26.41189.94522-40.40521.39411-14.493-.571-29.14976,2.88246-43.83166,2.14423-31.12277-1.56619-59.39265-10.77111-90.82816-10.38917-38.53819.46779-79.13289,11.3831-117.15342,1.3156-2.61458-.6921-5.44948-1.53288-6.99281-3.7508-4.32108-6.21284,15.1314-40.4494,15.13269-50.80846a50.73987,50.73987,0,0,0-.29607-12.4296q78.50437,3.42974,156.97219,7.62848c32.57042,1.74242,64.94751,5.78416,97.39978,8.90181,16.72546,1.60595,34.27553,4.30129,51.09475,3.7444,14.63047-.48446,28.91927-5.55089,43.84194-5.64,16.6458-.09994,34.04307,6.37759,50.529,4.74793,11.7801-1.165,22.20191-6.457,34.63523-6.76912,13.42813-.33708,26.1248-2.744,39.35959-1.49632,3.83876.36208,7.71406.48446,11.59844.54211"/>
        <path class="cls-9" d="M895.6764,277.15334q-.67536-15.51456-1.35-31.02914c-.10854-2.49285-.15864-5.194,1.29285-7.22539,1.84455-2.58256,5.38978-3.14458,8.549-3.49064q56.43349-6.18082,112.867-12.3636c11.18923-1.22526,22.47933-2.45182,33.67636-1.29832,16.73761,1.72384,32.85493,7.43431,49.64586,9.66761,21.02215,2.796,42.84641,6.58714,63.7131,4.4288,22.90139-2.36788,45.43532,3.2266,68.30841,1.90713,13.22712-.76388,26.09979-4.13594,39.25814-5.43813,12.16935-1.20412,22.82817,1.55018,34.564,2.23588,28.074,1.638,59.05553,2.70111,87.04153-.37169,19.71578-2.16473,39.208-11.34724,58.97463-11.88937,35.70327-.97985,70.41627,3.45152,105.66928-4.22117,6.45206-1.40408,13.05629-3.07858,19.579-2.04874,18.54433,2.92667,16.58034,23.805,13.87328,37.64-1.31343,6.7108-5.28186,13.29282-11.60612,15.92407a30.87285,30.87285,0,0,1-9.55025,1.78537c-55.33171,4.26666-111.04687,2.22305-166.22194,8.73775-23.16591,2.73572-44.81166,8.2751-68.01677,7.72909-25.85377-.60878-51.30487,3.35221-77.35707,1.3528-63.80686-4.89788-131.674-4.78126-196.06859-.52164-10.57337.6998-21.25783,1.58928-31.713-.13265-23.24494-3.82834-34.13688-13.18257-59.79025-11.55485a267.29006,267.29006,0,0,0-71.33018,14.37836,79.135,79.135,0,0,1-7.31394-35.22917"/>
        <path class="cls-9" d="M1145.54036,339.44368c8.41408-.14418,16.82949-.28324,25.225.2448,18.63229,1.17273,37.5542,4.71782,55.85706,8.12,26.30848,4.88956,53.18082,7.54709,79.86374,5.50988,32.97888-2.51719,65.19861-12.15532,98.25331-13.33959,22.06322-.79078,44.23753,2.20191,66.18637-.18455,12.321-1.34,33.0688-7.08249,43.6486,1.96863,11.62792,9.94766,7.66466,43.47862,8.71082,57.83842-12.91179,1.72512-27.57691,5.54385-40.48933,7.269-12.9876,1.73474-26.15239,3.47139-39.15222,1.82574-13.73451-1.738-26.783-7.19592-40.5105-8.99666-19.94055-2.61588-39.95048,2.59345-59.69582,6.40577a435.68759,435.68759,0,0,1-84.42181,7.88994c-15.414-.06729-31.0682-.9997-45.6209-6.07-9.00373-3.13623-17.4988-7.82842-26.82106-9.8323-13.6805-2.94207-27.82481.13586-41.73079,1.70718-37.42515,4.22629-74.64224-2.82672-112.061-4.21348a642.80668,642.80668,0,0,0-95.588,3.563c-20.51668,2.307-53.13206,11.585-47.18866-22.69319,2.48292-14.31814,17.04788-23.31288,31.0566-27.286,14.0839-3.9956,28.84475-4.83317,43.46361-5.64895,60.86089-3.39449,120.8874-3.04973,181.0149-4.07763"/>
        <path class="cls-9" d="M948.77678,456.03909c39.48742,1.28743,79.03329.36463,118.46038-2.17371,19.72543-1.26949,39.45211-2.94463,59.218-2.80685,59.37149.4127,117.8856,19.266,177.02267,15.00191,39.43023-2.844,78.94787-4.11351,118.45971-5.18114,34.9667-.94523,72.60824-7.34459,107.0855-5.54192,3.37181.17687,7.23691.81577,8.97095,3.70593a10.91817,10.91817,0,0,1,1.12206,5.05361c1.1284,19.41469,12.11862,44.20917,5.92411,62.79463-33.01933-1.66745-63.98734,2.216-96.79218,6.50958-140.83959,18.47266-283.8256-15.91125-425.49431-5.52526-43.655,3.20032-87.53349,10.64231-130.93866,5.00106-2.63129-.3422-5.41032-.79912-7.42311-2.52424-3.99607-3.42525-3.01474-9.73362-1.666-14.81351q3.95852-14.90514,8.16878-29.74043c1.79315-6.318,2.88561-19.03019,7.23495-24.20428,9.26828-11.02938,37.68015-5.97833,50.64717-5.55538"/>
      </g>
      <g class="cls-6">
        <polygon class="cls-5" points="1413.506 41.984 1412.927 172.793 1292.333 243.561 1301.206 102.883 1413.506 41.984"/>
        <path class="cls-10" d="M1507.492,149.1625c-.07,1.547-.16769,3.01259-.27879,4.36153a614.32383,614.32383,0,0,0-1.14832,75.25883c.88435,21.88572,5.09755,44.53342,4.60175,66.19743-.1002,4.37947-2.37575,10.21168-6.6711,9.30875-1.65823-.348-2.89334-1.69437-3.99156-2.98243a195.32908,195.32908,0,0,1-38.08411-69.947c-3.35966-11.1031-8.09688-25.23859-6.61905-36.8851,1.69743-13.36715,5.69934-26.6894,6.94848-40.37825,1.29352-14.18228,4.40136-29.106,17.63874-37.04083,25.63221-15.364,28.42857,13.98045,27.604,32.107"/>
        <polygon class="cls-11" points="1464.028 248.005 1464.582 99.985 1413.506 41.984 1412.927 172.793 1445.419 235.43 1456.158 254.063 1464.028 248.005"/>
        <polygon class="cls-12" points="1292.333 243.561 1293.053 234.199 1412.971 162.688 1412.927 172.792 1292.333 243.561"/>
        <polygon class="cls-12" points="1292.333 243.561 1343.146 300.186 1464.077 234.962 1412.927 172.792 1292.333 243.561"/>
        <path class="cls-10" d="M1438.74052,310.07115a141.04978,141.04978,0,0,1,6.11933,16.88019c.34362,1.16376.55428,2.68447-.46052,3.35478a258.94052,258.94052,0,0,1-16.7794-25.93518c-1.763-3.19648-3.21572-6.59737-4.88947-9.81757-.11557-.22236-1.80986-2.85811-2.0674-2.69022a1.1444,1.1444,0,0,1-.40972.16533,14.51668,14.51668,0,0,0-1.0758-2.11922,41.89236,41.89236,0,0,1-2.95629-4.71781c-2.22538-4.19362-4.10328-8.55963-6.258-12.78849-3.878-7.6131-7.59653-15.40243-12.94072-22.13245-3.40717-4.28974-5.64281-9.94573-8.21565-14.84362-.86318-1.64374-1.58893-3.35413-2.314-5.06258-6.46938-15.24993-12.7506-40.50453-31.395-45.12879-8.73012-2.16473-19.55334,3.63225-22.38631,12.24378-1.5549,4.72677-.702,10.57566.8221,15.18711,1.22413,3.70337,3.08855,13.50172,6.01983,16.00224-1.2402-1.058-1.95693-2.59473-3.03916-3.8136-3.00059-3.37656-10.39226-.751-13.92651.65238-9.17456,3.64569-8.72816,17.93821-7.29728,25.80828,2.24277,12.32963,6.5876,24.13506,9.78466,36.22375,4.4836,16.9558,9.31521,33.82575,14.24835,50.65658,3.60685,12.30849,9.1174,24.00114,13.54377,36.036,2.91129,7.91749,6.50466,21.77616,15.90273,23.8704,1.3956.31145,2.83807.39411,4.2183.76771a29.34822,29.34822,0,0,1,4.41484,1.84817,70.05209,70.05209,0,0,0,11.32608,3.68607q6.39093,1.686,12.78008,3.37079c10.98888,2.89784,22.75235,2.03016,34.063,2.25189,7.822.15252,12.12889-.96,18.50387-4.86842,9.1951-5.63933,21.34971-6.19942,31.75609-4.97158,11.29009,1.33166,20.2,4.41791,30.59866-1.5726,8.90291-5.12924,16.00678-12.99161,21.7479-21.3923,2.321-3.39642,4.4803-6.94086,7.33-9.90921,3.09624-3.224,7.468-5.93155,10.14366-9.47088,4.70837-6.22954,4.22731-15.19415,5.62745-22.49581,1.76422-9.19788,4.50406-18.54763,2.73081-27.97108-1.14447-6.08152-4.17587-11.11463-7.01723-16.48417-3.11749-5.89374-5.646-11.93231-9.784-17.24418-1.36023-1.74563-2.84583-3.3945-4.14766-5.18434-4.0288-5.53488-6.53617-12.09317-10.15651-17.9081-3.85993-6.20005-7.644-12.45845-10.90351-18.99814a327.07238,327.07238,0,0,0-17.184-30.70233c0-3.13881-7.59394-11.15114-9.3929-14.05156-3.6749-5.92579-6.84319-12.33475-10.73777-18.0984-2.831-4.19041-6.03136-7.74894-8.671-12.17133-6.30944-10.56929-13.98367-24.01013-25.51531-29.36366a14.283,14.283,0,0,0-2.33262-.8901c-2.54525-.67737-5.24525-.21278-7.81237.37744-28.57047,6.56792-9.1283,39.772-.28577,55.39748,6.971,12.31811,13.57584,24.83679,20.35482,37.26,4.97226,9.128,9.3987,18.14263,12.59451,28.12168-17.764-27.39113-35.55753-54.83355-50.635-83.78384-4.47521-8.59418-11.389-27.60582-21.34837-31.21176-3.04105-1.101-6.39749-.65366-9.59847-.19228-5.497.79208-11.29135,1.71105-15.58867,5.22152-4.90938,4.01162-6.87658,10.7737-6.56189,17.09809s2.59793,12.36616,4.89912,18.26694c9.46416,24.26259,21.9624,47.71518,30.86718,72.06556,2.43086,6.64608,7.1887,12.11112,10.85788,18.217,8.98248,14.94872,15.79031,31.04326,22.82942,46.9545"/>
        <path class="cls-7" d="M1395.92176,185.57347c-3.24168,0-6.17037-1.52153-9.90761-4.70493a39.031,39.031,0,0,1-11.24528-16.98454c-1.60407-4.599-3.60031-10.32261-.24592-16.13175,2.816-4.87782,7.00687-7.71129,13.589-9.18774a27.87441,27.87441,0,0,1,8.29982-.97779c7.58441.59439,11.752,9.18727,14.5093,14.87326l.25058.51678c1.51278,3.11,6.19366,13.84109,2.88957,21.34185-1.87981,4.26809-5.89744,6.753-9.95792,8.802C1400.90072,184.737,1398.32507,185.57347,1395.92176,185.57347Zm-.76012-43.85947a28.70525,28.70525,0,0,0-6.13124.92435c-5.41584,1.2148-8.66963,3.36744-10.882,7.19822-2.22726,3.85727-1.16719,7.68665.572,12.67508a35.36312,35.36312,0,0,0,10.01008,15.18091c5.21742,4.4433,7.48567,4.72911,13.4837,1.70185h0c3.36651-1.69813,6.66687-3.69183,8.01664-6.75534,2.05306-4.66265-.23754-12.524-2.82436-17.83917l-.25244-.52143c-2.3409-4.82716-5.8788-12.12252-11.07015-12.52962C1395.77924,141.72515,1395.4709,141.714,1395.16164,141.714Z"/>
        <path class="cls-7" d="M1393.18869,193.77924a2.77375,2.77375,0,0,1-1.5072-5.1074l21.78725-13.98888a2.77556,2.77556,0,1,1,3.0088,4.665l-21.78725,13.98981A2.77193,2.77193,0,0,1,1393.18869,193.77924Z"/>
        <path class="cls-7" d="M1398.7573,196.32039a2.08729,2.08729,0,0,1-1.11689-3.85449,107.76783,107.76783,0,0,0,13.55077-10.08466,2.08964,2.08964,0,1,1,2.75729,3.14065,111.93284,111.93284,0,0,1-14.078,10.4769A2.08832,2.08832,0,0,1,1398.7573,196.32039Z"/>
        <path class="cls-7" d="M1412.15158,245.45875a2.11409,2.11409,0,0,1-.51793-.0646,2.08747,2.08747,0,0,1-1.51185-2.5379,26.80339,26.80339,0,0,1,7.60956-12.49244,47.81829,47.81829,0,0,1,11.7604-8.02266,2.08854,2.08854,0,1,1,1.90588,3.71693,43.83381,43.83381,0,0,0-10.75995,7.30975,22.648,22.648,0,0,0-6.46007,10.51734A2.09314,2.09314,0,0,1,1412.15158,245.45875Z"/>
        <path class="cls-7" d="M1439.27082,255.07311a2.08743,2.08743,0,0,1-.93617-3.95626,26.83851,26.83851,0,0,0,13.262-15.02476,2.09148,2.09148,0,0,1,3.94964,1.37746,31.048,31.048,0,0,1-15.343,17.38374A2.08871,2.08871,0,0,1,1439.27082,255.07311Z"/>
        <path class="cls-7" d="M1415.02531,247.129a2.08793,2.08793,0,0,1-1.43547-3.60678,109.88339,109.88339,0,0,1,32.29289-21.10019,2.08823,2.08823,0,1,1,1.6432,3.83961,105.697,105.697,0,0,0-31.06516,20.299A2.08857,2.08857,0,0,1,1415.02531,247.129Z"/>
        <path class="cls-7" d="M1431.14893,244.34665a2.08731,2.08731,0,0,1-1.08242-3.87586,151.09519,151.09519,0,0,0,15.88143-11.00019,2.0896,2.0896,0,1,1,2.60265,3.26985,155.45726,155.45726,0,0,1-16.323,11.306A2.08535,2.08535,0,0,1,1431.14893,244.34665Z"/>
        <path class="cls-7" d="M1419.52081,256.50866a2.08741,2.08741,0,0,1-.41453-4.13378,22.83912,22.83912,0,0,0,9.65238-4.5,2.0896,2.0896,0,1,1,2.612,3.26241,27.04655,27.04655,0,0,1-11.43157,5.32907A2.07988,2.07988,0,0,1,1419.52081,256.50866Z"/>
        <path class="cls-7" d="M1355.45294,231.57908c-.0829,0-.16488-.00093-.24685-.00279-9.60207-.23887-15.82368-10.74272-17.17531-18.125-.1332-.73242-.27666-1.45368-.41825-2.16565-1.08987-5.49126-2.21608-11.16981,2.14342-16.90181h0c3.93287-5.16967,12.12463-7.70339,17.88513-5.535,5.57233,2.09733,8.7339,8.76111,10.62767,13.59153.1891.48379.38751.97919.58965,1.48435,2.24775,5.61628,5.0451,12.6063,2.1518,18.85555C1368.77922,227.59587,1360.68527,231.57908,1355.45294,231.57908Zm-12.364-34.67081c-3.223,4.237-2.40518,8.354-1.37119,13.56644.14531.732.29249,1.47366.43036,2.22652,1.10757,6.05359,6.298,14.53029,13.16233,14.70085,3.64037.10363,10.4274-3.18992,11.90106-6.37333,2.13876-4.61757-.18724-10.42857-2.23937-15.55548-.20586-.51492-.408-1.01962-.60083-1.51224-.92313-2.35479-3.73165-9.52141-8.20759-11.2056-4.02974-1.51781-10.26532.461-13.07477,4.15284Z"/>
        <path class="cls-7" d="M1329.5959,266.60542a8.961,8.961,0,0,1-5.08329-1.44021c-2.27383-1.5206-3.42519-4.00412-4.26541-5.8175a45.03823,45.03823,0,0,1-4.13035-13.51253h0a50.2418,50.2418,0,0,1-.40148-6.44908,9.2958,9.2958,0,0,1,.65485-4.05338c1.9655-4.22859,6.4992-7.13642,11.8312-7.58813,5.00318-.42291,9.46048,1.43555,11.90665,4.97587,3.99713,5.78405,6.8336,16.4645,4.66131,24.32683a11.02231,11.02231,0,0,1-3.238,5.52612,14.73572,14.73572,0,0,1-5.00783,2.55044A21.44766,21.44766,0,0,1,1329.5959,266.60542Zm.00186-34.50816c-.33628,0-.67628.01487-1.0228.04415-3.69719.31276-6.91279,2.29484-8.19363,5.04884a5.824,5.824,0,0,0-.24312,2.18145,45.94756,45.94756,0,0,0,.36236,5.89l.00093.00047a40.33578,40.33578,0,0,0,3.75867,12.23312c.80483,1.73623,1.56495,3.23592,2.71537,4.005,1.96178,1.31287,5.05069.51539,8.09209-.5428a11.04488,11.04488,0,0,0,3.55839-1.71068,6.75134,6.75134,0,0,0,1.88074-3.373c1.61059-5.83145-.20121-15.09447-4.03906-20.64848A8.1135,8.1135,0,0,0,1329.59776,232.09726Z"/>
        <path class="cls-7" d="M1374.59189,289.64214a2.2077,2.2077,0,0,1-1.85838-3.3995A45.68154,45.68154,0,0,1,1397.497,267.56a2.20678,2.20678,0,1,1,1.28736,4.22162,41.19215,41.19215,0,0,0-22.33032,16.847A2.21239,2.21239,0,0,1,1374.59189,289.64214Z"/>
        <path class="cls-7" d="M1376.13075,298.80758a2.20606,2.20606,0,0,1-.72844-4.28994,51.69789,51.69789,0,0,0,22.2381-15.17394,2.20934,2.20934,0,0,1,3.36277,2.86646,56.12951,56.12951,0,0,1-24.144,16.47333A2.21,2.21,0,0,1,1376.13075,298.80758Z"/>
        <path class="cls-7" d="M1383.57357,288.94877a2.20585,2.20585,0,0,1-1.44292-3.87865,139.43746,139.43746,0,0,1,20.7365-14.7278,2.20747,2.20747,0,1,1,2.22446,3.81358,134.97681,134.97681,0,0,0-20.077,14.25935A2.20517,2.20517,0,0,1,1383.57357,288.94877Z"/>
        <path class="cls-7" d="M1357.50694,239.8104a2.20586,2.20586,0,0,1-1.0936-4.12495c5.087-2.8818,10.33052-5.65206,15.5852-8.23411a2.20736,2.20736,0,1,1,1.95433,3.95858c-5.17737,2.54394-10.3445,5.27331-15.35606,8.11235A2.20685,2.20685,0,0,1,1357.50694,239.8104Z"/>
        <path class="cls-7" d="M1342.80294,321.59521a2.08743,2.08743,0,0,1-.489-4.11752,24.8805,24.8805,0,0,0,15.01046-10.68789,2.09127,2.09127,0,0,1,3.52859,2.24558,29.10322,29.10322,0,0,1-17.55723,12.50127A2.117,2.117,0,0,1,1342.80294,321.59521Z"/>
        <path class="cls-7" d="M1329.17672,277.88444a2.089,2.089,0,0,1-1.67487-3.33677,15.17277,15.17277,0,0,1,5.31337-4.00273l14.13763-7.53376a2.08884,2.08884,0,1,1,1.97109,3.68346l-14.13763,7.5333a11.65613,11.65613,0,0,0-3.931,2.8172A2.0906,2.0906,0,0,1,1329.17672,277.88444Z"/>
        <path class="cls-7" d="M1365.83563,376.09332a2.08726,2.08726,0,0,1-1.42615-3.61608l4.56257-4.23509a2.08987,2.08987,0,1,1,2.85044,3.057l-4.56257,4.2351A2.08825,2.08825,0,0,1,1365.83563,376.09332Z"/>
        <path class="cls-10" d="M1399.86309,374.04055a75.78083,75.78083,0,0,1-27.14281,13.13132c-2.41675.61392-11.09676-.44987-12.23034,2.49732-1.09956,2.85748,5.9626,8.90695,7.89327,10.46546,6.51305,5.25739,15.07225,7.483,22.54162,11.00055,3.68337,1.73537,7.24075,3.72324,10.795,5.71046l7.18352,4.0161a50.4758,50.4758,0,0,1,8.066,5.20677c11.64336,9.81757,15.44613,26.44912,16.91111,40.79225,2.16822,21.22952,3.18491,42.69424,8.56187,63.44442,4.43342,17.10963,6.29078,33.02984,12.809,49.83635a53.191,53.191,0,0,0,10.626,16.52195c11.05254,12.14443,26.53717,21.37884,37.32049,33.28424,10.64722,11.75674,19.2682,15.28,34.756,20.10809,15.79416,4.92286,29.67575,12.06688,46.46291,14.15663,10.78465,1.34192,22.2488,1.21118,31.85432-3.86164,8.84246-4.66977,15.19628-13.11082,19.306-22.21258,8.06474-17.86259,8.2703-38.50255,3.99737-57.62437-7.136-31.94043-24.99184-59.322-41.57925-86.97263-8.75127-14.58857-20.93152-29.8731-26.9668-45.76192-6.16558-16.23231-12.22838-32.58189-16.30281-49.48515-1.67117-6.93446-4.57093-14.70071-4.01022-21.78448.75013-9.47921,6.68451-17.86837,8.72878-27.08675.67565-3.04908.95122-6.68133-1.29156-8.85888-2.6441,4.084-4.08273,8.84414-6.66914,12.96406-3.68588,5.87067-8.38774,6.78066-14.64066,8.00914-8.02686,1.57644-16.35682-.57483-24.30788-1.64054-9.72822-1.30281-19.79865,1.58671-29.67386.637-17.84619-1.7168-36.46759-5.267-54.32538-1.90456-11.547,2.17435-19.72863,8.52373-28.67254,15.4114"/>
        <path class="cls-7" d="M1338.273,316.01193a2.08741,2.08741,0,0,1-1.39076-3.64814,61.849,61.849,0,0,1,19.44076-11.6945,2.08838,2.08838,0,1,1,1.46807,3.91025,57.6834,57.6834,0,0,0-18.12918,10.90538A2.08881,2.08881,0,0,1,1338.273,316.01193Z"/>
        <path class="cls-7" d="M1341.98321,328.68422a2.08721,2.08721,0,0,1-.87935-3.98275,57.816,57.816,0,0,0,14.2727-9.36061,2.08937,2.08937,0,1,1,2.789,3.11184,61.964,61.964,0,0,1-15.30482,10.03819A2.084,2.084,0,0,1,1341.98321,328.68422Z"/>
        <path class="cls-7" d="M1387.96288,356.721a1.90136,1.90136,0,0,1-1.75032-1.15485c-3.48387-8.17184-6.243-16.77494-8.91089-25.09456-2.89609-9.0288-5.89-18.36479-9.78372-27.012l-7.74556-17.203a140.51845,140.51845,0,0,1-6.56906-16.40688c-.89426-2.91851-1.60221-5.91-2.28781-8.80247-.71726-3.02958-1.45968-6.16187-2.40424-9.14545-2.59428-8.19042-8.57275-19.74643-12.85493-26.18761a1.9,1.9,0,0,1,3.169-2.09686c5.13359,7.72337,10.85683,19.39184,13.31137,27.14123.98741,3.11742,1.74567,6.31942,2.47877,9.41592.67162,2.83394,1.3656,5.765,2.22446,8.56686a137.5926,137.5926,0,0,0,6.40138,15.96073l7.74557,17.20249c3.9813,8.84245,7.00873,18.28207,9.93555,27.41079,2.64179,8.23736,5.37393,16.75542,8.78887,24.76553a1.8998,1.8998,0,0,1-1.74846,2.64013Z"/>
        <polygon class="cls-12" points="1300.729 110.443 1413.506 50.265 1464.582 107.141 1464.582 99.985 1413.506 41.984 1301.205 102.882 1300.729 110.443"/>
        <path class="cls-10" d="M1229.81619,171.53914a30.02821,30.02821,0,0,0,3.60552,1.60081c8.44818,2.90745,15.37934,6.5474,24.47424,4.07954,4.43922-1.20477,8.92988-2.737,11.7358-6.60249,3.3243-4.58006-.183-11.27228,8.19511-8.89415,4.83875,1.37269,9.89262,1.763,14.87515,2.45441,8.37755,1.16119,16.24315,4.32179,24.647,3.63289,14.33569-1.174,33.38993-1.743,35.47983-20.55666,1.12394-10.12453-7.84-18.81807-16.27717-22.83994a33.16682,33.16682,0,0,0-8.05125-2.64664c-1.82075-.3467-5.87017.166-7.06279-1.45916a3.93806,3.93806,0,0,1-.52214-2.10837c-1.32244-19.24871-17.50844-21.82037-33.478-24.37729-17.45505-2.79531-34.0829-3.47972-51.76853-4.65887q-22.74807-1.51686-45.43916-3.76361c-7.91445-.78375-15.72289-2.38775-23.63608-3.18175-7.46874-.74976-14.13459.25826-21.49608.82349-13.34785,1.02532-23.24368,10.21231-36.10279,13.36328-2.68777.65879-5.48162.737-8.21244,1.18556-12.12121,1.99361-17.7601,10.05914-23.79083,19.5877-4.89457,7.73295-17.1333,7.20809-24.15054,13.05123-3.72053,3.09778-6.98509,7.33626-10.54443,10.73522-4.375,4.17824-8.7327,11.47285-10.93173,17.08526-1.49453,3.813-2.21832,7.89058-3.68267,11.71445a64.37008,64.37008,0,0,1-3.69807,7.59451c-4.21186,7.76369-7.97544,15.62158-11.92529,23.484-3.62935,7.2241-6.9954,14.66739-10.917,21.737-2.37633,4.28462-5.94982,7.99055-7.3101,12.71287-3.71861,12.90831.51058,30.04289,2.6679,42.932,2.56324,15.321,11.47379,33.415,27.43818,38.3558,9.28954,2.87477,15.26947-.84718,23.7607-3.34386,11.72427-3.44769,22.05993-2.6319,32.69758-10.21424,3.45138-2.46017,7.23362-4.99658,10.06275-8.1796,2.61266-2.94016,3.87984-7.53171,7.17-9.781a11.73049,11.73049,0,0,1,4.05522-1.531c13.046-3.01,27.32831-2.52745,38.77-9.46639a39.08683,39.08683,0,0,0,15.56617-17.56525c2.31083-5.27084,5.69675-9.89253,9.09043-14.50654,1.55036-2.1077,3.93057-4.53645,4.691-7.06454a29.88373,29.88373,0,0,1,4.12068-9.25684,1.02789,1.02789,0,0,1,.42579-.38834c.32692-.11984.66671.11022.95381.30759a13.75088,13.75088,0,0,0,2.39558,1.21887,45.2391,45.2391,0,0,0,15.10572,3.64186c4.7725.28068,9.77691-.34734,13.78775-2.94336,3.0931-2.00131,6.87016-5.77454,7.53491-9.49778.74754-4.191.50544-7.517-2.25046-10.68782a44.3294,44.3294,0,0,0-14.33561-11.30173c-.38219-.191-.80281-.42551-.91845-.8363a1.48683,1.48683,0,0,1,.0835-.8286c1.61072-5.24393,5.25426-9.58238,7.92212-14.37772a82.10421,82.10421,0,0,1,4.3551-7.815c1.72574-2.43578,4.13292-4.56723,7.0635-5.16062,4.10586-.83116,9.33574,2.30057,13.7705,4.53708"/>
        <path class="cls-10" d="M1195.3329,62.013c5.18488-3.68029,10.65231-7.17089,16.78967-8.846,6.13665-1.67515,13.10254-1.31887,18.349,2.27236,6.30944,4.31859,9.01274,12.909,7.10779,20.30356s-7.93052,13.38506-15.07617,16.11631a20.39237,20.39237,0,0,1-8.05447,1.472,35.44184,35.44184,0,0,1-7.48285-1.463c-10.76858-2.83055-28.34311-1.54439-37.30246-6.97993,5.16622-9.15366,17.04141-16.75077,25.66945-22.87522"/>
        <path class="cls-7" d="M1326.12786,122.83568a2.14612,2.14612,0,0,1-.3251-.02509c-8.08743-1.25989-14.81111-1.93515-21.31217-2.58809-7.28819-.73195-14.17117-1.423-22.5483-2.86042-13.34491-2.28927-27.34933-2.74052-40.89265-3.17737-5.33946-.17242-10.86056-.35041-16.25683-.63854-4.55233-.24352-9.02174-.85232-13.344-1.44113-4.71348-.64226-9.5881-1.30636-14.51676-1.482-14.26245-.50656-27.11832-.95084-40.03193-1.24966-8.99007-.20913-18.28475-.42384-27.20029,1.13766-.74708.13059-1.49882.27419-2.25241.41779-4.32969.8249-8.80843,1.67815-13.2974.47217a2.08812,2.08812,0,1,1,1.088-4.032c3.55839.95642,7.37947.22865,11.42505-.54188.77409-.14732,1.54539-.29417,2.31389-.42894,9.32262-1.63214,18.82875-1.41232,28.02-1.199,12.93784.29929,25.80768.744,40.0841,1.25152a149.17845,149.17845,0,0,1,14.93408,1.51735c4.2384.57719,8.62119,1.17437,13.00118,1.4086,5.3525.28581,10.85124.46334,16.16834.63482,13.68584.4415,27.83745.89786,41.4674,3.23593,8.23181,1.41231,15.04493,2.0964,22.25766,2.82091,6.55695.65853,13.33746,1.33936,21.5376,2.61644a2.08767,2.08767,0,0,1-.31951,4.151Z"/>
        <path class="cls-7" d="M1334.4314,152.33078c-.50488,0-.99579-.00883-1.46714-.01673-.91475-.01626-1.84254-.026-2.77871-.03625-8.6659-.092-18.48875-.19611-26.30231-5.42667-4.94542-3.30935-7.86666-8.51434-7.62446-13.58363.30926-6.46348,5.56488-11.41844,10.637-13.46187,4.896-1.97325,10.97885-1.84916,15.73611-1.52106a47.46111,47.46111,0,0,1,6.99662.97222h0a36.66763,36.66763,0,0,1,11.32631,4.53531c2.707,1.64375,5.43354,3.55984,7.04693,6.4198,1.524,2.70473,1.605,6.31058.24965,11.02528-.86445,3.00728-2.43778,7.25771-6.11262,9.43312A14.81845,14.81845,0,0,1,1334.4314,152.33078Zm-16.74774-30.06207a25.354,25.354,0,0,0-9.22108,1.4086c-3.83413,1.54523-7.80239,5.17106-8.02316,9.7891-.1714,3.56263,2.09592,7.45522,5.77448,9.9169,6.77678,4.53624,15.54142,4.62965,24.01636,4.71935.94642.01022,1.88353.02,2.80759.03625,2.85045.05065,5.169.00464,6.96589-1.05913,1.84626-1.09351,3.14945-3.25033,4.22536-6.99374,1.01721-3.5366,1.05913-6.16977.12575-7.827-1.14111-2.02344-3.35439-3.551-5.57606-4.90059a32.53343,32.53343,0,0,0-10.052-4.02411h0a43.22705,43.22705,0,0,0-6.38368-.88392C1320.88994,122.35,1319.30357,122.26871,1317.68366,122.26871Z"/>
        <path class="cls-7" d="M1308.72247,120.18532c-.69212,0-1.3861-.04833-2.0689-.11479a67.04558,67.04558,0,0,1-19.9624-5.11809,12.7075,12.7075,0,0,1-4.285-2.668c-2.55795-2.64107-2.79083-6.30315-2.80946-9.82767-.01117-2.188-.0326-6.25947,2.78431-8.66584,2.49181-2.12987,5.78472-1.911,8.67242-1.54152a27.61746,27.61746,0,0,1,6.45262,1.73949,21.69551,21.69551,0,0,0,5.88532,1.52014,15.63224,15.63224,0,0,1,13.5871,17.22015,8.67461,8.67461,0,0,1-3.58354,6.26411A8.41488,8.41488,0,0,1,1308.72247,120.18532Zm-20.77-24.002a4.32992,4.32992,0,0,0-2.84951.77889c-1.23985,1.05959-1.33207,3.38046-1.32182,5.47268.0149,2.78746.1509,5.41691,1.63388,6.94773a9.0582,9.0582,0,0,0,2.92869,1.73345,62.853,62.853,0,0,0,18.7151,4.79881c1.53048.14825,3.087.19891,4.07446-.43406a4.73516,4.73516,0,0,0,1.70467-3.35536,11.46729,11.46729,0,0,0-9.82843-12.459h0a25.412,25.412,0,0,1-6.95-1.75993,23.834,23.834,0,0,0-5.53973-1.51549A20.6406,20.6406,0,0,0,1287.95244,96.18334Z"/>
        <path class="cls-7" d="M1121.81921,173.95612a2.08767,2.08767,0,0,1-1.13738-3.84193c11.02916-7.10807,29.23752-12.202,34.55555-13.59386,1.795-.4703,3.604-.9606,5.41956-1.45368,5.02088-1.36166,10.21222-2.77026,15.30948-3.7857,7.71389-1.53733,15.39891,1.33843,21.99684,4.15424,4.70975,2.009,9.37758,4.28575,13.89171,6.48718,4.23467,2.06527,8.61467,4.20071,12.98069,6.09077a2.08839,2.08839,0,1,1-1.66556,3.83031c-4.45265-1.9277-8.87549-4.084-13.15208-6.16977-4.46849-2.17866-9.08788-4.43168-13.69982-6.39981-6.02319-2.5695-12.99838-5.20081-19.532-3.89863-4.95754.988-10.07808,2.3771-15.031,3.72063-1.82857.49587-3.64875.98988-5.45589,1.463-10.64631,2.787-24.99726,7.682-33.34644,13.06313A2.0892,2.0892,0,0,1,1121.81921,173.95612Z"/>
        <path class="cls-7" d="M1265.61374,149.72689a2.09392,2.09392,0,0,1-1.83975-1.08933c-3.496-6.40492-7.80611-8.26338-13.26387-10.61678a54.36889,54.36889,0,0,1-9.059-4.6422c-14.30437-9.48982-32.76051-17.71417-50.63632-22.5641a2.088,2.088,0,1,1,1.09733-4.02922c18.29219,4.96286,37.19267,13.38844,51.85661,23.1162a50.96922,50.96922,0,0,0,8.40228,4.28668c5.70367,2.45982,11.09157,4.783,15.27874,12.452a2.09018,2.09018,0,0,1-1.836,3.08674Z"/>
        <path class="cls-7" d="M1182.43674,230.598a2.08518,2.08518,0,0,1-.78061-.15151c-1.49788-.60136-3.07774-1.35469-4.74981-2.15217a50.632,50.632,0,0,0-7.93186-3.27589,104.78619,104.78619,0,0,1-13.929-4.97216c-1.98693-.8235-4.04186-1.67535-6.33059-2.55137a27.33416,27.33416,0,0,0-5.25283-1.62145c-4.40421-.70407-9.33193-.01022-14.0985.66085-.80949.11386-1.6078.22632-2.39214.33-7.66545,1.01543-15.73611,2.31947-22.7495,6.05916a2.08887,2.08887,0,1,1-1.97295-3.68253c7.63191-4.06918,16.12642-5.4499,24.17193-6.51553.77315-.10224,1.56029-.21331,2.3586-.32531,4.83736-.6813,10.32213-1.45182,15.3458-.64923a30.46279,30.46279,0,0,1,6.0884,1.84591c2.34183.896,4.42377,1.759,6.43678,2.5932a100.03744,100.03744,0,0,0,13.40639,4.79556,53.301,53.301,0,0,1,8.65379,3.54172c1.61059.7682,3.13269,1.49365,4.50854,2.04621a2.08728,2.08728,0,0,1-.78247,4.02458Z"/>
        <path class="cls-7" d="M1206.69716,203.62782a2.08581,2.08581,0,0,1-1.23333-.40292c-3.73445-2.72472-7.81915-4.37777-12.14232-6.12748q-1.08848-.43988-2.18441-.89a62.79727,62.79727,0,0,1-6.42839-3.23825,49.99138,49.99138,0,0,0-7.23137-3.51662,30.39744,30.39744,0,0,1-3.68228-1.69488c-.81042-.41919-1.57613-.81514-2.36419-1.15439-8.73949-3.76107-18.22792-6.03732-27.40337-8.23922q-2.48574-.596-4.965-1.2004c-1.02094-.25049-2.02325-.51167-3.01532-.77006-4.1555-1.08236-8.04551-2.09873-12.38265-2.02762-6.71251.1199-13.249,2.221-18.19439,4.03851-2.27942.83745-4.59051,1.759-6.82522,2.6499a123.9745,123.9745,0,0,1-15.73332,5.462,2.088,2.088,0,1,1-1.01535-4.05059,120.72735,120.72735,0,0,0,15.19583-5.28911c2.26079-.90111,4.5989-1.8329,6.93235-2.69033,5.25375-1.931,12.22616-4.164,19.56558-4.29551,4.85786-.08458,9.073,1.00568,13.51444,2.16286.97251.25328,1.95619.50981,2.95757.75565q2.46759.60577,4.94356,1.19529c9.34777,2.24279,19.01319,4.5618,28.08243,8.46462.92407.39781,1.79224.84674,2.63247,1.2808a26.70433,26.70433,0,0,0,3.17647,1.47459,53.96576,53.96576,0,0,1,7.84058,3.79267,58.67915,58.67915,0,0,0,5.998,3.03144c.72285.29836,1.442.58928,2.15832.87927,4.36975,1.76831,8.8876,3.597,13.04031,6.62661a2.0876,2.0876,0,0,1-1.23706,3.77315Z"/>
        <path class="cls-7" d="M1254.10857,164.36453a22.93076,22.93076,0,0,1-4.94263-.54187c-8.49264-1.88217-13.3505-4.67706-18.56606-10.68232-3.98875-4.59294-4.19089-9.62551-.61852-15.38586,2.6632-4.29179,7.06555-6.92635,11.534-6.839a18.68924,18.68924,0,0,1,4.46382.9053c.66511.19054,1.29388.37085,1.78479.475a2.08766,2.08766,0,1,1-.86817,4.08406c-.63623-.13431-1.333-.33414-2.0717-.54606a16.32471,16.32471,0,0,0-3.37768-.7431c-.03633-.00093-.07265-.00093-.10992-.00093-2.90726,0-5.957,1.898-7.79679,4.86248-2.62036,4.22534-2.55608,7.254.22263,10.45366,4.60449,5.30166,8.71993,7.65831,16.31086,9.34064,5.47825,1.21155,11.18007-.11758,13.56475-3.16343,1.74194-2.22513,1.68045-5.24077-.18258-8.9628a2.09181,2.09181,0,0,1,3.7447-1.86544c3.469,6.9324,1.32368,11.37012-.26362,13.39867C1264.345,162.46378,1259.44523,164.36453,1254.10857,164.36453Z"/>
        <path class="cls-7" d="M1223.79236,143.69607a2.08939,2.08939,0,0,1-1.77082-3.19735,49.98712,49.98712,0,0,0,4.3772-8.77459,2.09138,2.09138,0,0,1,3.91051,1.48435,54.17143,54.17143,0,0,1-4.74235,9.50887A2.09327,2.09327,0,0,1,1223.79236,143.69607Z"/>
        <path class="cls-10" d="M1028.18741,232.23866c1.35443,11.94962,1.24075,24.03831.83935,36.03855-.67048,20.05809,3.59917,36.78256-8.77888,53.19685-13.81735,18.32272-26.48441,37.33368-43.5259,52.6246-16.53343,14.8353-33.912,30.0301-49.107,46.21947-18.75048,17.64856-38.77006,32.13588-60.27257,46.1996-22.44021,14.677-44.92216,29.29313-67.16778,44.26236-15.69592,10.56157-40.92221,31.41238-60.9572,29.97819-13.35686-.95677-17.55975-9.94766-25.7099-18.04394-8.62157-8.5641-19.70484-13.8702-29.04059-21.84859-19.29254-16.48863-36.40785-41.35874-30.17417-67.91294,3.7424-15.93817,11.67158-30.53635,19.60531-44.86283,10.24773-18.5015,20.75493-35.67647,41.65309-42.25527,31.31865-9.85987,60.956-24.39589,91.94575-33.9975,36.83175-11.41259,73.19785-24.19464,108.93777-38.66723,20.42353-8.26931,41.11041-20.29583,59.148-32.92538,14.24447-9.97264,48.9356-40.37955,52.60478-8.00594"/>
        <path class="cls-7" d="M1175.12806,129.3698a2.08963,2.08963,0,0,1-2.08753-1.97882,15.754,15.754,0,0,1,8.79817-14.71758,2.08878,2.08878,0,1,1,1.7941,3.77269,11.48337,11.48337,0,0,0-6.41349,10.72739,2.08877,2.08877,0,0,1-1.9804,2.19353C1175.20165,129.36887,1175.16439,129.3698,1175.12806,129.3698Z"/>
        <path class="cls-7" d="M1182.43767,128.52771a2.09179,2.09179,0,0,1-2.03723-2.563l.34094-1.44857a2.07621,2.07621,0,0,1,.70143-1.12883l4.45917-10.71485a2.09133,2.09133,0,0,1,3.86393,1.60147l-5.39628,12.96646A2.09306,2.09306,0,0,1,1182.43767,128.52771Z"/>
        <path class="cls-7" d="M1187.07662,135.86349a2.089,2.089,0,0,1-1.79876-3.15041,38.35926,38.35926,0,0,0,5.359-19.84449,2.08917,2.08917,0,0,1,2.07635-2.10337h.01584a2.08949,2.08949,0,0,1,2.09218,2.07177,42.51343,42.51343,0,0,1-5.94214,22.00084A2.09155,2.09155,0,0,1,1187.07662,135.86349Z"/>
        <path class="cls-7" d="M1289.84715,140.69949a2.09074,2.09074,0,0,1-2.0866-1.95745,24.48336,24.48336,0,0,1,3.12151-13.48371,2.091,2.091,0,0,1,3.63851,2.06154,20.262,20.262,0,0,0-2.5831,11.16192,2.0901,2.0901,0,0,1-1.95805,2.214C1289.93471,140.69809,1289.89093,140.69949,1289.84715,140.69949Z"/>
        <path class="cls-7" d="M1278.95306,132.49837a2.09021,2.09021,0,0,1-1.91893-2.918,27.776,27.776,0,0,1,6.32873-9.03066,2.08994,2.08994,0,0,1,2.88025,3.02912,23.563,23.563,0,0,0-5.36927,7.66156A2.0925,2.0925,0,0,1,1278.95306,132.49837Z"/>
        <path class="cls-7" d="M1235.69155,121.27651c-.02142,0-.04192,0-.06334-.00093a2.08941,2.08941,0,0,1-2.02884-2.14892l.19468-6.52854a2.09219,2.09219,0,0,1,4.18251.12454l-.19468,6.52855A2.08975,2.08975,0,0,1,1235.69155,121.27651Z"/>
        <path class="cls-7" d="M1275.67505,107.33318h-.02329a2.09041,2.09041,0,0,1-2.06983-2.10988l.1006-9.37782a2.08979,2.08979,0,0,1,2.09126-2.06526h.02329a2.0904,2.0904,0,0,1,2.06983,2.10988l-.10061,9.37781A2.08979,2.08979,0,0,1,1275.67505,107.33318Z"/>
        <path class="cls-7" d="M1216.71749,103.14781a2.09055,2.09055,0,0,1-2.081-1.89936,33.58979,33.58979,0,0,1,1.8444-14.35,2.09153,2.09153,0,0,1,3.93659,1.41464,29.41593,29.41593,0,0,0-1.61339,12.558,2.08935,2.08935,0,0,1-1.8947,2.26789C1216.84511,103.14455,1216.78083,103.14781,1216.71749,103.14781Z"/>
        <path class="cls-7" d="M1222.63262,97.68954c-.06986,0-.14066-.00372-.21146-.01069a2.08972,2.08972,0,0,1-1.88259-2.04575l-.02236-1.63446a2.10033,2.10033,0,0,1,.42384-1.29521,16.41943,16.41943,0,0,1,.25151-5.28631,2.093,2.093,0,0,1,4.13594.30765,30.34975,30.34975,0,0,1-.13507,5.18826,2.07267,2.07267,0,0,1-.12855,1.0001q-.15649,1.07283-.38938,2.13451A2.09175,2.09175,0,0,1,1222.63262,97.68954Z"/>
        <path class="cls-7" d="M1227.81278,107.65756a2.09327,2.09327,0,0,1-2.05492-2.49189,44.68361,44.68361,0,0,0,.3223-15.57036,2.09248,2.09248,0,0,1,4.13594-.63854,48.87363,48.87363,0,0,1-.35212,17.0166A2.09178,2.09178,0,0,1,1227.81278,107.65756Z"/>
        <path class="cls-7" d="M1117.03215,125.43074a2.08722,2.08722,0,0,1-.6325-4.07755c17.043-5.403,34.47823-10.36769,51.81935-14.75568a2.08776,2.08776,0,1,1,1.02839,4.04688c-17.261,4.36847-34.6161,9.31-51.58088,14.68783A2.08951,2.08951,0,0,1,1117.03215,125.43074Z"/>
        <path class="cls-7" d="M1086.37966,301.83669a2.08707,2.08707,0,0,1-1.4541-3.58819c11.88429-11.46724,19.723-28.607,23.96327-52.39891l.191-1.08469a51.54349,51.54349,0,0,1,2.50764-10.14508,2.09176,2.09176,0,0,1,3.89374,1.5299,47.73388,47.73388,0,0,0-2.27942,9.336l-.19375,1.09444c-4.39863,24.68792-12.63324,42.57032-25.17425,54.6696A2.08644,2.08644,0,0,1,1086.37966,301.83669Z"/>
        <path class="cls-7" d="M1199.14535,220.32887a25.18028,25.18028,0,0,1-8.67521-2.0806,39.96971,39.96971,0,0,1-9.276-5.11855,6.51061,6.51061,0,0,1-3.30129-6.50113c.21238-4.17236,1.18023-7.42594,2.9585-9.94711,2.42194-3.42971,6.50291-5.257,10.14608-4.55669a2.088,2.088,0,1,1-.79366,4.09986c-2.0335-.39409-4.46476.78586-5.931,2.86089-1.30972,1.8566-2.02978,4.39357-2.20118,7.755a4.22981,4.22981,0,0,0,.068,1.31612,4.30005,4.30005,0,0,0,1.54725,1.61912,35.78661,35.78661,0,0,0,8.30354,4.58225c6.42188,2.497,8.30448,1.75622,8.72925,1.46855,3.14852-2.13079,5.019-9.88437,3.96174-13.7356a2.09172,2.09172,0,0,1,4.03533-1.10327c1.50906,5.49359-.80111,15.01454-5.64779,18.29461A6.82438,6.82438,0,0,1,1199.14535,220.32887Z"/>
        <path class="cls-7" d="M1175.15134,202.67373c-.04378,0-.08756-.00093-.13227-.00372a2.08968,2.08968,0,0,1-1.958-2.21352l.3577-5.7292a2.09257,2.09257,0,0,1,4.17692.26211l-.3577,5.72641A2.0905,2.0905,0,0,1,1175.15134,202.67373Z"/>
        <path class="cls-7" d="M1130.3398,203.91363a2.09278,2.09278,0,0,1-1.9655-1.37282,50.87488,50.87488,0,0,1-2.97806-20.42772,2.09234,2.09234,0,0,1,4.17692.25467,46.68321,46.68321,0,0,0,2.73214,18.74122,2.09207,2.09207,0,0,1-1.9655,2.80465Z"/>
        <path class="cls-7" d="M1135.0924,193.45532a2.09242,2.09242,0,0,1-1.92824-1.27523,34.29723,34.29723,0,0,1-2.36885-8.51573,2.09255,2.09255,0,0,1,4.14339-.58928,30.0803,30.0803,0,0,0,2.08007,7.47938,2.09057,2.09057,0,0,1-1.92637,2.90086Z"/>
        <path class="cls-7" d="M1141.07646,205.29435a2.08919,2.08919,0,0,1-2.0866-1.96768,98.54613,98.54613,0,0,0-4.00552-22.66633,2.09159,2.09159,0,0,1,4.00739-1.19994,102.69525,102.69525,0,0,1,4.17505,23.62647,2.08841,2.08841,0,0,1-1.96829,2.20422C1141.1575,205.29342,1141.11651,205.29435,1141.07646,205.29435Z"/>
        <path class="cls-7" d="M1169.61813,206.73827a2.09,2.09,0,0,1-2.08846-1.99788c-.16487-3.83078-.13693-7.71268.082-11.55555a2.07612,2.07612,0,0,1,.00279-.942l.11458-.48657a2.09269,2.09269,0,0,1,4.12475.61577,111.81328,111.81328,0,0,0-.14345,12.189,2.08936,2.08936,0,0,1-2.0009,2.17541C1169.67961,206.7378,1169.64887,206.73827,1169.61813,206.73827Z"/>
        <path class="cls-10" d="M852.56669,254.8756a39.71615,39.71615,0,0,1,10.63114,5.46183c8.032,5.99627,3.447,17.53448.83492,25.53015-3.15218,9.64583-7.51433,18.82448-10.98246,28.35048-12.64589,34.7306-9.90928,76.19829-16.50649,112.37845-3.138,17.20638-6.59074,34.61078-14.36391,50.2862-17.88856,36.07252-39.34806,32.65047-73.8221,33.60722-11.25415.31209-22.60653.61778-33.68083-1.40661-29.14722-5.32791-49.11092-22.51377-62.52045-48.88021-6.58176-12.94164-2.02694-28.4953,2.62359-42.24631,11.19505-33.101,21.22507-66.58323,32.564-99.63676,5.22341-15.22556,8.98187-30.91765,15.1879-45.80869a118.12969,118.12969,0,0,1,11.77822-21.498c3.10466-4.53518,9.09039-5.4144,14.05309-6.50062,7.46937-1.63476,15.65484-1.62835,23.27124-2.36147a125.33487,125.33487,0,0,1,13.33825-.80808c3.88564.041,7.75776.44409,11.62282.84653,11.94967,1.24451,23.96555,1.74754,35.90366,3.11765,5.98385.687,12.22524,1.34512,18.04532,2.951,7.50468,2.07054,14.694,4.02829,22.0221,6.61724"/>
        <path class="cls-7" d="M705.46008,352.52958a2.08744,2.08744,0,0,1-1.53235-3.50825c15.13808-16.26328,28.80623-27.11847,43.01559-34.16147,16.47294-8.16672,34.6459-11.66615,52.219-15.04986l31.79546-6.12144c10.30257-1.98394,20.95726-4.03991,31.77031-3.62955a2.08765,2.08765,0,1,1-.15649,4.17236c-10.338-.38294-20.74954,1.61726-30.82017,3.557L799.955,303.90986c-17.29827,3.33073-35.18619,6.77532-51.15052,14.68923-13.74174,6.81156-27.028,17.38141-41.8102,33.2636A2.09031,2.09031,0,0,1,705.46008,352.52958Z"/>
      </g>
      <g class="cls-6">
        <path class="cls-7" d="M1503.68055,200.66283a2.093,2.093,0,0,1-1.76522-.96385c-5.92352-9.25047-11.94391-18.12359-17.76682-26.70439-5.84154-8.60914-11.88243-17.51107-17.83948-26.81453a2.09123,2.09123,0,0,1,3.52672-2.24837c5.92725,9.257,11.95136,18.13568,17.778,26.72159,5.83782,8.60357,11.87405,17.49992,17.8283,26.79733a2.08929,2.08929,0,0,1-1.7615,3.21222Z"/>
        <path class="cls-7" d="M1448.26741,172.92349a11.96668,11.96668,0,0,1-3.40469-.46891c-4.65386-1.37793-6.95657-5.39042-8.59511-9.13337-.26734-.61066-.54493-1.23432-.82625-1.86822-2.21887-4.99725-4.734-10.66047-5.40932-16.08574a15.88045,15.88045,0,0,1,3.98969-12.78987,13.44339,13.44339,0,0,1,13.031-3.88562c6.05951,1.62331,9.61511,7.3567,12.47207,12.60305l2.63433,4.843a35.53967,35.53967,0,0,1,3.74,8.67886,2.11476,2.11476,0,0,1,.055.47774c0,5.53263,0,10.75853-7.1969,14.59814A23.69781,23.69781,0,0,1,1448.26741,172.92349Zm-4.35484-40.46322a9.60279,9.60279,0,0,0-6.84665,2.98171,11.67477,11.67477,0,0,0-2.88118,9.41081c.599,4.81229,2.98086,10.17622,5.08236,14.90858.28411.6404.5645,1.27011.83464,1.88727,1.31716,3.00821,2.95011,5.91417,5.95146,6.80274,3.79313,1.126,8.76743-1.19343,10.73107-2.2414,4.71348-2.51466,4.978-5.11344,4.98548-10.66605a32.95354,32.95354,0,0,0-3.28732-7.41246l-2.63526-4.84389c-2.55329-4.68961-5.4205-9.36852-9.87874-10.56288A7.9544,7.9544,0,0,0,1443.91257,132.46027Z"/>
        <path class="cls-7" d="M1456.52158,182.07777a2.08726,2.08726,0,0,1-1.30412-3.72064,42.81353,42.81353,0,0,0,9.15029-10.00892,2.0911,2.0911,0,0,1,3.49878,2.29113,46.97072,46.97072,0,0,1-10.04269,10.98392A2.08351,2.08351,0,0,1,1456.52158,182.07777Z"/>
        <path class="cls-7" d="M1452.45738,190.63719a2.08747,2.08747,0,0,1-1.58172-3.45482l.58592-.678a2.08931,2.08931,0,0,1,1.07777-.65945,192.92271,192.92271,0,0,0,16.17858-14.132,2.09006,2.09006,0,1,1,2.92869,2.98265,197.21408,197.21408,0,0,1-17.91679,15.51041A2.08765,2.08765,0,0,1,1452.45738,190.63719Z"/>
        <path class="cls-7" d="M1477.898,232.52992a2.09054,2.09054,0,0,1-1.91613-2.92548,33.9908,33.9908,0,0,1,23.25625-19.15808,2.088,2.088,0,1,1,.9222,4.0729,29.73465,29.73465,0,0,0-20.34433,16.76007A2.0942,2.0942,0,0,1,1477.898,232.52992Z"/>
        <path class="cls-7" d="M1475.16217,239.57571a2.08752,2.08752,0,0,1-1.319-3.70948c8.52058-6.892,17.302-13.68773,26.1011-20.19815a2.08924,2.08924,0,1,1,2.49274,3.3535c-8.75067,6.4751-17.48457,13.23369-25.95765,20.08847A2.09146,2.09146,0,0,1,1475.16217,239.57571Z"/>
        <path class="cls-7" d="M1484.77821,239.37216a2.08756,2.08756,0,0,1-1.21376-3.78988l10.46745-7.42315c2.56354-1.818,5.21463-3.69834,7.63192-5.72549a28.03532,28.03532,0,0,0,5.58724-5.9639,2.09058,2.09058,0,0,1,3.49877,2.28927,31.9594,31.9594,0,0,1-6.39393,6.87058c-2.54676,2.13637-5.26772,4.0664-7.90019,5.93323l-10.46745,7.42315A2.08635,2.08635,0,0,1,1484.77821,239.37216Z"/>
        <path class="cls-7" d="M1480.047,248.10493a2.08723,2.08723,0,0,1-.91382-3.96695,130.16334,130.16334,0,0,0,15.69606-8.98232,2.08912,2.08912,0,1,1,2.33066,3.46782,134.23592,134.23592,0,0,1-16.20281,9.27232A2.08587,2.08587,0,0,1,1480.047,248.10493Z"/>
        <path class="cls-7" d="M1495.52326,246.635a2.08771,2.08771,0,0,1-1.17837-3.81451,49.16059,49.16059,0,0,0,14.55868-15.45139,2.09128,2.09128,0,0,1,3.59938,2.13033,53.38567,53.38567,0,0,1-15.80505,16.774A2.08587,2.08587,0,0,1,1495.52326,246.635Z"/>
        <path class="cls-7" d="M1479.45553,367.37635a2.08732,2.08732,0,0,1-1.33859-3.69275,32.96854,32.96854,0,0,1,22.31821-7.46591c1.0582.04926,2.12945.14732,3.16622.24212,3.4401.31556,6.69109.61345,9.26767-.79608,6.30171-3.44645,9.01242-12.91721,10.99189-19.83241l.504-1.74878c3.17275-10.86449,7.61609-11.36593,14.02958-10.89841,2.93241.2161,5.958.43684,9.56854-1.02846,2.84951-1.15671,3.68229-5.39134,3.90771-7.15825.096-.74915.16674-1.50945.23847-2.27068.28411-3.02075.57847-6.14421,2.258-8.95816a2.09134,2.09134,0,0,1,3.59565,2.13684c-1.19793,2.00485-1.43546,4.53391-1.68791,7.2117-.07545.80723-.15183,1.61354-.25337,2.40823-.6828,5.35045-2.98551,9.07853-6.48242,10.49782-4.51786,1.83383-8.365,1.55127-11.45114,1.32541-4.9743-.36342-7.24161-.52979-9.70547,7.90136l-.49743,1.72834c-2.18255,7.62252-5.17085,18.06225-13.00491,22.34707-3.7,2.022-7.74649,1.65072-11.66166,1.29242-1.03585-.09481-2.01394-.1845-2.979-.22958a28.73322,28.73322,0,0,0-19.44728,6.50577A2.08554,2.08554,0,0,1,1479.45553,367.37635Z"/>
        <path class="cls-7" d="M1443.784,384.51657a2.08746,2.08746,0,0,1-.86258-3.99065,89.84545,89.84545,0,0,0,23.24041-15.16743,2.08987,2.08987,0,1,1,2.80387,3.09976,94.04031,94.04031,0,0,1-24.321,15.87289A2.092,2.092,0,0,1,1443.784,384.51657Z"/>
        <path class="cls-12" d="M1432.06338,306.74933c.01349.0468.0276.09358.04108.13971,1.45659,5.01388-2.63642,9.80218-5.71988,13.29729a38.71879,38.71879,0,0,1-4.02888,4.11287c-3.20544,2.6947-7.19191,4.84341-10.75054,7.05109-3.42646,2.12436-6.7931,4.43522-10.54,5.9104q-1.87959.74016-3.75911,1.48033a67.79347,67.79347,0,0,1-11.39483,3.622c-4.032.785-6.3724-9.37155-7.31586-12.07843-.24469-.70427-2.29021-8.02131-2.1676-7.98413a5.065,5.065,0,0,0,4.27357-.23519,87.33164,87.33164,0,0,0,8.33129-3.97253,176.64441,176.64441,0,0,0,16.95282-9.28825,71.02926,71.02926,0,0,0,8.00108-5.93539c2.00773-1.74051,5.4784-4.26539,6.49964-6.782a6.0936,6.0936,0,0,0,.10913-4.23077c-.10208-.29286,2.6474.637,3.01149.92024a11.213,11.213,0,0,1,2.1708,2.555c2.13169,3.09842,5.18363,7.77267,6.28577,11.41772"/>
        <path class="cls-7" d="M1507.48487,305.44673a2.0886,2.0886,0,0,1-.8393-.17614c-8.65006-3.78663-12.82978-11.4296-16.87163-18.82115-.59431-1.087-1.18955-2.17541-1.79876-3.25172a269.01893,269.01893,0,0,1-14.27829-28.00657,104.13654,104.13654,0,0,0-5.25189-10.1818c-2.83833-5.04187-5.77354-10.25569-7.318-15.88962a2.09238,2.09238,0,0,1,4.0372-1.10142c1.40752,5.13854,4.08936,9.9025,6.92862,14.94623a106.68771,106.68771,0,0,1,5.45869,10.60284,265.77935,265.77935,0,0,0,14.0659,27.57622c.62039,1.094,1.225,2.20051,1.8295,3.3061,3.876,7.08808,7.53783,13.78347,14.87912,16.99708a2.08729,2.08729,0,0,1-.84116,4Z"/>
      </g>
    </g>
    <g>
      <g>
        <path class="cls-10" d="M71.6635,221.41264c0-26.7839,14.42174-48.02994,46.22745-48.02994,31.93426,0,44.68207,21.246,44.68207,48.02994,0,26.52634-12.74781,47.77284-44.68207,47.77284C86.08524,269.18548,71.6635,247.939,71.6635,221.41264Zm66.18613,0c0-21.63262-6.56719-42.10689-20.08723-42.10689-13.521,0-21.37645,20.47427-21.37645,42.10689,0,21.37551,7.85548,41.84932,21.37645,41.84932C131.28244,263.262,137.84963,242.78815,137.84963,221.41264Z"/>
        <path class="cls-10" d="M239.83675,235.1907c0,20.60329-13.26387,32.32084-33.22255,32.32084a20.63981,20.63981,0,0,1-11.20242-2.96176c-2.18907-1.02979-4.24958-1.41637-7.726-.12855l-9.40087,2.70373c-2.31761.64415-4.89233.51513-4.89233-2.70373V194.75775c0-6.69574-2.96222-8.37014-5.15128-9.14237a3.81176,3.81176,0,0,1-2.44617-3.60544,3.5017,3.5017,0,0,1,2.7042-3.60543l23.95023-3.47689c1.80341-.25756,3.6059,0,3.6059,3.09031v29.10151c1.80248-2.83274,6.43864-5.40838,13.39241-5.40838C231.46707,201.71106,239.83675,216.39083,239.83675,235.1907Zm-23.69313-.64367c0-14.16465-2.4471-27.42759-9.40087-27.42759-6.30916,0-10.68729,13.26294-10.68729,27.42759v1.41637c0,16.99738,4.37813,26.13976,10.43019,26.13976C212.15114,262.10316,216.14362,249.35535,216.14362,234.547Z"/>
        <path class="cls-10" d="M295.2089,223.47315a9.39712,9.39712,0,0,1-9.39994-6.95377c-.64367-1.931,0-2.57518-1.02932-2.57518-2.18907,0-8.24206,4.6357-8.24206,13.2634v27.041c0,3.21932,2.57564,4.89325,4.76471,5.7945a3.9509,3.9509,0,0,1,2.83274,3.60543,3.76651,3.76651,0,0,1-3.73352,3.863H250.0117a3.76611,3.76611,0,0,1-1.1588-7.33942c2.31761-1.03026,5.0218-2.70419,5.0218-5.92351V222.958c0-6.69574-2.70419-7.855-5.15035-9.14283a3.81063,3.81063,0,0,1-2.4471-3.605,3.7481,3.7481,0,0,1,2.7042-3.6059l23.95116-3.47643c1.80248-.258,3.605,0,3.605,3.09031v5.53694c1.932-5.15082,9.91506-8.62725,14.67977-8.62725C307.69961,203.12789,309.11645,223.47315,295.2089,223.47315Z"/>
        <path class="cls-10" d="M347.1037,263.64854a3.7665,3.7665,0,0,1-3.73352,3.863h-30.3898a3.76612,3.76612,0,0,1-1.15881-7.33942c2.31761-.90171,5.02181-2.70419,5.02181-5.92351V222.958c0-6.69574-2.7042-7.98356-5.15036-9.14283a3.94217,3.94217,0,0,1-2.44709-3.605,3.63524,3.63524,0,0,1,2.70419-3.6059l23.95116-3.47643c1.80249-.258,3.605,0,3.605,3.09031v48.03041c0,3.21932,2.57564,5.15035,4.76471,5.7945A3.82793,3.82793,0,0,1,347.1037,263.64854Zm-31.1611-79.96466c0-4.89326,3.605-10.17263,12.48978-10.17263s12.74874,5.27937,12.74874,10.17263c0,4.89279-3.86393,10.30118-12.74874,10.30118S315.9426,188.57667,315.9426,183.68388Z"/>
        <path class="cls-10" d="M412.51854,203.12789c.12948-2.18906-2.96129-.64367-5.794,3.47643,5.66549,4.63569,8.36968,12.10412,8.36968,21.50406,0,15.96713-7.85455,26.39732-29.10152,26.39732a45.78625,45.78625,0,0,1-17.25448-2.96129,2.17464,2.17464,0,0,0-2.06052,2.96129c1.80249,3.60591,16.86884,4.76471,24.46629,5.53741,15.58055,1.54492,34.509,2.18906,34.509,16.48225,0,13.77807-15.452,19.315-38.63,19.315-17.25542,0-39.27461-3.47688-39.27461-15.70956,0-6.30963,6.43864-9.39994,13.5219-10.81677-3.86393-2.06-5.7959-5.02181-5.7959-9.39994,0-5.40839,2.70513-9.6575,8.49916-11.589-5.15036-4.63523-8.11165-11.589-8.11165-20.21671,0-16.09568,10.17217-26.52587,30.13084-26.52587,9.01336,0,13.39149.90171,16.99739,2.70419a13.98589,13.98589,0,0,1,13.64952-7.726c12.36123,1.15881,13.39148,15.83858,3.99248,15.83858C414.7076,212.39928,412.26144,207.377,412.51854,203.12789Zm-23.04945,72.75333c-2.44617-.2571-5.27891-.64368-9.14191-.90124-8.49916-.38612-10.43019,5.02227-8.88481,8.11211,3.09077,6.18108,13.39149,5.795,15.452,5.795,10.17217,0,17.89817-3.21932,17.89817-8.11258C404.79254,276.91148,398.35482,276.91148,389.46909,275.88122Zm2.83367-47.77284c0-13.00537-2.83367-21.50406-6.43864-21.50406-4.63523,0-7.21088,8.49869-7.21088,21.50406,0,12.87729,2.57565,21.37552,7.21088,21.37552C389.34054,249.4839,392.30276,240.98567,392.30276,228.10838Z"/>
        <path class="cls-10" d="M427.58675,249.35535c0-19.315,27.42758-20.21671,35.5411-20.73184v-2.06005c0-10.30118.25709-19.31547-6.5672-19.31547-5.02274,0-7.4689,4.50715-7.4689,8.24113a10.038,10.038,0,0,1-2.18906,6.82523c-6.95378,9.14237-19.44449,1.1588-15.71-8.11258s15.71-11.97558,25.368-11.97558c16.48226,0,29.22914,5.795,29.22914,25.23851v22.14821c0,6.69574,2.57657,7.98357,5.15128,9.14237a3.9434,3.9434,0,0,1,2.44617,3.60544c0,2.06051-1.41591,3.60544-3.86207,3.73445l-22.79235,1.67394c-1.80342.129-3.605,0-3.605-3.09031v-4.37813c-2.83368,4.24911-6.43865,7.46844-14.68071,7.46844C438.91959,267.76911,427.58675,263.00486,427.58675,249.35535Zm35.5411-4.12057V233.77433c-7.34036,0-11.58994,5.92352-11.58994,15.70957C451.53791,268.02667,463.12785,258.3687,463.12785,245.23478Z"/>
        <path class="cls-10" d="M571.80791,262.10316c0,2.06051-1.4159,3.6059-3.86207,3.73445l-22.6638,1.67393c-1.80249.12855-3.605,0-3.605-3.09031v-3.73445a17.109,17.109,0,0,1-14.2932,6.82476c-23.82261,0-29.48809-14.55076-29.48809-32.96451,0-18.28475,5.66548-32.836,29.48809-32.836,5.02181,0,10.81678,1.803,14.2932,6.05206V194.75775c0-6.69574-2.7042-7.855-5.15129-9.14237a3.81176,3.81176,0,0,1-2.44616-3.60544,3.63289,3.63289,0,0,1,2.70419-3.60543l23.82168-3.47689c1.80342-.25756,3.6059,0,3.6059,3.09031v71.33742c0,6.69574,2.70419,7.98356,5.15036,9.14237A3.94246,3.94246,0,0,1,571.80791,262.10316ZM541.67707,235.9634V234.547c0-14.67978-4.121-27.42759-10.4302-27.42759s-9.657,12.74781-9.657,27.42759c0,14.80832,3.34787,26.7839,9.657,26.7839C537.29894,261.33093,541.67707,252.05954,541.67707,235.9634Z"/>
        <path class="cls-10" d="M576.31831,235.57728c0-18.67132,10.81678-33.47964,34.767-33.47964s33.60819,14.80832,33.60819,33.47964c0,18.54231-9.658,33.35063-33.60819,33.35063S576.31831,254.11959,576.31831,235.57728Zm44.68207,0c0-15.06588-3.47735-28.45784-10.04454-28.45784-6.43772,0-10.68636,13.392-10.68636,28.45784,0,14.93687,4.24864,28.32883,10.68636,28.32883C617.523,263.90611,621.00038,250.51415,621.00038,235.57728Z"/>
      </g>
      <g>
        <path class="cls-10" d="M152.67565,332.24358a1.06393,1.06393,0,0,1-1.11409,1.07776l-6.54111.483c-.51979.03726-1.03958,0-1.03958-.89193v-1.07729a4.93979,4.93979,0,0,1-4.12475,1.96922c-6.8746,0-8.50941-4.19881-8.50941-9.51265,0-5.27657,1.63481-9.47539,8.50941-9.47539a5.37811,5.37811,0,0,1,4.12475,1.74613v-3.75261c0-1.93244-.78061-2.26685-1.4867-2.63852a1.09976,1.09976,0,0,1-.70609-1.04051,1.04884,1.04884,0,0,1,.78061-1.0405l6.8746-1.00325c.51978-.074,1.03957,0,1.03957.89193V328.565c0,1.932.78061,2.30364,1.4867,2.63805A1.13786,1.13786,0,0,1,152.67565,332.24358Zm-8.69478-7.543v-.40894c0-4.23607-1.18954-7.91463-3.01066-7.91463-1.82018,0-2.7871,3.67856-2.7871,7.91463,0,4.27334.96692,7.72926,2.7871,7.72926C142.71774,332.02094,143.98087,329.34516,143.98087,324.70062Z"/>
        <path class="cls-10" d="M153.98071,324.58884c0-5.3879,3.12151-9.66123,10.03336-9.66123,6.91093,0,9.69709,4.27333,9.69709,9.66123,0,5.35109-2.78616,9.62443-9.69709,9.62443C157.10222,334.21327,153.98071,329.93993,153.98071,324.58884Zm12.89405,0c0-4.34739-1.00324-8.21179-2.898-8.21179-1.85837,0-3.08518,3.8644-3.08518,8.21179,0,4.31059,1.22681,8.175,3.08518,8.175C165.87152,332.76383,166.87476,328.89943,166.87476,324.58884Z"/>
        <path class="cls-10" d="M194.45138,312.40087a3.2867,3.2867,0,0,1-.40893-2.48948c0-.81787-.149-1.41218-1.03957-1.41218-1.56123,0-1.44944,2.8239-1.44944,6.01993v.85467h3.41866c.965,0,1.03958,1.74612,0,1.74612h-3.41866V329.9772a1.841,1.841,0,0,0,1.37491,1.67207,1.14008,1.14008,0,0,1,.81695,1.0405,1.08715,1.08715,0,0,1-1.07777,1.11456h-8.7693a1.08715,1.08715,0,0,1-.33441-2.11827c.66883-.29715,1.44944-.78014,1.44944-1.70886V317.11993h-1.59755c-1.0787,0-1.00418-1.74612,0-1.74612h1.59755V313.813c0-4.162,3.23329-6.76328,8.3231-6.76328,1.37492,0,3.86486.59478,5.05441,2.15553C200.917,312.54945,196.56965,315.37381,194.45138,312.40087Z"/>
        <path class="cls-10" d="M218.38391,332.24358a1.087,1.087,0,0,1-1.115,1.07776l-6.57651.483c-.52072.03726-1.04144,0-1.04144-.89193v-2.081a4.9256,4.9256,0,0,1-4.57,2.97293c-4.49643,0-6.94911-2.60126-6.94911-6.76281v-6.094c0-1.93243-.78061-2.26685-1.48577-2.63852a1.09928,1.09928,0,0,1-.70609-1.04051,1.11681,1.11681,0,0,1,.77968-1.0405l6.91185-1.00325c.51979-.074,1.04051,0,1.04051.89193V326.41c0,3.30689,1.85837,3.30689,2.5272,3.30689a2.27283,2.27283,0,0,0,2.45175-2.34091v-6.42839c0-1.93243-.77967-2.26685-1.48576-2.63852a1.09928,1.09928,0,0,1-.70609-1.04051,1.11681,1.11681,0,0,1,.77968-1.0405l6.91185-1.00325c.52072-.074,1.04144,0,1.04144.89193V328.565c0,1.932.77968,2.26638,1.48576,2.63805A1.09973,1.09973,0,0,1,218.38391,332.24358Z"/>
        <path class="cls-10" d="M242.31738,332.68977a1.08639,1.08639,0,0,1-1.07684,1.11456h-8.5094a1.06465,1.06465,0,0,1-1.07777-1.11456,1.03825,1.03825,0,0,1,.74335-1.00371,1.68923,1.68923,0,0,0,1.18862-1.70886v-7.28353c0-3.49273-2.19186-3.38141-2.52628-3.38141a2.49,2.49,0,0,0-2.45268,2.67578v7.98916a1.56256,1.56256,0,0,0,1.115,1.67207,1.06306,1.06306,0,0,1,.81787,1.0405,1.08733,1.08733,0,0,1-1.0787,1.11456h-8.50847a1.06465,1.06465,0,0,1-1.07777-1.11456,1.03743,1.03743,0,0,1,.74242-1.00371,1.91069,1.91069,0,0,0,1.44944-1.70886v-9.02966c0-1.93243-.78061-2.30411-1.4867-2.63852a1.138,1.138,0,0,1-.70516-1.04051.95888.95888,0,0,1,.77968-1.0405l6.91186-1.00325c.51978-.074,1.0405,0,1.0405.89193v2.081a5.93919,5.93919,0,0,1,4.979-2.97294c4.013,0,6.54018,2.564,6.54018,6.76328v7.98916a1.803,1.803,0,0,0,1.37492,1.67207A1.10345,1.10345,0,0,1,242.31738,332.68977Z"/>
        <path class="cls-10" d="M264.95137,332.24358a1.06337,1.06337,0,0,1-1.11409,1.07776l-6.54018.483c-.52072.03726-1.04051,0-1.04051-.89193v-1.07729a4.93743,4.93743,0,0,1-4.12475,1.96922c-6.8746,0-8.50848-4.19881-8.50848-9.51265,0-5.27657,1.63388-9.47539,8.50848-9.47539a5.37676,5.37676,0,0,1,4.12475,1.74613v-3.75261c0-1.93244-.78061-2.26685-1.4867-2.63852a1.10107,1.10107,0,0,1-.70609-1.04051,1.04984,1.04984,0,0,1,.78061-1.0405l6.8746-1.00325c.51978-.074,1.0405,0,1.0405.89193V328.565c0,1.932.77968,2.30364,1.48577,2.63805A1.13642,1.13642,0,0,1,264.95137,332.24358Zm-8.69478-7.543v-.40894c0-4.23607-1.18861-7.91463-3.00973-7.91463s-2.7871,3.67856-2.7871,7.91463c0,4.27334.966,7.72926,2.7871,7.72926C254.99346,332.02094,256.25659,329.34516,256.25659,324.70062Z"/>
        <path class="cls-10" d="M266.25736,324.58884c0-5.3879,3.12058-9.66123,10.03243-9.66123s9.698,4.27333,9.698,9.66123c0,5.35109-2.78617,9.62443-9.698,9.62443S266.25736,329.93993,266.25736,324.58884Zm12.894,0c0-4.34739-1.00417-8.21179-2.89888-8.21179-1.85744,0-3.08425,3.8644-3.08425,8.21179,0,4.31059,1.22681,8.175,3.08425,8.175C278.14724,332.76383,279.15141,328.89943,279.15141,324.58884Z"/>
        <path class="cls-10" d="M316.42606,332.24358a1.06418,1.06418,0,0,1-1.115,1.07776l-6.53925.483c-.52071.03726-1.04143,0-1.04143-.89193v-1.07729a4.93455,4.93455,0,0,1-4.12383,1.96922c-6.87459,0-8.5094-4.19881-8.5094-9.51265,0-5.27657,1.63481-9.47539,8.5094-9.47539a5.37484,5.37484,0,0,1,4.12383,1.74613v-3.75261c0-1.93244-.77968-2.26685-1.48577-2.63852a1.09974,1.09974,0,0,1-.70609-1.04051,1.04883,1.04883,0,0,1,.78061-1.0405l6.87366-1.00325c.52072-.074,1.04144,0,1.04144.89193V328.565c0,1.932.77968,2.30364,1.48577,2.63805A1.13788,1.13788,0,0,1,316.42606,332.24358Zm-8.69571-7.543v-.40894c0-4.23607-1.18862-7.91463-3.0088-7.91463-1.82112,0-2.7871,3.67856-2.7871,7.91463,0,4.27334.966,7.72926,2.7871,7.72926C306.46721,332.02094,307.73035,329.34516,307.73035,324.70062Z"/>
        <path class="cls-10" d="M317.73111,324.58884c0-5.3879,3.12058-9.66123,10.03244-9.66123s9.698,4.27333,9.698,9.66123c0,5.35109-2.78617,9.62443-9.698,9.62443S317.73111,329.93993,317.73111,324.58884Zm12.89406,0c0-4.34739-1.00418-8.21179-2.89888-8.21179-1.85745,0-3.08425,3.8644-3.08425,8.21179,0,4.31059,1.2268,8.175,3.08425,8.175C329.621,332.76383,330.62517,328.89943,330.62517,324.58884Z"/>
        <path class="cls-10" d="M369.01484,332.68977a1.08715,1.08715,0,0,1-1.07777,1.11456h-8.5094a1.06465,1.06465,0,0,1-1.07777-1.11456,1.03714,1.03714,0,0,1,.74335-1.00371,1.68993,1.68993,0,0,0,1.18955-1.70886v-7.28353c0-3.49273-2.19279-3.38141-2.5272-3.38141a2.49,2.49,0,0,0-2.45269,2.67578v7.98916a1.56256,1.56256,0,0,0,1.115,1.67207,1.06119,1.06119,0,0,1,.81694,1.0405,1.08639,1.08639,0,0,1-1.07684,1.11456h-8.51033a1.06391,1.06391,0,0,1-1.07684-1.11456,1.03714,1.03714,0,0,1,.74335-1.00371,1.91069,1.91069,0,0,0,1.44944-1.70886v-9.02966c0-1.93243-.78061-2.30411-1.4867-2.63852a1.13739,1.13739,0,0,1-.70609-1.04051.95964.95964,0,0,1,.78061-1.0405l6.91093-1.00325c.52072-.074,1.0405,0,1.0405.89193v2.081a5.94083,5.94083,0,0,1,4.97989-2.97294c4.013,0,6.53925,2.564,6.53925,6.76328v7.98916a1.803,1.803,0,0,0,1.37492,1.67207A1.10545,1.10545,0,0,1,369.01484,332.68977Z"/>
        <path class="cls-10" d="M370.31989,324.58884c0-5.3879,3.12152-9.66123,10.03337-9.66123,6.91093,0,9.69709,4.27333,9.69709,9.66123,0,5.35109-2.78616,9.62443-9.69709,9.62443C373.44141,334.21327,370.31989,329.93993,370.31989,324.58884Zm12.89406,0c0-4.34739-1.00324-8.21179-2.898-8.21179-1.85837,0-3.08518,3.8644-3.08518,8.21179,0,4.31059,1.22681,8.175,3.08518,8.175C382.21071,332.76383,383.214,328.89943,383.214,324.58884Z"/>
        <path class="cls-10" d="M409.11664,328.86217c0,2.86115-3.12058,5.23932-8.88015,5.23932-5.87135,0-7.65428-2.74984-8.13866-3.60451a2.573,2.573,0,1,1,4.60821-2.22912,12.498,12.498,0,0,1,.18537,2.22912,3.01144,3.01144,0,0,0,3.01066,2.15553c1.67208,0,2.74984-.96645,2.74984-2.37816,0-1.67207-2.34183-2.60126-4.49643-3.8276-3.196-1.82065-6.1685-3.71582-6.1685-6.27982,0-2.8239,2.9352-5.20206,8.733-5.20206,5.87041,0,7.35712,2.67532,7.8769,3.6413,1.00325,1.93243.11178,3.71629-1.524,3.93892a2.653,2.653,0,0,1-2.89795-1.78339,8.48225,8.48225,0,0,1-.18537-2.15553,2.83317,2.83317,0,0,0-2.93614-2.22912,2.23381,2.23381,0,0,0-2.45175,2.1178c0,2.37817,2.45175,3.08426,4.6818,4.45917C407.29645,325.4435,409.11664,326.33543,409.11664,328.86217Z"/>
        <path class="cls-10" d="M428.5546,328.86217c0,2.86115-3.12151,5.23932-8.88015,5.23932-5.87228,0-7.65521-2.74984-8.13866-3.60451a2.573,2.573,0,1,1,4.60821-2.22912,12.498,12.498,0,0,1,.18537,2.22912,3.0102,3.0102,0,0,0,3.00973,2.15553c1.673,0,2.74984-.96645,2.74984-2.37816,0-1.67207-2.3409-2.60126-4.4955-3.8276-3.196-1.82065-6.1685-3.71582-6.1685-6.27982,0-2.8239,2.93521-5.20206,8.732-5.20206,5.87042,0,7.35712,2.67532,7.87691,3.6413,1.00418,1.93243.11178,3.71629-1.523,3.93892a2.65233,2.65233,0,0,1-2.89795-1.78339,8.44118,8.44118,0,0,1-.1863-2.15553,2.832,2.832,0,0,0-2.93521-2.22912,2.23467,2.23467,0,0,0-2.45268,2.1178c0,2.37817,2.45268,3.08426,4.6818,4.45917C426.73348,325.4435,428.5546,326.33543,428.5546,328.86217Z"/>
        <path class="cls-10" d="M430.60207,324.58884c0-5.3879,3.12152-9.66123,10.03337-9.66123,6.91092,0,9.69709,4.27333,9.69709,9.66123,0,5.35109-2.78617,9.62443-9.69709,9.62443C433.72359,334.21327,430.60207,329.93993,430.60207,324.58884Zm12.89406,0c0-4.34739-1.00325-8.21179-2.89795-8.21179-1.85838,0-3.08518,3.8644-3.08518,8.21179,0,4.31059,1.2268,8.175,3.08518,8.175C442.49288,332.76383,443.49613,328.89943,443.49613,324.58884Z"/>
        <path class="cls-10" d="M480.84529,340.8643a1.0865,1.0865,0,0,1-1.07683,1.115H470.9619a1.087,1.087,0,0,1-.33534-2.11827c.70609-.29715,1.44944-.78014,1.44944-1.70933v-5.49921c-.51979.81741-1.85745,1.56076-3.86394,1.56076-7.09815,0-8.7693-4.23607-8.7693-9.66169,0-5.94541,3.82668-9.32682,9.58624-9.32682a6.68263,6.68263,0,0,1,3.2333.85467,2.70042,2.70042,0,0,0,2.22912.03726l2.74984-.78014c.66883-.18584,1.41218-.14858,1.41218.78014v22.035c0,.92919.74241,1.37492,1.374,1.67254A1.17622,1.17622,0,0,1,480.84529,340.8643ZM472.076,324.73741v-.40847c0-4.9049-1.26314-7.54342-3.00974-7.54342-1.63481,0-2.78709,3.679-2.78709,7.95189,0,4.0875.70609,7.9151,2.71257,7.9151C470.81286,332.65251,472.076,328.82491,472.076,324.73741Z"/>
        <path class="cls-10" d="M503.8519,332.24358a1.0878,1.0878,0,0,1-1.116,1.07776l-6.57651.483c-.51979.03726-1.0405,0-1.0405-.89193v-2.081a4.92832,4.92832,0,0,1-4.571,2.97293c-4.4955,0-6.94818-2.60126-6.94818-6.76281v-6.094c0-1.93243-.77968-2.26685-1.48577-2.63852a1.098,1.098,0,0,1-.70609-1.04051,1.11559,1.11559,0,0,1,.77968-1.0405l6.91186-1.00325c.51978-.074,1.0405,0,1.0405.89193V326.41c0,3.30689,1.85744,3.30689,2.52627,3.30689a2.2731,2.2731,0,0,0,2.45269-2.34091v-6.42839c0-1.93243-.77968-2.26685-1.48577-2.63852a1.098,1.098,0,0,1-.70609-1.04051,1.11559,1.11559,0,0,1,.77968-1.0405l6.91185-1.00325c.52072-.074,1.04051,0,1.04051.89193V328.565c0,1.932.78061,2.26638,1.4867,2.63805A1.10106,1.10106,0,0,1,503.8519,332.24358Z"/>
        <path class="cls-10" d="M516.26622,332.68977a1.08715,1.08715,0,0,1-1.07776,1.11456h-8.7693a1.08715,1.08715,0,0,1-.33442-2.11827,1.95122,1.95122,0,0,0,1.44944-1.70886v-9.02966c0-1.93243-.78061-2.30411-1.4867-2.63852a1.13654,1.13654,0,0,1-.70516-1.04051,1.04807,1.04807,0,0,1,.77968-1.0405l6.91093-1.00325c.52071-.074,1.04143,0,1.04143.89193V329.9772a1.803,1.803,0,0,0,1.37492,1.67207A1.10455,1.10455,0,0,1,516.26622,332.68977Zm-8.99193-23.076c0-1.41171,1.03957-2.93521,3.604-2.93521s3.67856,1.5235,3.67856,2.93521c0,1.41218-1.1141,2.97294-3.67856,2.97294S507.27429,311.026,507.27429,309.61377Z"/>
        <path class="cls-10" d="M540.01338,332.68977a1.08791,1.08791,0,0,1-1.0787,1.11456h-8.50847a1.0654,1.0654,0,0,1-1.0787-1.11456,1.03825,1.03825,0,0,1,.74335-1.00371,1.68993,1.68993,0,0,0,1.18955-1.70886v-7.28353c0-3.49273-2.19186-3.38141-2.52721-3.38141a2.48932,2.48932,0,0,0-2.45175,2.67578v7.98916a1.56194,1.56194,0,0,0,1.1141,1.67207,1.06206,1.06206,0,0,1,.81787,1.0405,1.08657,1.08657,0,0,1-1.07777,1.11456h-8.5094a1.06391,1.06391,0,0,1-1.07684-1.11456,1.03632,1.03632,0,0,1,.74242-1.00371,1.91069,1.91069,0,0,0,1.44944-1.70886v-9.02966c0-1.93243-.78061-2.30411-1.4867-2.63852a1.13654,1.13654,0,0,1-.70516-1.04051.95889.95889,0,0,1,.77968-1.0405l6.91093-1.00325c.52071-.074,1.04143,0,1.04143.89193v2.081a5.93919,5.93919,0,0,1,4.979-2.97294c4.013,0,6.54018,2.564,6.54018,6.76328v7.98916a1.803,1.803,0,0,0,1.37492,1.67207A1.10545,1.10545,0,0,1,540.01338,332.68977Z"/>
        <path class="cls-10" d="M542.54338,328.19334V317.08267h-1.96923c-.8542,0-.96505-1.15182-.22263-1.56029,1.97016-1.0405,4.86811-2.48994,6.57744-3.41866,1.11409-.59478,2.15553-.92919,2.15553.33441v2.97247h3.15784a.84111.84111,0,1,1,0,1.67207h-3.15784v11.11067c0,3.79034,1.82018,2.86115,2.41449,2.74984,1.59848-.52025,2.23005,1.74659.52072,2.45222C547.078,335.4764,542.54338,332.68977,542.54338,328.19334Z"/>
        <path class="cls-10" d="M554.47425,328.565c0-5.57373,7.91416-5.83409,10.256-5.98267V321.988c0-2.97293.07452-5.57419-1.89564-5.57419A2.24513,2.24513,0,0,0,560.68,318.792a2.90027,2.90027,0,0,1-.63157,1.96969,2.565,2.565,0,0,1-4.53462-2.3409c1.0787-2.67578,4.53462-3.45593,7.32079-3.45593,4.75632,0,8.43488,1.67207,8.43488,7.28306v6.39114c0,1.93243.74335,2.30411,1.4867,2.63852a1.13787,1.13787,0,0,1,.70609,1.04051,1.06382,1.06382,0,0,1-1.115,1.0773l-6.57744.48345c-.51979.0368-1.03957,0-1.03957-.89192v-1.26361a4.459,4.459,0,0,1-4.23654,2.15553C557.74387,333.87885,554.47425,332.50393,554.47425,328.565Zm10.256-1.18909v-3.30735c-2.11827,0-3.34415,1.70934-3.34415,4.5337C561.3861,333.95291,564.73025,331.16628,564.73025,327.37593Z"/>
        <path class="cls-10" d="M585.654,332.68977a1.08715,1.08715,0,0,1-1.07777,1.11456h-8.733a1.087,1.087,0,0,1-.33348-2.11827,1.95122,1.95122,0,0,0,1.44944-1.70886V312.80981c0-1.93244-.78061-2.26685-1.4867-2.63852a1.179,1.179,0,0,1-.70609-1.04051,1.04883,1.04883,0,0,1,.78061-1.0405l6.87459-1.00325c.51979-.074,1.03958,0,1.03958.89193V329.9772c0,.92872.74335,1.37445,1.37491,1.67207A1.179,1.179,0,0,1,585.654,332.68977Z"/>
      </g>
    </g>
  </g>
</svg>
