<?xml version="1.0" encoding="utf-8"?>
<!-- Generator: Adobe Illustrator 25.2.0, SVG Export Plug-In . SVG Version: 6.00 Build 0)  -->
<svg version="1.1" id="Artwork" xmlns="http://www.w3.org/2000/svg" xmlns:xlink="http://www.w3.org/1999/xlink" x="0px" y="0px"
	 viewBox="0 0 622.5 272.8" style="enable-background:new 0 0 622.5 272.8;" xml:space="preserve">
<style type="text/css">
	.st0{fill:#FFFFFF;}
</style>
<g>
	<path class="st0" d="M106,98.1c0,22.6-19.4,42.3-53.6,42.3C24.6,140.4,0,129.9,0,105.1C0,87.9,17.4,79.2,27.4,78
		c12.4-1.6,19.7,1.7,24.2,4.2c14.7,8.1,13.5,28.7,2,33.2c-8.7,3.4-20.8-3.3-14-18.8c5.3-12.1-11-14.4-11,8.2
		c0,16,8.2,27.6,23.9,27.6c10.7,0,23.9-5.4,23.9-28.2c0-11.8-7.3-18.8-14.6-24.5c-5.9-4.2-12.4-7.9-18.4-11
		C24.6,58.9,5.9,50.8,5.9,31.2C5.9,14,21.9,0,52.7,0c30.7,0,39.2,15.8,42.5,23.1c2.3,5.1,5.3,22.3-8.8,24
		c-9.1,1.1-14.6-5.7-16.3-10.9c-1.9-5.6,0-9.3-0.3-13.8C69.3,16,66,7.1,52.7,7.1c-11.5,0-17.2,6.8-17.2,15.3c0,11.8,14,17.2,22.5,22
		c22.3,12.6,31.5,19.2,38.4,27C103.1,78.9,106,89.4,106,98.1z"/>
	<path class="st0" d="M114.6,93.5c0-23.3,33-24.3,42.8-25V66c0-12.4,0.3-23.3-7.9-23.3c-6,0-9,5.4-9,9.9c0,4-1.1,6.2-2.6,8.2
		c-8.4,11-23.4,1.4-18.9-9.8c4.5-11.2,18.9-14.4,30.5-14.4c19.8,0,35.2,7,35.2,30.4v26.7c0,8.1,3.1,9.6,6.2,11
		c1.7,0.8,2.9,2.3,2.9,4.3c0,2.5-1.7,4.3-4.7,4.5l-27.4,2c-2.2,0.2-4.3,0-4.3-3.7v-5.3c-3.4,5.1-7.8,9-17.7,9
		C128.2,115.6,114.6,109.9,114.6,93.5z M157.3,88.5V74.7c-8.8,0-14,7.1-14,18.9C143.4,115.9,157.3,104.3,157.3,88.5z"/>
	<path class="st0" d="M341.6,110.7c0,2.6-2,4.7-4.5,4.7h-35.5c-2.6,0-4.5-2-4.5-4.7c0-2,1.2-3.4,3.1-4.2c2.8-1.2,5-3.3,5-7.1V69
		c0-14.1-8.5-14.1-10.5-14.1c-2.9,0-10.2,1.9-10.2,10.7v33.8c0,3.9,2,5.9,4.7,7c2,0.8,3.4,2.3,3.4,4.3c0,2.6-2,4.7-4.5,4.7h-34.4
		c-2.6,0-4.5-2-4.5-4.7c0-2,1.4-3.4,3.1-4.2c2.8-1.2,5-3.3,5-7.1V69c0-14.1-8.5-14.1-10.5-14.1c-3.1,0-10.2,1.9-10.2,10.9v33.6
		c0,3.9,1.9,6,4.6,7c2,0.6,3.4,2.3,3.4,4.3c0,2.6-2,4.7-4.5,4.7h-35.5c-2.6,0-4.5-2-4.5-4.7c0-2,1.2-3.4,3.1-4.2
		c2.8-1.2,6-3.3,6-7.1V61.7c0-8.1-3.3-9.5-6.2-11c-1.7-0.6-2.9-2.3-2.9-4.3c0-2,0.6-4,3.3-4.3l28.8-4.2c2.2-0.3,4.3,0,4.3,3.7v8.7
		c3.4-6,12.7-12.4,22.3-12.4c10.5,0,20.2,4.2,23.6,12.9c5.3-9.3,13.6-12.9,23.4-12.9c18.8,0,26.8,10.9,26.8,28.2v33.3
		c0,3.9,3.1,5.7,5.7,7C340.2,107.3,341.6,108.7,341.6,110.7z"/>
	<path class="st0" d="M430.3,76.4c0,24.8-16,38.9-40,38.9c-4.6,0-8.7-0.8-13.5-3.6c-2.6-1.2-5.1-1.7-9.3-0.2l-11.3,3.3
		c-2.8,0.8-5.9,0.6-5.9-3.3V27.7c0-8.1-3.6-10.1-6.2-11c-1.7-0.6-2.9-2.3-2.9-4.3s1.2-4,3.3-4.3l28.8-4.2c2.2-0.3,4.3,0,4.3,3.7v35
		c2.2-3.4,7.7-6.5,16.1-6.5C420.2,36.1,430.3,53.8,430.3,76.4z M401.8,75.6c0-17.1-2.9-33-11.3-33c-7.6,0-12.9,16-12.9,33v1.7
		c0,20.5,5.3,31.5,12.6,31.5C397,108.8,401.8,93.5,401.8,75.6z"/>
	<path class="st0" d="M438.1,93.5c0-23.3,33-24.3,42.8-25V66c0-12.4,0.3-23.3-7.9-23.3c-6,0-9,5.4-9,9.9c0,4-1.1,6.2-2.6,8.2
		c-8.4,11-23.4,1.4-18.9-9.8c4.5-11.2,18.9-14.4,30.5-14.4c19.8,0,35.2,7,35.2,30.4v26.7c0,8.1,3.1,9.6,6.2,11
		c1.7,0.8,2.9,2.3,2.9,4.3c0,2.5-1.7,4.3-4.7,4.5l-27.4,2c-2.2,0.2-4.3,0-4.3-3.7v-5.3c-3.4,5.1-7.8,9-17.7,9
		C451.7,115.6,438.1,109.9,438.1,93.5z M480.8,88.5V74.7c-8.8,0-14,7.1-14,18.9C466.9,115.9,480.8,104.3,480.8,88.5z"/>
	<path class="st0" d="M527.5,29.3c2.2-2.2,3.7-3.6,5.1-5.9c-7-0.5-9.9-4.7-9.9-9.8c0-5.7,3.3-9.9,10.7-9.9c7.4,0,10.4,4.2,10.4,9.9
		c0,6.4-7.3,13.3-11.9,17.8C528.6,34.6,525.6,31.2,527.5,29.3z"/>
	<path class="st0" d="M622.5,94.7c0,11.9-13,21.9-37,21.9c-24.5,0-31.9-11.5-33.9-15c-2.6-4.5-2.5-12.9,5.3-15.7
		c5.9-2.2,12.4,0.9,14,6.4c1.1,3.9,0.3,6.2,0.8,9.3c0.6,3.9,5.4,9,12.6,9c7,0,11.5-4,11.5-9.9c0-7-9.8-10.9-18.8-16
		c-13.3-7.6-25.7-15.5-25.7-26.2c0-11.8,12.2-21.7,36.4-21.7c24.5,0,30.7,11.2,32.9,15.2c4.2,8.1,0.5,15.5-6.4,16.4
		c-6.5,0.9-10.5-3.4-12.1-7.4c-1.2-3.1-0.3-5.9-0.8-9c-0.6-4-4.6-9.3-12.2-9.3c-6.2,0-10.2,4-10.2,8.8c0,9.9,10.2,12.9,19.5,18.6
		C614.9,80.4,622.5,84.2,622.5,94.7z"/>
	<path class="st0" d="M86.5,266.3c0,2.6-2,4.7-4.5,4.7H45.6c-2.6,0-4.5-2-4.5-4.7c0-2,1.2-3.4,3.1-4.2c2.8-1.1,6-3.3,6-7.1v-71.6
		c0-8.1-3.3-9.5-6.2-11c-1.7-0.9-2.9-2.3-2.9-4.3s1.4-4,3.3-4.3l28.7-4.2c2.2-0.3,4.3,0,4.3,3.7V255c0,3.9,3.1,5.7,5.7,7
		C85.1,262.9,86.5,264.3,86.5,266.3z"/>
	<path class="st0" d="M121.7,235c0,19.5,5.7,30.7,17.8,30.7c4.2,0,9.6-2.2,12.1-6.7c2.2-3.9-1.2-8.5,2-14.4
		c5-9.1,22.2-4.7,15.8,10.7c-1.1,2.6-3.3,5.3-5.1,7c-7.8,7.1-14.3,10.5-29.5,10.5c-28.2,0-42.2-15.2-42.2-40.9
		c0-22.2,12.1-39.7,40.9-39.7c26.2,0,37,13.6,38.4,32.6c0.5,6.4-3.3,5.6-11,5.6h-39.4V235z M122.1,223.8h15.7c4.6,0,5.7-2.3,5.7-4.7
		c0-14.7-4.8-20.9-9.9-20.9C124.3,198.3,122.1,213.3,122.1,223.8z"/>
	<path class="st0" d="M259.2,266.3c0,2.6-2,4.7-4.7,4.7h-34.3c-2.6,0-4.7-2-4.7-4.7c0-1.6,0.8-2.8,2.2-3.7c1.9-1.2,2.9-2.6,1.4-5
		l-8.5-13.2L200,257.8c-2.3,2.8-0.2,5,0.5,5.7c0.8,1.1,1.1,1.7,1.1,2.8c0,2.6-2,4.7-4.6,4.7H179c-2.6,0-4.6-2-4.6-4.7s2-4.2,4.8-4.5
		c2.5-0.3,8.8-1.2,11.5-4.7l15.2-19.7l-19.7-28.2c-2.9-4.2-4.5-5.6-7.6-7.1c-1.6-0.8-2.5-2.3-2.5-4c0-2.6,2-4.7,4.6-4.7H215
		c2.6,0,4.7,2,4.7,4.7c0,1.6-0.8,2.8-2.2,3.6c-2.5,1.4-3.3,3.7-1.7,5.9l8.5,12.2l9-11.3c2.5-3.1,0.9-6.7,0.3-7.6
		c-0.6-1.1-0.9-1.7-0.9-2.8c0-2.6,2-4.7,4.6-4.7h17.8c2.6,0,4.6,2,4.6,4.7c0,1.7-0.9,3.3-2.5,4c-2.3,1.1-9.5,0.2-13.2,5l-15.2,19.7
		l20.3,29.8c2.9,3.7,4.3,4.2,7.4,5.7C258.2,263.1,259.2,264.6,259.2,266.3z"/>
	<path class="st0" d="M313.1,266.3c0,2.6-2,4.7-4.5,4.7H272c-2.6,0-4.5-2-4.5-4.7c0-2,1.2-3.4,3.1-4.2c2.8-1.1,6-3.3,6-7.1v-37.7
		c0-8.1-3.3-9.6-6.2-11c-1.7-0.8-2.9-2.3-2.9-4.3c0-2,1.4-4,3.3-4.3l28.8-4.2c2.2-0.3,4.3,0,4.3,3.7V255c0,3.9,3.1,6.2,5.7,7
		C311.7,262.6,313.1,264.3,313.1,266.3z M275.6,170.1c0-5.9,4.3-12.2,15-12.2c10.7,0,15.3,6.4,15.3,12.2c0,5.9-4.6,12.4-15.3,12.4
		C279.9,182.5,275.6,175.9,275.6,170.1z"/>
	<path class="st0" d="M393.3,255.3c-1.2,2.6-3.1,4.8-5.1,7c-5.9,6.2-14.6,10.5-27.6,10.5c-28.4,0-42-17.4-42-40.3
		c0-23.3,13.6-40.5,42-40.5c16.4,0,27.6,6.5,32.4,17.4c7.1,16.1-11.6,20.2-17.1,12.9c-5.4-7.3-1.1-11.9-3.6-17.5
		c-1.9-4.2-5.7-6.7-10.7-6.7c-12.1,0-14.3,17.4-14.3,34.4c0,20.2,4.5,33.5,16,33.5c7.8,0,10.9-3.3,12.6-7c2-4.3-1.4-8.8,2.3-14.4
		C383.5,236.7,399.6,241.8,393.3,255.3z"/>
	<path class="st0" d="M401.6,232.5c0-22.5,13-40.3,41.9-40.3c28.8,0,40.5,17.8,40.5,40.3c0,22.3-11.6,40.1-40.5,40.1
		C414.7,272.7,401.6,254.8,401.6,232.5z M455.4,232.5c0-18.1-4.2-34.3-12.1-34.3c-7.8,0-12.9,16.1-12.9,34.3
		c0,18,5.1,34.1,12.9,34.1C451.2,266.6,455.4,250.5,455.4,232.5z"/>
	<path class="st0" d="M584.5,266.3c0,2.6-2,4.7-4.5,4.7h-35.5c-2.6,0-4.5-2-4.5-4.7c0-2,1.2-3.6,3.1-4.2c2.8-0.9,5-3.3,5-7.1v-30.4
		c0-14.6-9.1-14.1-10.5-14.1c-3.1,0-10.2,2.2-10.2,11.2V255c0,3.9,1.9,6.2,4.6,7c2.2,0.6,3.4,2.3,3.4,4.3c0,2.6-2,4.7-4.5,4.7h-35.5
		c-2.6,0-4.5-2-4.5-4.7c0-2,1.2-3.6,3.1-4.2c2.8-0.9,6-3.3,6-7.1v-37.7c0-8.1-3.3-9.6-6.2-11c-1.7-0.8-2.9-2.3-2.9-4.3
		c0-2,0.8-3.7,3.3-4.3l28.8-4.2c2.2-0.3,4.3,0,4.3,3.7v8.7c3.4-6,11.2-12.4,20.8-12.4c16.7,0,27.3,10.7,27.3,28.2V255
		c0,3.9,3.1,6.2,5.7,7C583.1,262.6,584.5,264.3,584.5,266.3z"/>
</g>
</svg>
