<svg id="Artwork" xmlns="http://www.w3.org/2000/svg" width="720" height="290" viewBox="0 0 720 290">
  <defs>
    <style>
      .cls-1 {
        fill: #fff;
      }
    </style>
  </defs>
  <title>Artboard 13</title>
  <g>
    <path class="cls-1" d="M203.256,96.78883l-3.57144,15.84128a5.17154,5.17154,0,0,1-4.9703,3.72735H123.44068a4.87764,4.87764,0,0,1-1.86349-9.47373c2.95127-1.24245,6.52271-3.41665,6.52271-8.38645V25.348c0-12.11392-7.29941-15.686-14.75337-15.686-9.62952,0-18.79243,8.54186-18.79243,22.83,0,17.86031,12.73534,19.25805,8.3862,9.78431-6.67824-14.5987,10.09515-21.89811,16.7734-13.82224,4.34814,5.2805,2.019,14.133-2.64019,19.56863-5.43593,6.21225-12.73534,7.14412-19.258,7.14412-15.68562,0-26.713-9.47374-26.713-22.67482,0-17.70489,15.53107-27.95508,41.46736-27.95508h48.76579a5.03837,5.03837,0,0,1,5.12485,4.9698,4.862,4.862,0,0,1-3.26136,4.50393c-2.95028.93175-6.52271,3.41665-6.52271,8.38645v78.74039c0,8.23116,4.65922,8.69716,9.00836,8.69716h5.88893c7.765,0,18.17125-.62129,22.20931-15.5307a4.80177,4.80177,0,0,1,4.50368-3.57206A4.93953,4.93953,0,0,1,203.256,96.78883Z"/>
    <path class="cls-1" d="M240.6508,80.32639c0,19.56863,5.747,30.75069,17.86018,30.75069,4.1936,0,9.62952-2.17432,12.11417-6.67825,2.17457-3.88264-1.24232-8.54174,2.019-14.44341,4.96931-9.16315,22.20833-4.65922,15.84115,10.71606a21.46974,21.46974,0,0,1-5.12484,6.98883c-7.766,7.14412-14.28874,10.56089-29.50873,10.56089-28.26541,0-42.24308-15.22011-42.24308-41.001,0-22.20869,12.11418-39.75842,41.00075-39.75842,26.24738,0,37.11823,13.66708,38.5161,32.61443.46562,6.36754-3.26136,5.591-11.0264,5.591H240.6508Zm.46661-11.18205H256.803c4.65922,0,5.746-2.32961,5.746-4.65922,0-14.75412-4.81476-20.96637-9.93961-20.96637C243.291,43.51875,241.11741,58.58357,241.11741,69.14434Zm6.98834-43.48578c1.08679-5.43567-.15554-15.22,1.708-19.56863A9.756,9.756,0,0,1,261.46225.34368c4.50368,1.24245,6.83379,6.83341,5.28038,11.18205-1.70894,4.96981-9.474,11.02664-12.73533,16.30715C251.98827,31.09424,247.32905,29.54121,248.10575,25.65856Z"/>
    <path class="cls-1" d="M378.67138,111.69824a4.5761,4.5761,0,0,1-4.65923,4.65922H339.68966a4.5761,4.5761,0,0,1-4.65923-4.65922,4.36468,4.36468,0,0,1,2.17457-3.72735c1.86349-1.24245,2.95028-2.64019,1.39688-4.9698l-8.54174-13.201-10.71532,13.35625c-2.33011,2.79561-.15554,4.9698.46562,5.74638a4.25867,4.25867,0,0,1,1.08679,2.79548,4.5761,4.5761,0,0,1-4.65922,4.65922H298.37783a4.5761,4.5761,0,0,1-4.65922-4.65922c0-2.64019,2.019-4.19322,4.81476-4.5038,2.48465-.31071,8.85282-1.24245,11.493-4.65923l15.22-19.72392L305.5217,54.54551c-2.95027-4.19322-4.50368-5.591-7.60949-7.14412a4.476,4.476,0,0,1-2.48466-4.03794,4.576,4.576,0,0,1,4.65922-4.65909h34.3225a4.576,4.576,0,0,1,4.65922,4.65909,3.94756,3.94756,0,0,1-2.17456,3.57207c-2.48466,1.39774-3.26136,3.72735-1.708,5.90167l8.54174,12.26921,9.00737-11.33734a6.7066,6.7066,0,0,0,.31108-7.61,5.01132,5.01132,0,0,1-.93224-2.79561,4.576,4.576,0,0,1,4.65922-4.65909h17.86018a4.576,4.576,0,0,1,4.65922,4.65909,4.47781,4.47781,0,0,1-2.48465,4.03794c-2.33011,1.08716-9.474.15541-13.201,4.9698l-15.22,19.72392,20.34484,29.81882c2.95127,3.72735,4.34814,4.19335,7.45495,5.74638A4.47806,4.47806,0,0,1,378.67138,111.69824Z"/>
    <path class="cls-1" d="M434.4401,111.69824a4.543,4.543,0,0,1-4.50368,4.65922H393.28381A4.54266,4.54266,0,0,1,391.886,107.505c2.79573-1.08716,6.05708-3.26148,6.05708-7.14412V62.6215c0-8.076-3.26135-9.629-6.21163-11.02676a4.75545,4.75545,0,0,1-2.95127-4.34864,4.38284,4.38284,0,0,1,3.26135-4.34852l28.88757-4.19322c2.17358-.31071,4.34815,0,4.34815,3.72723V100.3609c0,3.88264,3.10581,6.21225,5.746,6.98883A4.61748,4.61748,0,0,1,434.4401,111.69824ZM396.85624,15.25309c0-5.90168,4.34815-12.26922,15.06446-12.26922s15.37552,6.36754,15.37552,12.26922-4.65922,12.4245-15.37552,12.4245S396.85624,21.15463,396.85624,15.25309Z"/>
    <path class="cls-1" d="M513.87435,100.67148a27.955,27.955,0,0,1-5.12584,6.98883c-5.90154,6.21225-14.59882,10.56089-27.64425,10.56089-28.421,0-42.08753-17.39431-42.08753-40.37971,0-23.296,13.66658-40.535,42.08753-40.535,16.46232,0,27.64425,6.523,32.459,17.39431,7.14388,16.15186-11.64755,20.18992-17.08348,12.8905s-1.08778-11.95863-3.57243-17.5496a11.18661,11.18661,0,0,0-10.71631-6.67825c-12.11318,0-14.28775,17.39431-14.28775,34.478,0,20.18979,4.50369,33.54617,15.9967,33.54617,7.765,0,10.87085-3.26148,12.57979-6.98883,2.019-4.34852-1.39786-8.85245,2.32912-14.44341C504.08929,82.03472,520.24152,87.15981,513.87435,100.67148Z"/>
    <path class="cls-1" d="M522.26253,77.84149c0-22.5194,13.04543-40.37971,41.933-40.37971,28.88658,0,40.53513,17.86031,40.53513,40.37971,0,22.36411-11.64855,40.2243-40.53513,40.2243C535.308,118.06579,522.26253,100.2056,522.26253,77.84149Zm53.89163,0c0-18.17089-4.1936-34.32274-12.11418-34.32274-7.765,0-12.89087,16.15185-12.89087,34.32274,0,18.0156,5.12584,34.16733,12.89087,34.16733C571.96056,112.00882,576.15416,95.85709,576.15416,77.84149Z"/>
    <path class="cls-1" d="M89.14537,247.5131c0,2.4849-1.70795,4.34851-4.65922,4.50381l-27.33416,2.019c-2.17358.15529-4.34815,0-4.34815-3.72735v-4.50393c-4.34913,5.59109-10.09514,8.23128-17.239,8.23128C6.8328,254.03593,0,236.48633,0,214.27751c0-22.05353,6.8328-39.60313,35.56483-39.60313,6.05708,0,13.04542,2.17432,17.239,7.29941v-15.686c0-8.07587-3.26135-9.47361-6.21262-11.02664a4.59708,4.59708,0,0,1-2.95028-4.34864,4.383,4.383,0,0,1,3.26136-4.34864l28.731-4.19323c2.17457-.31058,4.34914,0,4.34914,3.72736v86.03967c0,8.076,3.26135,9.629,6.21163,11.02677A4.75543,4.75543,0,0,1,89.14537,247.5131ZM52.80384,215.98584v-1.70833c0-17.70489-4.97029-33.08029-12.57979-33.08029-7.61049,0-11.64855,15.3754-11.64855,33.08029,0,17.86018,4.03806,32.30372,11.64855,32.30372C47.52346,246.58123,52.80384,235.39917,52.80384,215.98584Z"/>
    <path class="cls-1" d="M93.68652,215.52c0-22.5194,13.04542-40.37958,41.933-40.37958,28.88657,0,40.53512,17.86018,40.53512,40.37958,0,22.36411-11.64855,40.2243-40.53512,40.2243C106.73194,255.74426,93.68652,237.88407,93.68652,215.52Zm53.89162,0c0-18.17089-4.19359-34.32274-12.11417-34.32274-7.765,0-12.89088,16.15185-12.89088,34.32274,0,18.01548,5.12584,34.16746,12.89088,34.16746C143.38455,249.68742,147.57814,233.53544,147.57814,215.52Z"/>
    <path class="cls-1" d="M311.1165,236.79692c0,22.67469-19.41259,42.39861-53.73608,42.39861-27.79979,0-52.49277-10.56077-52.49277-35.40978,0-17.239,17.39357-25.93618,27.48871-27.17863,12.42426-1.553,19.72367,1.70833,24.22835,4.19323,14.75337,8.076,13.511,28.73165,2.018,33.23558-8.69629,3.41677-20.81047-3.26148-13.97668-18.79205,5.28039-12.11392-11.02738-14.44353-11.02738,8.23116,0,15.99657,8.23165,27.64462,23.91727,27.64462,10.7163,0,23.91727-5.4358,23.91727-28.26578,0-11.80335-7.29942-18.79205-14.59883-24.53843a152.52836,152.52836,0,0,0-18.48135-11.02677c-18.79242-9.78419-37.58385-17.86018-37.58385-37.5841,0-17.239,15.99669-31.21656,46.9023-31.21656,30.75006,0,39.29279,15.84128,42.55415,23.14069,2.32911,5.12509,5.28038,22.36411-8.85282,24.07244-9.1629,1.08716-14.59883-5.74638-16.30678-10.87148-1.86448-5.591,0-9.31832-.31107-13.82225-.46563-6.52283-3.727-15.37528-17.08348-15.37528-11.493,0-17.239,6.83342-17.239,15.37528,0,11.80335,13.97766,17.239,22.5194,22.05353,22.36386,12.5798,31.52677,19.25793,38.51609,27.02334C308.16622,217.539,311.1165,228.09976,311.1165,236.79692Z"/>
    <path class="cls-1" d="M319.66122,232.13769c0-23.29585,33.08017-24.383,42.86423-25.0043v-2.4849c0-12.42451.31108-23.296-7.92057-23.296-6.05709,0-9.00737,5.4358-9.00737,9.9396a12.10193,12.10193,0,0,1-2.64019,8.23128c-8.3862,11.02677-23.45164,1.39775-18.948-9.78431,4.50467-11.18206,18.948-14.44341,30.59552-14.44341,19.87921,0,35.25474,6.98871,35.25474,30.44V232.4484c0,8.07587,3.10581,9.6289,6.21262,11.02664a4.75608,4.75608,0,0,1,2.95028,4.34864c0,2.4849-1.70795,4.34864-4.65922,4.50393l-27.48871,2.01891c-2.17457.15529-4.34914,0-4.34914-3.72736v-5.28038c-3.4159,5.12509-7.765,9.00774-17.70464,9.00774C333.3278,254.34652,319.66122,248.60026,319.66122,232.13769Zm42.86423-4.9698V213.34564c-8.85182,0-13.97766,7.14413-13.97766,18.94747C348.54779,254.65722,362.52545,243.00917,362.52545,227.16789Z"/>
    <path class="cls-1" d="M567.61476,273.52162c0,12.26921-13.201,16.92831-23.60619,16.92831-20.966,0-32.459-21.194-32.459-42.93683V207.59939c0-14.133-8.54174-14.133-10.56077-14.133-2.95127,0-10.25068,1.86374-10.25068,10.71619v33.85675a6.94863,6.94863,0,0,0,4.65922,6.98883,4.76553,4.76553,0,0,1,3.4169,4.34851,4.543,4.543,0,0,1-4.50369,4.65922h-34.478a4.44916,4.44916,0,0,1-4.50369-4.65922,4.69356,4.69356,0,0,1,3.10582-4.19322c2.79573-1.24245,4.9703-3.26148,4.9703-7.14412v-30.44c0-14.133-8.54273-14.133-10.56077-14.133-3.10681,0-10.25068,1.86374-10.25068,10.87148v33.70146c0,3.88264,1.86349,6.057,4.65922,6.98883a4.61747,4.61747,0,0,1,3.41689,4.34851,4.543,4.543,0,0,1-4.50368,4.65922H410.6001a4.54266,4.54266,0,0,1-1.39786-8.85244c2.79573-1.24245,6.05708-3.26148,6.05708-7.14412V200.3c0-8.076-3.26135-9.47373-6.21163-11.02676a4.59653,4.59653,0,0,1-2.95127-4.34864c0-2.01891.62116-4.03794,3.26136-4.34852l28.88756-4.19335c2.17358-.31058,4.34815,0,4.34815,3.72748v8.697c3.41689-6.05684,12.73533-12.42451,22.36386-12.42451,10.56077,0,20.19029,4.19335,23.60718,12.89051,5.28039-9.31844,13.66659-12.89051,23.45066-12.89051,18.79242,0,26.86854,10.87148,26.86854,28.26579V256.2826c0,39.29255,11.80309,28.42107,8.3862,21.12166-2.95127-6.36754.31107-14.44353,9.474-14.44353C563.57671,262.96073,567.61476,267.62,567.61476,273.52162Z"/>
    <path class="cls-1" d="M633.30083,215.05409c0,24.849-15.9967,38.98184-40.0695,38.98184a24.897,24.897,0,0,1-13.511-3.57206c-2.64019-1.24245-5.12485-1.70832-9.31844-.15529l-11.33747,3.26148c-2.79573.77646-5.90155.62116-5.90155-3.26148V166.28781c0-8.07587-3.57243-10.0949-6.21263-11.02664a4.59707,4.59707,0,0,1-2.95027-4.34864,4.22411,4.22411,0,0,1,3.26135-4.34864l28.88658-4.19323c2.17456-.31058,4.34913,0,4.34913,3.72736v35.0992c2.17358-3.41665,7.765-6.52284,16.15124-6.52284C623.20568,174.67438,633.30083,192.37927,633.30083,215.05409Zm-28.57649-.77658c0-17.08373-2.95028-33.08029-11.33747-33.08029-7.6095,0-12.88989,15.99656-12.88989,33.08029v1.70833c0,20.50049,5.28039,31.52726,12.5798,31.52726C599.90958,247.5131,604.72434,232.13769,604.72434,214.27751Z"/>
    <path class="cls-1" d="M640.63869,232.13769c0-23.29585,33.08018-24.383,42.86424-25.0043v-2.4849c0-12.42451.31009-23.296-7.92057-23.296-6.05709,0-9.00836,5.4358-9.00836,9.9396a12.10193,12.10193,0,0,1-2.64019,8.23128c-8.3862,11.02677-23.45065,1.39775-18.947-9.78431s18.947-14.44341,30.59552-14.44341c19.87921,0,35.25474,6.98871,35.25474,30.44V232.4484c0,8.07587,3.10581,9.6289,6.21163,11.02664A4.75545,4.75545,0,0,1,720,247.82368c0,2.4849-1.70894,4.34864-4.65922,4.50393l-27.4897,2.01891c-2.17358.15529-4.34815,0-4.34815-3.72736v-5.28038c-3.41689,5.12509-7.765,9.00774-17.70464,9.00774C654.30528,254.34652,640.63869,248.60026,640.63869,232.13769Zm42.86424-4.9698V213.34564c-8.85281,0-13.97766,7.14413-13.97766,18.94747C669.52527,254.65722,683.50293,243.00917,683.50293,227.16789Z"/>
  </g>
</svg>
